SplineFontDB: 3.0
FontName: Engslant
FullName: Engslant
FamilyName: Engslant
Weight: Regular
Copyright: Copyright (c) 2019, Lennon
UComments: "2019-2-10: Created with FontForge (http://fontforge.org)"
Version: 001.000
ItalicAngle: 0
UnderlinePosition: -100
UnderlineWidth: 50
Ascent: 800
Descent: 200
InvalidEm: 0
LayerCount: 2
Layer: 0 0 "Back" 1
Layer: 1 0 "Fore" 0
XUID: [1021 894 -1665212280 18662]
StyleMap: 0x0000
FSType: 0
OS2Version: 0
OS2_WeightWidthSlopeOnly: 0
OS2_UseTypoMetrics: 1
CreationTime: 1549854279
ModificationTime: 1550208707
OS2TypoAscent: 0
OS2TypoAOffset: 1
OS2TypoDescent: 0
OS2TypoDOffset: 1
OS2TypoLinegap: 90
OS2WinAscent: 0
OS2WinAOffset: 1
OS2WinDescent: 0
OS2WinDOffset: 1
HheadAscent: 0
HheadAOffset: 1
HheadDescent: 0
HheadDOffset: 1
OS2Vendor: 'PfEd'
Lookup: 1 0 0 "do-backlink" { "do-backlink-1"  } [' RQD' ('DFLT' <'dflt' > 'latn' <'dflt' > ) ]
Lookup: 1 0 0 "do-cap" { "do-cap-1"  } [' RQD' ('DFLT' <'dflt' > 'latn' <'dflt' > ) ]
Lookup: 4 0 0 "ligatures" { "ligatures-1"  } [' RQD' ('DFLT' <'dflt' > 'latn' <'dflt' > ) ]
Lookup: 6 0 0 "backlink" { "backlink-1"  } [' RQD' ('DFLT' <'dflt' > 'latn' <'dflt' > ) ]
Lookup: 1 0 0 "do-link" { "do-link-1" ("lin") } ['aalt' ('DFLT' <'dflt' > 'latn' <'dflt' > ) ]
Lookup: 1 0 0 "do-linkfrom" { "do-linkfrom-1"  } ['aalt' ('DFLT' <'dflt' > 'latn' <'dflt' > ) ]
Lookup: 6 0 0 "linkfrom" { "linkfrom-1"  } [' RQD' ('DFLT' <'dflt' > 'latn' <'dflt' > ) ]
Lookup: 6 0 0 "linkto" { "link-1"  "linkto-1"  } [' RQD' ('DFLT' <'dflt' > 'latn' <'dflt' > ) ]
MarkAttachClasses: 1
DEI: 91125
ChainSub2: class "linkfrom-1" 2 2 2 1

StartChar: P.lin
Encoding: 256 -1 0
Width: 500
VWidth: 0
Flags: W
LayerCount: 2
Back
SplineSet
700 100 m 29
 200 600 l 1053
525 325 m 29
 600 400 l 1053
EndSplineSet
Fore
SplineSet
712.374023438 87.6259765625 m 0
 693.1171875 68.3681640625 671.384765625 57.904296875 664.64453125 64.64453125 c 2
 164.64453125 564.64453125 l 2
 157.904296875 571.384765625 168.368164062 593.116210938 187.625976562 612.374023438 c 0
 206.883789062 631.6328125 228.615234375 642.095703125 235.35546875 635.35546875 c 2
 522.980957031 347.729980469 l 1
 587.625 412.374023438 l 2
 606.8828125 431.631835938 628.614257812 442.095703125 635.35546875 435.35546875 c 0
 642.095703125 428.615234375 631.631835938 406.8828125 612.374023438 387.625976562 c 2
 547.729492188 322.981445312 l 1
 735.35546875 135.35546875 l 2
 742.095703125 128.615234375 731.631835938 106.8828125 712.374023438 87.6259765625 c 0
EndSplineSet
Validated: 33
EndChar

StartChar: p.lin
Encoding: 257 -1 1
Width: 500
VWidth: 0
Flags: W
LayerCount: 2
Back
SplineSet
100 400 m 16
 206.066017178 506.066017178 323.223304703 476.776695297 500 300 c 2
 700 100 l 1049
525 325 m 25
 600 400 l 1049
EndSplineSet
Fore
SplineSet
64.64453125 364.64453125 m 0
 57.904296875 371.384765625 68.3681640625 393.1171875 87.6259765625 412.375 c 0
 240.020876492 564.769899929 359.327563831 508.372119801 522.926920374 347.675943811 c 1
 587.625 412.374023438 l 2
 606.8828125 431.631835938 628.614257812 442.095703125 635.35546875 435.35546875 c 0
 642.095703125 428.615234375 631.631835938 406.8828125 612.374023438 387.625976562 c 2
 547.729492188 322.981445312 l 1
 735.35546875 135.35546875 l 2
 742.095703125 128.615234375 731.631835938 106.883789062 712.374023438 87.6259765625 c 0
 693.116210938 68.3681640625 671.384765625 57.904296875 664.64453125 64.64453125 c 2
 464.64453125 264.64453125 l 2
 281.139648438 448.150390625 168.279296875 443.530273438 112.375 387.625976562 c 0
 93.1162109375 368.368164062 71.384765625 357.905273438 64.64453125 364.64453125 c 0
EndSplineSet
Validated: 33
EndChar

StartChar: K.lin
Encoding: 258 -1 2
Width: 675
VWidth: 0
Flags: W
LayerCount: 2
Back
SplineSet
600 225 m 29
 775 400 l 1053
200 600 m 5
 500 300 l 5
 676.776695297 123.223304703 809.933982822 93.933982822 916 200 c 1029
EndSplineSet
Fore
SplineSet
187.625976562 612.374023438 m 0
 206.8828125 631.631835938 228.615234375 642.095703125 235.35546875 635.35546875 c 2
 535.35546875 335.35546875 l 2
 563.102700479 307.608237021 589.617522948 284.175365536 614.829319098 264.578190731 c 1
 762.625976562 412.374023438 l 2
 781.8828125 431.631835938 803.615234375 442.095703125 810.35546875 435.35546875 c 0
 817.095703125 428.615234375 806.631835938 406.8828125 787.374023438 387.625976562 c 2
 643.368053249 243.620006374 l 1
 769.778237736 156.303854835 859.886393546 168.635416984 903.625 212.374023438 c 0
 922.8828125 231.631835938 944.615234375 242.095703125 951.35546875 235.35546875 c 0
 958.095703125 228.615234375 947.631835938 206.8828125 928.374023438 187.625976562 c 0
 771.577148438 30.8291015625 634.814453125 94.474609375 464.64453125 264.64453125 c 2
 164.64453125 564.64453125 l 2
 157.904296875 571.384765625 168.368164062 593.1171875 187.625976562 612.374023438 c 0
EndSplineSet
Validated: 33
EndChar

StartChar: P
Encoding: 80 80 3
Width: 350
VWidth: 0
Flags: W
LayerCount: 2
Back
SplineSet
700 100 m 29
 200 600 l 1053
EndSplineSet
Fore
SplineSet
712.374023438 87.6259765625 m 0
 693.1171875 68.3681640625 671.384765625 57.904296875 664.64453125 64.64453125 c 2
 164.64453125 564.64453125 l 2
 157.904296875 571.384765625 168.368164062 593.116210938 187.625976562 612.374023438 c 0
 206.883789062 631.6328125 228.615234375 642.095703125 235.35546875 635.35546875 c 2
 735.35546875 135.35546875 l 2
 742.095703125 128.615234375 731.631835938 106.8828125 712.374023438 87.6259765625 c 0
EndSplineSet
Validated: 33
Substitution2: "do-link-1" P.lin
Substitution2: "do-backlink-1" p
EndChar

StartChar: p
Encoding: 112 112 4
Width: 350
VWidth: 0
Flags: W
LayerCount: 2
Back
SplineSet
700 100 m 29
 500 300 l 4
 323.223304703 476.776695297 206.066017178 506.066017178 100 400 c 1036
EndSplineSet
Fore
SplineSet
712.374023438 87.6259765625 m 0
 693.1171875 68.3681640625 671.384765625 57.904296875 664.64453125 64.64453125 c 2
 464.64453125 264.64453125 l 2
 281.139648438 448.149414062 168.27734375 443.528320312 112.375 387.625976562 c 0
 93.1171875 368.368164062 71.384765625 357.904296875 64.64453125 364.64453125 c 0
 57.904296875 371.384765625 68.3681640625 393.1171875 87.6259765625 412.375 c 0
 243.85546875 568.604492188 365.307617188 505.403320312 535.35546875 335.35546875 c 2
 735.35546875 135.35546875 l 2
 742.095703125 128.615234375 731.631835938 106.8828125 712.374023438 87.6259765625 c 0
EndSplineSet
Validated: 33
Substitution2: "do-link-1" p.lin
Substitution2: "do-cap-1" P
EndChar

StartChar: k
Encoding: 107 107 6
Width: 350
VWidth: 0
Flags: W
LayerCount: 2
Back
SplineSet
100 400 m 1
 206.066017178 506.066017178 323.223304703 476.776695297 500 300 c 0
 676.776695297 123.223304703 809.933982822 93.933982822 916 200 c 1024
EndSplineSet
Fore
SplineSet
64.64453125 364.64453125 m 0
 57.904296875 371.384765625 68.3681640625 393.1171875 87.6259765625 412.375 c 0
 243.853515625 568.602539062 365.307617188 505.403320312 535.35546875 335.35546875 c 0
 718.73828125 151.97265625 848.290039062 157.0390625 903.625 212.374023438 c 0
 922.8828125 231.631835938 944.615234375 242.095703125 951.35546875 235.35546875 c 0
 958.095703125 228.615234375 947.631835938 206.8828125 928.374023438 187.625976562 c 0
 771.577148438 30.8291015625 634.814453125 94.474609375 464.64453125 264.64453125 c 0
 281.139648438 448.150390625 168.279296875 443.530273438 112.375 387.625976562 c 0
 93.1162109375 368.368164062 71.384765625 357.905273438 64.64453125 364.64453125 c 0
EndSplineSet
Validated: 33
Substitution2: "do-link-1" k.lin
Substitution2: "do-cap-1" K
EndChar

StartChar: k.lin
Encoding: 259 -1 7
Width: 675
VWidth: 0
Flags: W
LayerCount: 2
Back
SplineSet
100 400 m 1
 206.066017178 506.066017178 323.223304703 476.776695297 500 300 c 0
 676.776695297 123.223304703 809.933982822 93.933982822 916 200 c 1024
600 225 m 25
 775 400 l 1049
EndSplineSet
Fore
SplineSet
64.64453125 364.64453125 m 0
 57.904296875 371.384765625 68.3681640625 393.1171875 87.6259765625 412.375 c 0
 243.853515625 568.602539062 365.307617188 505.403320312 535.35546875 335.35546875 c 0
 563.102700479 307.608237021 589.617522948 284.175365536 614.829319098 264.578190731 c 1
 762.625976562 412.374023438 l 2
 781.8828125 431.631835938 803.615234375 442.095703125 810.35546875 435.35546875 c 0
 817.095703125 428.615234375 806.631835938 406.8828125 787.374023438 387.625976562 c 2
 643.368053249 243.620006374 l 1
 769.778237736 156.303854835 859.886393546 168.635416984 903.625 212.374023438 c 0
 922.8828125 231.631835938 944.615234375 242.095703125 951.35546875 235.35546875 c 0
 958.095703125 228.615234375 947.631835938 206.8828125 928.374023438 187.625976562 c 0
 771.577148438 30.8291015625 634.814453125 94.474609375 464.64453125 264.64453125 c 0
 281.139648438 448.150390625 168.279296875 443.530273438 112.375 387.625976562 c 0
 93.1162109375 368.368164062 71.384765625 357.905273438 64.64453125 364.64453125 c 0
EndSplineSet
Validated: 33
EndChar

StartChar: K
Encoding: 75 75 8
Width: 350
VWidth: 0
Flags: W
LayerCount: 2
Back
SplineSet
200 600 m 4
 500 300 l 5
 676.776695297 123.223304703 809.933982822 93.933982822 916 200 c 1029
EndSplineSet
Fore
SplineSet
187.625976562 612.374023438 m 0
 206.8828125 631.631835938 228.615234375 642.095703125 235.35546875 635.35546875 c 2
 535.35546875 335.35546875 l 2
 718.73828125 151.97265625 848.290039062 157.0390625 903.625 212.374023438 c 0
 922.8828125 231.631835938 944.615234375 242.095703125 951.35546875 235.35546875 c 0
 958.095703125 228.615234375 947.631835938 206.8828125 928.374023438 187.625976562 c 0
 771.577148438 30.8291015625 634.814453125 94.474609375 464.64453125 264.64453125 c 2
 164.64453125 564.64453125 l 2
 157.904296875 571.384765625 168.368164062 593.1171875 187.625976562 612.374023438 c 0
EndSplineSet
Validated: 33
Substitution2: "do-link-1" K.lin
Substitution2: "do-backlink-1" k
EndChar

StartChar: q
Encoding: 113 113 9
Width: 500
VWidth: 0
Flags: W
HStem: 330.542 74.917<168.459 273.542> 478.542 74.916<168.458 273.542>
VStem: 93.542 74.917<405.459 478.542> 273.542 74.917<405.459 478.542>
LayerCount: 2
Fore
SplineSet
168.458007812 478.541992188 m 5
 168.458984375 405.458984375 l 5
 273.541992188 405.458984375 l 5
 273.541992188 478.541992188 l 5
 168.458007812 478.541992188 l 5
160.282226562 553.458007812 m 6
 340.282226562 553.458007812 l 6
 345.590820312 553.458007812 348.458007812 550.069335938 348.458007812 545.282226562 c 6
 348.458984375 397.283203125 l 6
 348.458984375 383.85546875 329.526367188 358.142578125 308.061523438 342.416015625 c 4
 297.328125 334.551757812 286.553710938 330.541992188 281.717773438 330.541992188 c 6
 101.717773438 330.541992188 l 6
 96.41015625 330.541992188 93.5419921875 333.930664062 93.5419921875 338.717773438 c 6
 93.5419921875 486.717773438 l 6
 93.5419921875 500.14453125 112.473632812 525.857421875 133.938476562 541.584960938 c 4
 144.671875 549.448242188 155.447265625 553.458007812 160.282226562 553.458007812 c 6
EndSplineSet
Validated: 1
Substitution2: "do-cap-1" Q
EndChar

StartChar: j
Encoding: 106 106 10
Width: 350
VWidth: 0
Flags: HW
HStem: 364.645 120.711
VStem: 64.6445 120.711
LayerCount: 2
Back
SplineSet
400 200 m 5
 576.776695297 23.2233047034 599.933982822 -8.06601717798 706 98 c 1029
500 300 m 1029
100 400 m 20
 206.066017178 506.066017178 324.293940485 475.706059515 500 300 c 6
 600 200 l 5
 505 101 l 1053
500 300 m 1029
EndSplineSet
Fore
SplineSet
64.64453125 364.64453125 m 0
 57.904296875 371.384765625 68.3681640625 393.1171875 87.6259765625 412.375 c 0
 243.985351562 568.734375 366.401367188 504.309570312 535.35546875 335.35546875 c 2
 635.35546875 235.35546875 l 2
 642.151367188 228.559570312 630.68359375 206.662109375 614.432617188 189.7265625 c 2
 550.838407332 123.454701703 l 1
 630.888219194 53.139990282 649.739812984 66.4878598585 693.625976562 110.374023438 c 0
 712.8828125 129.631835938 734.615234375 140.095703125 741.35546875 133.35546875 c 0
 748.095703125 126.615234375 737.631835938 104.8828125 718.374023438 85.625 c 0
 576.989257812 -55.759765625 538.405273438 -9.166015625 399.854492188 129.392578125 c 0
 388.822265625 140.42578125 377.11328125 152.174804688 364.64453125 164.64453125 c 0
 357.904296875 171.384765625 368.368164062 193.1171875 387.625 212.374023438 c 0
 406.8828125 231.631835938 428.614257812 242.095703125 435.354492188 235.35546875 c 0
 447.833984375 222.875976562 459.543945312 211.125976562 470.56640625 200.102539062 c 0
 491.019234842 179.648264484 508.996857173 162.06412431 524.931091334 147.084094113 c 1
 552.977539062 176.311523438 l 1
 464.64453125 264.64453125 l 2
 282.186523438 447.102539062 168.146484375 443.3984375 112.375 387.625976562 c 0
 93.1162109375 368.368164062 71.384765625 357.905273438 64.64453125 364.64453125 c 0
EndSplineSet
Substitution2: "do-cap-1" J
EndChar

StartChar: Q
Encoding: 81 81 11
Width: 500
VWidth: 0
Flags: W
HStem: 330.542 74.917<168.459 273.542> 478.542 74.916<168.458 273.542>
VStem: 93.542 74.917<405.459 478.542> 273.542 74.917<405.459 478.542>
LayerCount: 2
Back
SplineSet
150 450 m 1
 150 450 117.67766953 417.67766953 100 400 c 1024
EndSplineSet
Fore
SplineSet
168.458007812 478.541992188 m 1
 168.458984375 405.458984375 l 1
 273.541992188 405.458984375 l 1
 273.541992188 478.541992188 l 1
 168.458007812 478.541992188 l 1
160.282226562 553.458007812 m 2
 340.282226562 553.458007812 l 2
 345.590820312 553.458007812 348.458007812 550.069335938 348.458007812 545.282226562 c 2
 348.458984375 397.283203125 l 2
 348.458984375 383.85546875 329.526367188 358.142578125 308.061523438 342.416015625 c 0
 297.328125 334.551757812 286.553710938 330.541992188 281.717773438 330.541992188 c 2
 101.717773438 330.541992188 l 2
 96.41015625 330.541992188 93.5419921875 333.930664062 93.5419921875 338.717773438 c 2
 93.5419921875 486.717773438 l 2
 93.5419921875 500.14453125 112.473632812 525.857421875 133.938476562 541.584960938 c 0
 144.671875 549.448242188 155.447265625 553.458007812 160.282226562 553.458007812 c 2
EndSplineSet
Validated: 1
EndChar

StartChar: J
Encoding: 74 74 12
Width: 350
VWidth: 0
Flags: HW
HStem: 364.645 120.711
VStem: 64.6445 120.711
LayerCount: 2
Back
SplineSet
400 200 m 5
 576.776695297 23.2233047034 599.933982822 -8.06601717798 706 98 c 1029
500 300 m 1029
200 600 m 20
 200 600 324.293940485 475.706059515 500 300 c 6
 600 200 l 5
 505 101 l 1053
500 300 m 1029
EndSplineSet
Fore
SplineSet
187.625976562 612.374023438 m 0
 206.8828125 631.631835938 228.615234375 642.095703125 235.35546875 635.35546875 c 2
 535.35546875 335.35546875 l 1
 635.35546875 235.35546875 l 2
 642.151367188 228.559570312 630.68359375 206.662109375 614.432617188 189.7265625 c 2
 550.838407332 123.454701703 l 1
 630.888219194 53.139990282 649.739812984 66.4878598585 693.625976562 110.374023438 c 0
 712.8828125 129.631835938 734.615234375 140.095703125 741.35546875 133.35546875 c 0
 748.095703125 126.615234375 737.631835938 104.8828125 718.374023438 85.625 c 0
 576.989257812 -55.759765625 538.405273438 -9.166015625 399.854492188 129.392578125 c 0
 388.822265625 140.42578125 377.11328125 152.174804688 364.64453125 164.64453125 c 0
 357.904296875 171.384765625 368.368164062 193.1171875 387.625 212.374023438 c 0
 406.8828125 231.631835938 428.614257812 242.095703125 435.354492188 235.35546875 c 0
 447.833984375 222.875976562 459.543945312 211.125976562 470.56640625 200.102539062 c 0
 491.019234842 179.648264484 508.996857173 162.06412431 524.931091334 147.084094113 c 1
 552.977539062 176.311523438 l 1
 464.64453125 264.64453125 l 1
 164.64453125 564.64453125 l 2
 157.904296875 571.384765625 168.368164062 593.1171875 187.625976562 612.374023438 c 0
EndSplineSet
Substitution2: "do-backlink-1" j
EndChar

StartChar: Q_J
Encoding: 260 -1 13
Width: 800
VWidth: 0
Flags: W
LayerCount: 2
Back
SplineSet
580 220 m 29
 200 600 l 1029
475 275 m 6
 296.168427899 96.1684278987 517 -41 700 150 c 1028
EndSplineSet
Fore
SplineSet
592.374023438 207.625976562 m 0
 573.1171875 188.368164062 551.384765625 177.904296875 544.64453125 184.64453125 c 2
 477.432188225 251.856874275 l 1
 440.70704354 208.10089005 432.659518217 147.362367308 479.561523438 114.234375 c 0
 534.344726562 75.5380859375 627.93359375 100.119140625 685.4921875 160.194335938 c 0
 704.302734375 179.827148438 726.6328125 191.59765625 734.53515625 186.044921875 c 0
 742.4375 180.491210938 733.318359375 159.438476562 714.5078125 139.805664062 c 0
 581.356445312 0.8330078125 463.69140625 4.5693359375 410.466796875 42.1630859375 c 0
 363.301621699 75.477354799 337.841322339 155.73872969 452.416316485 276.872746015 c 1
 164.64453125 564.64453125 l 2
 157.904296875 571.384765625 168.368164062 593.116210938 187.625976562 612.374023438 c 0
 206.883789062 631.6328125 228.615234375 642.095703125 235.35546875 635.35546875 c 2
 615.35546875 255.35546875 l 2
 622.095703125 248.615234375 611.631835938 226.8828125 592.374023438 207.625976562 c 0
EndSplineSet
Validated: 33
Substitution2: "do-linkfrom-1" Q_J.lin
Substitution2: "do-backlink-1" q_j
Substitution2: "do-link-1" Q_J.lin
LCarets2: 1 400
Ligature2: "ligatures-1" Q J
EndChar

StartChar: Q_J.lin
Encoding: 261 -1 14
Width: 500
VWidth: 0
Flags: W
LayerCount: 2
Back
SplineSet
580 220 m 29
 200 600 l 1029
600 400 m 5
 600 400 475 275 475 275 c 6
 296.168427899 96.1684278987 517 -41 700 150 c 1028
EndSplineSet
Fore
SplineSet
635.35546875 435.35546875 m 0
 642.094726562 428.615234375 631.631835938 406.883789062 612.374023438 387.625976562 c 2
 547.729492188 322.981445312 l 1
 615.35546875 255.35546875 l 2
 622.095703125 248.615234375 611.631835938 226.8828125 592.374023438 207.625976562 c 0
 573.1171875 188.368164062 551.384765625 177.904296875 544.64453125 184.64453125 c 2
 477.432188225 251.856874275 l 1
 440.70704354 208.10089005 432.659518217 147.362367308 479.561523438 114.234375 c 0
 534.344726562 75.5380859375 627.93359375 100.119140625 685.4921875 160.194335938 c 0
 704.302734375 179.827148438 726.6328125 191.59765625 734.53515625 186.044921875 c 0
 742.4375 180.491210938 733.318359375 159.438476562 714.5078125 139.805664062 c 0
 581.356445312 0.8330078125 463.69140625 4.5693359375 410.466796875 42.1630859375 c 0
 363.301621699 75.477354799 337.841322339 155.73872969 452.416316485 276.872746015 c 1
 164.64453125 564.64453125 l 2
 157.904296875 571.384765625 168.368164062 593.116210938 187.625976562 612.374023438 c 0
 206.883789062 631.6328125 228.615234375 642.095703125 235.35546875 635.35546875 c 2
 522.981209548 347.729727952 l 1
 587.625 412.374023438 l 2
 606.8828125 431.631835938 628.615234375 442.095703125 635.35546875 435.35546875 c 0
EndSplineSet
Validated: 33
LCarets2: 1 400
Ligature2: "ligatures-1" Q j
EndChar

StartChar: w
Encoding: 119 119 15
Width: 0
VWidth: 0
Flags: W
HStem: 264.645 270.711
VStem: -35.3555 270.711
LayerCount: 2
Back
SplineSet
0 300 m 29
 100 400 l 1053
0 500 m 29
 200 300 l 1053
EndSplineSet
Fore
SplineSet
-12.3740234375 512.375 m 0
 6.8828125 531.631835938 28.615234375 542.095703125 35.35546875 535.35546875 c 2
 135.35546875 435.35546875 l 1
 235.35546875 335.35546875 l 2
 242.095703125 328.615234375 231.6328125 306.883789062 212.375 287.625976562 c 0
 193.1171875 268.368164062 171.384765625 257.904296875 164.64453125 264.64453125 c 2
 77.0188703331 352.270192167 l 1
 12.3740234375 287.625976562 l 2
 -6.8837890625 268.3671875 -28.615234375 257.904296875 -35.35546875 264.64453125 c 0
 -42.095703125 271.384765625 -31.6328125 293.116210938 -12.375 312.374023438 c 2
 52.2700195312 377.019042969 l 1
 -35.35546875 464.64453125 l 2
 -42.095703125 471.384765625 -31.6318359375 493.1171875 -12.3740234375 512.375 c 0
EndSplineSet
Validated: 33
Substitution2: "do-link-1" w.lin
Substitution2: "do-cap-1" W
EndChar

StartChar: q_j
Encoding: 262 -1 16
Width: 500
VWidth: 0
Flags: W
LayerCount: 2
Back
SplineSet
580 220 m 5
 500 300 l 6
 323.223304703 476.776695297 206.066017178 506.066017178 100 400 c 1036
475 275 m 4
 298.223304703 98.2233047034 517 -41 700 150 c 1028
EndSplineSet
Fore
SplineSet
592.374023438 207.625976562 m 0
 573.1171875 188.368164062 551.384765625 177.904296875 544.64453125 184.64453125 c 2
 477.456637496 251.832425004 l 1
 441.667708147 208.790814651 433.720473989 147.991687189 480.748046875 114.762695312 c 0
 535.436523438 76.1201171875 628.17578125 100.373046875 685.4921875 160.194335938 c 0
 704.302734375 179.827148438 726.6328125 191.59765625 734.53515625 186.044921875 c 0
 742.4375 180.491210938 733.318359375 159.438476562 714.5078125 139.805664062 c 0
 581.567382812 1.052734375 464.71484375 5.1982421875 411.651367188 42.693359375 c 0
 364.483810537 76.0214377609 338.422424187 156.247861258 452.331582889 276.779482686 c 1
 276.075861325 447.914788273 167.01607918 442.267055743 112.375 387.625976562 c 0
 93.1171875 368.368164062 71.384765625 357.904296875 64.64453125 364.64453125 c 0
 57.904296875 371.384765625 68.3681640625 393.1171875 87.6259765625 412.375 c 0
 243.85546875 568.604492188 365.307617188 505.403320312 535.35546875 335.35546875 c 2
 615.35546875 255.35546875 l 2
 622.095703125 248.615234375 611.631835938 226.8828125 592.374023438 207.625976562 c 0
EndSplineSet
Validated: 33
Substitution2: "do-linkfrom-1" q_j.lin
LCarets2: 1 400
Substitution2: "do-link-1" q_j.lin
Ligature2: "ligatures-1" q j
EndChar

StartChar: q_j.lin
Encoding: 263 -1 17
Width: 500
VWidth: 0
Flags: W
LayerCount: 2
Back
SplineSet
580 220 m 21
 500 300 l 6
 323.223304703 476.776695297 206.066017178 506.066017178 100 400 c 1036
600 400 m 5
 600 400 475 275 475 275 c 6
 296.168427899 96.1684278987 517 -41 700 150 c 1028
EndSplineSet
Fore
SplineSet
635.35546875 435.35546875 m 0
 642.094726562 428.615234375 631.631835938 406.883789062 612.374023438 387.625976562 c 2
 547.729492188 322.981445312 l 1
 615.35546875 255.35546875 l 2
 622.095703125 248.615234375 611.631835938 226.8828125 592.374023438 207.625976562 c 0
 573.1171875 188.368164062 551.384765625 177.904296875 544.64453125 184.64453125 c 2
 477.432188225 251.856874275 l 1
 440.70704354 208.10089005 432.659518217 147.362367308 479.561523438 114.234375 c 0
 534.344726562 75.5380859375 627.93359375 100.119140625 685.4921875 160.194335938 c 0
 704.302734375 179.827148438 726.6328125 191.59765625 734.53515625 186.044921875 c 0
 742.4375 180.491210938 733.318359375 159.438476562 714.5078125 139.805664062 c 0
 581.356445312 0.8330078125 463.69140625 4.5693359375 410.466796875 42.1630859375 c 0
 363.313499835 75.468964892 337.854147623 155.698306419 452.329779 276.781234168 c 1
 276.07511721 447.914749738 167.015892772 442.266869335 112.375 387.625976562 c 0
 93.1171875 368.368164062 71.384765625 357.904296875 64.64453125 364.64453125 c 0
 57.904296875 371.384765625 68.3681640625 393.1171875 87.6259765625 412.375 c 0
 240.022860878 564.771884316 359.327781278 508.372154676 522.927178804 347.675696785 c 1
 587.625 412.374023438 l 2
 606.8828125 431.631835938 628.615234375 442.095703125 635.35546875 435.35546875 c 0
EndSplineSet
Validated: 33
LCarets2: 1 400
Ligature2: "ligatures-1" q J
EndChar

StartChar: u
Encoding: 117 117 18
Width: 450
VWidth: 0
Flags: W
LayerCount: 2
Back
SplineSet
100 400 m 25
 400 700 l 1049
400 700 m 17
 364.64453125 664.64453125 387.868164062 487.868164062 600 700 c 1024
EndSplineSet
Fore
SplineSet
64.64453125 364.64453125 m 0
 57.904296875 371.384765625 68.3681640625 393.1171875 87.6259765625 412.375 c 2
 387.625976562 712.374023438 l 2
 406.883789062 731.6328125 428.615234375 742.095703125 435.35546875 735.35546875 c 0
 439.243006493 731.467931007 437.407445506 722.593107592 431.46241062 712.082477539 c 0
 429.886597188 709.253892682 428.034168112 706.345156134 425.955078125 703.446289062 c 0
 422.130859375 689.669921875 423.749023438 661.072265625 438.571289062 646.107421875 c 0
 461.393554688 623.064453125 501.08203125 625.831054688 587.625976562 712.375 c 0
 606.883789062 731.631835938 628.615234375 742.095703125 635.35546875 735.35546875 c 0
 642.095703125 728.615234375 631.631835938 706.8828125 612.375 687.625976562 c 0
 476.060546875 551.311523438 397.138671875 545.8359375 367.819335938 575.438476562 c 0
 358.562071523 584.785252333 347.865519083 600.241977042 345.448237358 620.699972624 c 1
 112.375 387.625976562 l 2
 93.1162109375 368.368164062 71.384765625 357.905273438 64.64453125 364.64453125 c 0
EndSplineSet
Validated: 33
EndChar

StartChar: U
Encoding: 85 85 19
Width: 450
VWidth: 0
Flags: HW
LayerCount: 2
Back
SplineSet
150 750 m 25
 200 700 l 1049
100 400 m 25
 400 700 l 1049
400 700 m 17
 364.64453125 664.64453125 387.868164062 487.868164062 600 700 c 1024
EndSplineSet
Fore
SplineSet
64.64453125 364.64453125 m 0
 57.904296875 371.384765625 68.3681640625 393.1171875 87.6259765625 412.375 c 2
 387.625976562 712.374023438 l 2
 406.883789062 731.6328125 428.615234375 742.095703125 435.35546875 735.35546875 c 0
 439.243006493 731.467931007 437.407445506 722.593107592 431.46241062 712.082477539 c 0
 429.886597188 709.253892682 428.034168112 706.345156134 425.955078125 703.446289062 c 0
 422.130859375 689.669921875 423.749023438 661.072265625 438.571289062 646.107421875 c 0
 461.393554688 623.064453125 501.08203125 625.831054688 587.625976562 712.375 c 0
 606.883789062 731.631835938 628.615234375 742.095703125 635.35546875 735.35546875 c 0
 642.095703125 728.615234375 631.631835938 706.8828125 612.375 687.625976562 c 0
 476.060546875 551.311523438 397.138671875 545.8359375 367.819335938 575.438476562 c 0
 358.562071523 584.785252333 347.865519083 600.241977042 345.448237358 620.699972624 c 1
 112.375 387.625976562 l 2
 93.1162109375 368.368164062 71.384765625 357.905273438 64.64453125 364.64453125 c 0
121 762.375 m 4
 140.2578125 781.631835938 161.989257812 792.095703125 168.729492188 785.35546875 c 6
 218.729492188 735.35546875 l 6
 225.469726562 728.615234375 215.006835938 706.883789062 195.749023438 687.625976562 c 4
 176.491210938 668.368164062 154.758789062 657.905273438 148.018554688 664.64453125 c 6
 98.01953125 714.64453125 l 6
 91.2783203125 721.384765625 101.743164062 743.1171875 121 762.375 c 4
EndSplineSet
EndChar

StartChar: N.lin
Encoding: 264 -1 20
Width: 700
VWidth: 0
Flags: W
LayerCount: 2
Back
SplineSet
1200 -100 m 0
 1156.69824219 -125 1050 -216 962 0 c 0
 825.336914062 335.4453125 703.86328125 144.2265625 728 77 c 1
 692.64453125 112.35546875 658.579101562 258.579101562 800 400 c 1025
200 600 m 1
 800 0 l 1049
EndSplineSet
Fore
SplineSet
187.625976562 612.374023438 m 0
 206.8828125 631.631835938 228.615234375 642.095703125 235.35546875 635.35546875 c 2
 663.656180948 207.054756552 l 1
 676.503602032 266.047003194 711.740722064 336.489170255 787.625976562 412.374023438 c 0
 806.8828125 431.631835938 828.615234375 442.095703125 835.35546875 435.35546875 c 0
 842.095703125 428.615234375 831.631835938 406.8828125 812.374023438 387.625976562 c 0
 749.983398438 325.234375 726.668945312 242.185546875 736.8046875 176.471679688 c 1
 739.71875 179.64453125 742.8515625 182.899414062 746.1015625 186.065429688 c 0
 800.700195312 239.247070312 838.109375 235.55078125 867.603515625 221.189453125 c 0
 907.94140625 201.548828125 952.380859375 147.064453125 998.78125 33.1728515625 c 0
 1085.83300781 -180.497070312 1174.09277344 -90.3759765625 1211.66601562 -68.6826171875 c 0
 1231.0546875 -57.48828125 1241.94921875 -62.390625 1235.59472656 -79.44921875 c 0
 1229.24121094 -96.5068359375 1207.72265625 -120.123046875 1188.33398438 -131.317382812 c 0
 1139.30371094 -159.625 1014.16699219 -251.501953125 925.217773438 -33.173828125 c 0
 862.26171875 121.354492188 799.555664062 158.647460938 768.008789062 154.529296875 c 1
 764.83984375 146.532226562 762.443359375 136.069335938 762.379882812 126.435546875 c 0
 762.340820312 120.400390625 763.1640625 114.698242188 764.8984375 109.8671875 c 0
 765.36587045 108.565343031 765.525923044 107.03022035 765.405723331 105.305214169 c 2
 835.35546875 35.35546875 l 2
 842.095703125 28.615234375 831.6328125 6.8837890625 812.374023438 -12.3740234375 c 0
 793.116210938 -31.6318359375 771.384765625 -42.095703125 764.64453125 -35.35546875 c 2
 164.64453125 564.64453125 l 2
 157.904296875 571.384765625 168.368164062 593.1171875 187.625976562 612.374023438 c 0
EndSplineSet
Validated: 33
EndChar

StartChar: n
Encoding: 110 110 21
Width: 700
VWidth: 0
Flags: HW
LayerCount: 2
Back
SplineSet
1200 -100 m 0
 1156.69824219 -125 1050 -216 962 0 c 0
 825.336914062 335.4453125 703.86328125 144.2265625 728 77 c 1025
100 400 m 16
 206.06640625 506.06640625 325.372070312 475.799804688 500 300 c 2
 800 0 l 1049
EndSplineSet
Fore
SplineSet
64.64453125 364.64453125 m 0
 57.904296875 371.384765625 68.3681640625 393.1171875 87.6259765625 412.375 c 0
 244.03125 568.780273438 367.45703125 504.379882812 535.362304688 335.348632812 c 2
 717.203642387 153.507295113 l 1
 726.57008944 166.377315799 738.571396015 179.716768193 753.810546875 193.234375 c 0
 850.361328125 278.876953125 920.073242188 226.366210938 998.78125 33.1728515625 c 0
 1085.83300781 -180.497070312 1174.09277344 -90.3759765625 1211.66601562 -68.6826171875 c 0
 1231.0546875 -57.48828125 1241.94921875 -62.390625 1235.59472656 -79.44921875 c 0
 1229.24121094 -96.5068359375 1207.72265625 -120.123046875 1188.33398438 -131.317382812 c 0
 1139.30371094 -159.625 1014.16699219 -251.501953125 925.217773438 -33.173828125 c 0
 862.26171875 121.354492188 799.555664062 158.647460938 768.008789062 154.529296875 c 1
 762.758789062 141.28125 760.3671875 122.48828125 764.8984375 109.8671875 c 0
 765.364987103 108.567772945 765.525166257 107.032821257 765.405057959 105.305879541 c 2
 835.35546875 35.35546875 l 2
 842.095703125 28.615234375 831.6328125 6.8837890625 812.374023438 -12.3740234375 c 0
 793.116210938 -31.6318359375 771.384765625 -42.095703125 764.64453125 -35.35546875 c 2
 464.64453125 264.64453125 l 2
 283.28125 447.224609375 168.100585938 443.3515625 112.375 387.625976562 c 0
 93.1162109375 368.368164062 71.384765625 357.905273438 64.64453125 364.64453125 c 0
EndSplineSet
Substitution2: "do-cap-1" N
Substitution2: "do-linkfrom-1" n.lin
Substitution2: "do-link-1" n.lin
EndChar

StartChar: g
Encoding: 103 103 22
Width: 350
VWidth: 0
Flags: HW
HStem: 364.645 120.711
VStem: 64.6445 120.711
LayerCount: 2
Back
SplineSet
916 200 m 5
 845.289321881 129.289321881 727.289321881 -13.2893218813 798 -84 c 1037
100 400 m 5
 206.066017178 506.066017178 323.223304703 476.776695297 500 300 c 4
 676.776695297 123.223304703 809.933982822 93.933982822 916 200 c 1029
EndSplineSet
Fore
SplineSet
64.64453125 364.64453125 m 0
 57.904296875 371.384765625 68.3681640625 393.1171875 87.6259765625 412.375 c 0
 243.853515625 568.602539062 365.307617188 505.403320312 535.35546875 335.35546875 c 0
 718.73828125 151.97265625 848.290039062 157.0390625 903.625 212.374023438 c 0
 918.91007784 227.659101278 935.754090852 237.40423783 945.423397312 237.40423783 c 0
 947.936540477 237.40423783 949.965011619 236.745925881 951.35546875 235.35546875 c 0
 958.095703125 228.615234375 947.631835938 206.8828125 928.374023438 187.625976562 c 0
 869.544921875 128.796875 770.5 14.2099609375 833.35546875 -48.64453125 c 0
 840.095703125 -55.384765625 829.631835938 -77.1162109375 810.374023438 -96.375 c 0
 791.116210938 -115.6328125 769.384765625 -126.095703125 762.64453125 -119.35546875 c 0
 709.625708127 -66.3366456268 754.753869246 28.5805608979 815.090174898 110.084784161 c 1
 702.004735008 68.7524925955 592.798030795 136.491031705 464.64453125 264.64453125 c 0
 281.139648438 448.150390625 168.279296875 443.530273438 112.375 387.625976562 c 0
 93.1162109375 368.368164062 71.384765625 357.905273438 64.64453125 364.64453125 c 0
EndSplineSet
Substitution2: "do-link-1" g.lin
Substitution2: "do-cap-1" G
EndChar

StartChar: N
Encoding: 78 78 23
Width: 700
VWidth: 0
Flags: W
LayerCount: 2
Back
SplineSet
1200 -100 m 0
 1156.69824219 -125 1050 -216 962 0 c 0
 825.336914062 335.4453125 703.86328125 144.2265625 728 77 c 1025
200 600 m 1
 800 0 l 1049
EndSplineSet
Fore
SplineSet
187.625976562 612.374023438 m 0
 206.8828125 631.631835938 228.615234375 642.095703125 235.35546875 635.35546875 c 2
 717.203642387 153.507295113 l 1
 726.57008944 166.377315799 738.571396015 179.716768193 753.810546875 193.234375 c 0
 850.361328125 278.876953125 920.073242188 226.366210938 998.78125 33.1728515625 c 0
 1085.83300781 -180.497070312 1174.09277344 -90.3759765625 1211.66601562 -68.6826171875 c 0
 1231.0546875 -57.48828125 1241.94921875 -62.390625 1235.59472656 -79.44921875 c 0
 1229.24121094 -96.5068359375 1207.72265625 -120.123046875 1188.33398438 -131.317382812 c 0
 1139.30371094 -159.625 1014.16699219 -251.501953125 925.217773438 -33.173828125 c 0
 862.26171875 121.354492188 799.555664062 158.647460938 768.008789062 154.529296875 c 1
 762.758789062 141.28125 760.3671875 122.48828125 764.8984375 109.8671875 c 0
 765.364987103 108.567772945 765.525166257 107.032821257 765.405057959 105.305879541 c 2
 835.35546875 35.35546875 l 2
 842.095703125 28.615234375 831.6328125 6.8837890625 812.374023438 -12.3740234375 c 0
 793.116210938 -31.6318359375 771.384765625 -42.095703125 764.64453125 -35.35546875 c 2
 164.64453125 564.64453125 l 2
 157.904296875 571.384765625 168.368164062 593.1171875 187.625976562 612.374023438 c 0
EndSplineSet
Validated: 33
Substitution2: "do-backlink-1" n
Substitution2: "do-linkfrom-1" N.lin
Substitution2: "do-link-1" N.lin
EndChar

StartChar: n.lin
Encoding: 265 -1 24
Width: 700
VWidth: 0
Flags: W
LayerCount: 2
Fore
SplineSet
64.64453125 364.64453125 m 0
 57.904296875 371.384765625 68.3681640625 393.1171875 87.6259765625 412.375 c 0
 244.03125 568.780273438 367.45703125 504.379882812 535.362304688 335.348632812 c 2
 663.656180948 207.054756552 l 1
 676.503602032 266.047003194 711.740722064 336.489170255 787.625976562 412.374023438 c 0
 806.8828125 431.631835938 828.615234375 442.095703125 835.35546875 435.35546875 c 0
 842.095703125 428.615234375 831.631835938 406.8828125 812.374023438 387.625976562 c 0
 749.983398438 325.234375 726.668945312 242.185546875 736.8046875 176.471679688 c 1
 739.71875 179.64453125 742.8515625 182.899414062 746.1015625 186.065429688 c 0
 800.700195312 239.247070312 838.109375 235.55078125 867.603515625 221.189453125 c 0
 907.94140625 201.548828125 952.380859375 147.064453125 998.78125 33.1728515625 c 0
 1085.83300781 -180.497070312 1174.09277344 -90.3759765625 1211.66601562 -68.6826171875 c 0
 1231.0546875 -57.48828125 1241.94921875 -62.390625 1235.59472656 -79.44921875 c 0
 1229.24121094 -96.5068359375 1207.72265625 -120.123046875 1188.33398438 -131.317382812 c 0
 1139.30371094 -159.625 1014.16699219 -251.501953125 925.217773438 -33.173828125 c 0
 862.26171875 121.354492188 799.555664062 158.647460938 768.008789062 154.529296875 c 1
 764.83984375 146.532226562 762.443359375 136.069335938 762.379882812 126.435546875 c 0
 762.340820312 120.400390625 763.1640625 114.698242188 764.8984375 109.8671875 c 0
 765.36587045 108.565343031 765.525923044 107.03022035 765.405723331 105.305214169 c 2
 835.35546875 35.35546875 l 2
 842.095703125 28.615234375 831.6328125 6.8837890625 812.374023438 -12.3740234375 c 0
 793.116210938 -31.6318359375 771.384765625 -42.095703125 764.64453125 -35.35546875 c 2
 464.64453125 264.64453125 l 2
 283.28125 447.224609375 168.100585938 443.3515625 112.375 387.625976562 c 0
 93.1162109375 368.368164062 71.384765625 357.905273438 64.64453125 364.64453125 c 0
EndSplineSet
Validated: 33
EndChar

StartChar: Q_N
Encoding: 266 -1 25
Width: 1000
VWidth: 0
Flags: W
LayerCount: 2
Back
SplineSet
728 77 m 1
 703.86328125 144.2265625 825.337069164 335.44537569 962 0 c 0
 1050 -216 1195 -194 1307 -70 c 0
 1398.24760232 31.0241311353 1201.49775104 175.285856093 962 0 c 1025
200 600 m 1
 800 0 l 1049
EndSplineSet
Fore
SplineSet
187.625976562 612.374023438 m 0
 206.8828125 631.631835938 228.615234375 642.095703125 235.35546875 635.35546875 c 2
 717.25909139 153.45184611 l 1
 726.216663979 165.751435979 737.573826578 178.504884051 751.8515625 191.475585938 c 0
 847.926757812 278.754882812 916.635742188 227.7421875 993.678710938 45.474609375 c 1
 1222.18652344 194.4140625 1393.07421875 97.962890625 1364.03808594 -10.306640625 c 0
 1360.6328125 -23.0029296875 1353.96582031 -38.564453125 1340.32910156 -57.447265625 c 0
 1335.67480469 -63.892578125 1330.25976562 -70.595703125 1324.32910156 -77.1630859375 c 0
 1227.22460938 -184.670898438 1127.63378906 -220.229492188 1053.95117188 -189.6015625 c 0
 1006.16113281 -169.737304688 963.265625 -122.653320312 928.673828125 -41.466796875 c 0
 927.51171875 -38.7412109375 926.360351562 -35.9765625 925.217773438 -33.173828125 c 0
 862.360351562 121.11328125 799.966796875 158.701171875 768.008789062 154.529296875 c 1
 762.860351562 141.538085938 760.359375 122.509765625 764.8984375 109.8671875 c 0
 765.364983331 108.567783449 765.525163667 107.032828856 765.405060871 105.305876629 c 2
 835.35546875 35.35546875 l 2
 842.095703125 28.615234375 831.6328125 6.8837890625 812.374023438 -12.3740234375 c 0
 793.116210938 -31.6318359375 771.384765625 -42.095703125 764.64453125 -35.35546875 c 2
 164.64453125 564.64453125 l 2
 157.904296875 571.384765625 168.368164062 593.1171875 187.625976562 612.374023438 c 0
1010.42675781 6.6787109375 m 1
 1040.83789062 -57.318359375 1076.91894531 -95.5693359375 1114.22558594 -113.328125 c 0
 1186.14160156 -147.563476562 1249.20605469 -107.010742188 1288.39355469 -64.2431640625 c 0
 1288.61523438 -63.814453125 1288.79980469 -63.43359375 1289.05761719 -62.83984375 c 0
 1314.62109375 -3.9814453125 1183.93652344 98.2275390625 1010.42675781 6.6787109375 c 1
EndSplineSet
Validated: 33
LCarets2: 1 700
Substitution2: "do-linkfrom-1" Q_N.lin
Substitution2: "do-link-1" Q_N.lin
Ligature2: "ligatures-1" Q N
Substitution2: "do-backlink-1" q_n
EndChar

StartChar: Q_N.lin
Encoding: 267 -1 26
Width: 1000
VWidth: 0
Flags: W
LayerCount: 2
Fore
SplineSet
187.625976562 612.374023438 m 0
 206.8828125 631.631835938 228.615234375 642.095703125 235.35546875 635.35546875 c 2
 717.377738661 153.333198839 l 1
 725.418049022 164.373930721 735.374408292 175.819662643 747.61328125 187.524414062 c 0
 828.96484375 265.325195312 881.764648438 234.836914062 937.012695312 153.610351562 c 1
 955.013671875 224.841796875 993.340820312 318.08984375 1087.62597656 412.374023438 c 0
 1106.8828125 431.631835938 1128.61523438 442.095703125 1135.35546875 435.35546875 c 0
 1142.09570312 428.615234375 1131.63183594 406.8828125 1112.37402344 387.625976562 c 0
 1009.2265625 284.477539062 992.375 126.42578125 996.655273438 57.19921875 c 0
 996.868164062 53.7529296875 997.09375 50.791015625 997.349609375 47.8505859375 c 1
 1223.84667969 193.079101562 1394.96777344 97.708984375 1363.57324219 -11.982421875 c 0
 1360.0390625 -24.330078125 1353.37597656 -39.380859375 1340.32910156 -57.447265625 c 0
 1335.67480469 -63.892578125 1330.25976562 -70.595703125 1324.32910156 -77.1630859375 c 0
 1227.22460938 -184.670898438 1127.63378906 -220.229492188 1053.95117188 -189.6015625 c 0
 1004.56054688 -169.072265625 960.375976562 -119.470703125 925.217773438 -33.173828125 c 0
 917.108398438 -13.2685546875 909.061523438 4.7470703125 901.109375 21.0107421875 c 0
 847.430664062 130.786132812 795.387695312 158.103515625 768.008789062 154.529296875 c 1
 762.860351562 141.538085938 760.359375 122.509765625 764.8984375 109.8671875 c 0
 765.364983331 108.567783449 765.525163667 107.032828856 765.405060871 105.305876629 c 2
 835.35546875 35.35546875 l 2
 842.095703125 28.615234375 831.6328125 6.8837890625 812.374023438 -12.3740234375 c 0
 793.116210938 -31.6318359375 771.384765625 -42.095703125 764.64453125 -35.35546875 c 2
 164.64453125 564.64453125 l 2
 157.904296875 571.384765625 168.368164062 593.1171875 187.625976562 612.374023438 c 0
1010.42675781 6.6787109375 m 1
 1040.83789062 -57.318359375 1076.91894531 -95.5693359375 1114.22558594 -113.328125 c 0
 1186.14160156 -147.563476562 1249.20605469 -107.010742188 1288.39355469 -64.2431640625 c 0
 1288.61523438 -63.814453125 1288.79980469 -63.43359375 1289.05761719 -62.83984375 c 0
 1314.62109375 -3.9814453125 1183.93652344 98.2275390625 1010.42675781 6.6787109375 c 1
EndSplineSet
Validated: 33
LCarets2: 1 700
Ligature2: "ligatures-1" Q n
EndChar

StartChar: q_n
Encoding: 268 -1 27
Width: 1000
VWidth: 0
Flags: W
LayerCount: 2
Back
SplineSet
728 77 m 5
 703.86328125 144.2265625 825.336914062 335.4453125 962 0 c 4
 1050 -216 1195 -194 1307 -70 c 4
 1398.24804688 31.0244140625 1201.49804688 175.286132812 962 0 c 1029
800 0 m 29
 500 300 l 5
 323.223632812 476.776367188 206.06640625 506.06640625 100 400 c 1029
EndSplineSet
Fore
SplineSet
812.374023438 -12.3740234375 m 0
 793.1171875 -31.6318359375 771.384765625 -42.095703125 764.64453125 -35.35546875 c 2
 464.64453125 264.64453125 l 2
 281.139648438 448.149414062 168.27734375 443.528320312 112.375 387.625976562 c 0
 93.1171875 368.368164062 71.384765625 357.904296875 64.64453125 364.64453125 c 0
 57.904296875 371.384765625 68.3681640625 393.1171875 87.6259765625 412.375 c 0
 243.85546875 568.604492188 365.307617188 505.403320312 535.35546875 335.35546875 c 2
 717.25909139 153.45184611 l 1
 726.216663979 165.751435979 737.573826578 178.504884051 751.8515625 191.475585938 c 0
 847.926757812 278.754882812 916.635742188 227.7421875 993.678710938 45.474609375 c 1
 1222.18652344 194.4140625 1393.07421875 97.9638671875 1364.03808594 -10.306640625 c 0
 1360.6328125 -23.0029296875 1353.96582031 -38.564453125 1340.32910156 -57.447265625 c 0
 1335.67480469 -63.892578125 1330.25976562 -70.595703125 1324.32910156 -77.1630859375 c 0
 1227.22460938 -184.670898438 1127.63378906 -220.229492188 1053.95117188 -189.6015625 c 0
 1006.16113281 -169.737304688 963.265625 -122.653320312 928.673828125 -41.466796875 c 0
 927.51171875 -38.7412109375 926.360351562 -35.9765625 925.217773438 -33.173828125 c 0
 862.360351562 121.11328125 799.966796875 158.701171875 768.008789062 154.529296875 c 1
 762.860351562 141.538085938 760.359375 122.509765625 764.8984375 109.8671875 c 0
 765.364983331 108.567783449 765.525163667 107.032828856 765.405060871 105.305876629 c 2
 835.35546875 35.35546875 l 2
 842.095703125 28.615234375 831.631835938 6.8828125 812.374023438 -12.3740234375 c 0
1010.42675781 6.6787109375 m 1
 1040.83789062 -57.318359375 1076.91894531 -95.5693359375 1114.22558594 -113.328125 c 0
 1186.14160156 -147.563476562 1249.20605469 -107.010742188 1288.39355469 -64.2431640625 c 0
 1288.61523438 -63.8134765625 1288.79980469 -63.4326171875 1289.05761719 -62.83984375 c 0
 1314.62109375 -3.98046875 1183.93652344 98.2275390625 1010.42675781 6.6787109375 c 1
EndSplineSet
Validated: 33
LCarets2: 1 700
Substitution2: "do-linkfrom-1" q_n.lin
Substitution2: "do-link-1" q_n.lin
Ligature2: "ligatures-1" q n
EndChar

StartChar: q_n.lin
Encoding: 269 -1 28
Width: 1000
VWidth: 0
Flags: W
LayerCount: 2
Back
SplineSet
728 77 m 5
 703.86328125 144.2265625 825.337069164 335.44537569 962 0 c 4
 1050 -216 1195 -194 1307 -70 c 4
 1398.24760232 31.0241311353 1201.49775104 175.285856093 962 0 c 5
 962 -1.42108547152e-014 923.223304703 223.223304703 1100 400 c 1037
800 0 m 29
 500 300 l 5
 323.223304703 476.776695297 206.066017178 506.066017178 100 400 c 1037
EndSplineSet
Fore
SplineSet
812.374023438 -12.3740234375 m 0
 793.1171875 -31.6318359375 771.384765625 -42.095703125 764.64453125 -35.35546875 c 2
 464.64453125 264.64453125 l 2
 281.139648438 448.149414062 168.27734375 443.528320312 112.375 387.625976562 c 0
 93.1171875 368.368164062 71.384765625 357.904296875 64.64453125 364.64453125 c 0
 57.904296875 371.384765625 68.3681640625 393.1171875 87.6259765625 412.375 c 0
 243.85546875 568.604492188 365.307617188 505.403320312 535.35546875 335.35546875 c 2
 717.377738661 153.333198839 l 1
 725.418049022 164.373930721 735.374408292 175.819662643 747.61328125 187.524414062 c 0
 828.96484375 265.325195312 881.764648438 234.836914062 937.012695312 153.610351562 c 1
 955.013671875 224.841796875 993.340820312 318.08984375 1087.62597656 412.374023438 c 0
 1106.8828125 431.631835938 1128.61523438 442.095703125 1135.35546875 435.35546875 c 0
 1142.09570312 428.615234375 1131.63183594 406.8828125 1112.37402344 387.625976562 c 0
 1009.2265625 284.477539062 992.375 126.42578125 996.655273438 57.19921875 c 0
 996.868164062 53.7529296875 997.09375 50.791015625 997.349609375 47.8505859375 c 1
 1223.84667969 193.079101562 1394.96777344 97.708984375 1363.57324219 -11.982421875 c 0
 1360.0390625 -24.330078125 1353.37597656 -39.380859375 1340.32910156 -57.447265625 c 0
 1335.67480469 -63.892578125 1330.25976562 -70.595703125 1324.32910156 -77.1630859375 c 0
 1227.22460938 -184.670898438 1127.63378906 -220.229492188 1053.95117188 -189.6015625 c 0
 1004.56054688 -169.072265625 960.375976562 -119.470703125 925.217773438 -33.173828125 c 0
 917.108398438 -13.2685546875 909.061523438 4.7470703125 901.109375 21.0107421875 c 0
 847.430664062 130.786132812 795.387695312 158.103515625 768.008789062 154.529296875 c 1
 762.860351562 141.538085938 760.359375 122.509765625 764.8984375 109.8671875 c 0
 765.364983331 108.567783449 765.525163667 107.032828856 765.405060871 105.305876629 c 2
 835.35546875 35.35546875 l 2
 842.095703125 28.615234375 831.631835938 6.8828125 812.374023438 -12.3740234375 c 0
1010.42675781 6.6787109375 m 1
 1040.83789062 -57.318359375 1076.91894531 -95.5693359375 1114.22558594 -113.328125 c 0
 1186.14160156 -147.563476562 1249.20605469 -107.010742188 1288.39355469 -64.2431640625 c 0
 1288.61523438 -63.814453125 1288.79980469 -63.43359375 1289.05761719 -62.83984375 c 0
 1314.62109375 -3.9814453125 1183.93652344 98.2275390625 1010.42675781 6.6787109375 c 1
EndSplineSet
Validated: 33
LCarets2: 1 700
Ligature2: "ligatures-1" q N
EndChar

StartChar: r
Encoding: 114 114 29
Width: 300
VWidth: 0
Flags: W
LayerCount: 2
Back
SplineSet
100 400 m 21
 195.45941546 495.45941546 304.54058454 495.45941546 400 400 c 1037
EndSplineSet
Fore
SplineSet
64.64453125 364.64453125 m 0
 57.904296875 371.384765625 68.3681640625 393.1171875 87.6259765625 412.375 c 0
 226.973632812 551.72265625 343.364257812 527.346679688 435.35546875 435.35546875 c 0
 442.095703125 428.615234375 431.6328125 406.883789062 412.374023438 387.625976562 c 0
 393.116210938 368.368164062 371.384765625 357.904296875 364.64453125 364.64453125 c 0
 265.717773438 463.572265625 163.9453125 439.196289062 112.375 387.625976562 c 0
 93.1162109375 368.368164062 71.384765625 357.905273438 64.64453125 364.64453125 c 0
EndSplineSet
Validated: 33
Substitution2: "do-cap-1" R
EndChar

StartChar: R
Encoding: 82 82 30
Width: 600
VWidth: 0
Flags: W
HStem: 364.645 270.711
LayerCount: 2
Back
SplineSet
700 400 m 4
 604.54058454 495.45941546 495.45941546 495.45941546 400 400 c 12
 200 600 l 1029
EndSplineSet
Fore
SplineSet
712.374023438 387.625976562 m 0
 693.1171875 368.368164062 671.384765625 357.904296875 664.64453125 364.64453125 c 0
 565.71875 463.571289062 463.944335938 439.1953125 412.374023438 387.625976562 c 0
 390.973632812 366.224609375 369.956054688 359.333984375 364.64453125 364.64453125 c 2
 164.64453125 564.64453125 l 2
 157.904296875 571.384765625 168.368164062 593.116210938 187.625976562 612.374023438 c 0
 206.883789062 631.6328125 228.615234375 642.095703125 235.35546875 635.35546875 c 2
 424.864257812 445.846679688 l 1
 549.7265625 545.811523438 649.845703125 520.865234375 735.35546875 435.35546875 c 0
 742.095703125 428.615234375 731.631835938 406.8828125 712.374023438 387.625976562 c 0
EndSplineSet
Validated: 33
Substitution2: "do-backlink-1" r
EndChar

StartChar: R.what
Encoding: 270 -1 31
Width: 800
VWidth: 0
Flags: W
LayerCount: 2
Back
SplineSet
800 300 m 6
 623.223632812 476.776367188 506.06640625 506.06640625 400 400 c 12
 200 600 l 1029
825 325 m 29
 900 400 l 1053
EndSplineSet
Fore
SplineSet
935.35546875 435.35546875 m 0
 942.095703125 428.615234375 931.6328125 406.883789062 912.375 387.625976562 c 2
 812.374023438 287.625976562 l 2
 790.973632812 266.224609375 769.956054688 259.333984375 764.64453125 264.64453125 c 0
 581.139648438 448.149414062 468.27734375 443.528320312 412.374023438 387.625976562 c 0
 390.973632812 366.224609375 369.956054688 359.333984375 364.64453125 364.64453125 c 2
 164.64453125 564.64453125 l 2
 157.904296875 571.384765625 168.368164062 593.116210938 187.625976562 612.374023438 c 0
 206.883789062 631.6328125 228.615234375 642.095703125 235.35546875 635.35546875 c 2
 425.024414062 445.686523438 l 1
 563.198242188 553.818359375 669.784179688 497.041992188 822.907226562 347.65625 c 1
 887.625976562 412.375 l 2
 906.883789062 431.6328125 928.615234375 442.095703125 935.35546875 435.35546875 c 0
EndSplineSet
Validated: 33
EndChar

StartChar: r.what
Encoding: 271 -1 32
Width: 500
VWidth: 0
Flags: W
LayerCount: 2
Back
SplineSet
600 400 m 5
 500 300 l 21
 323.223632812 476.776367188 206.06640625 506.06640625 100 400 c 1028
EndSplineSet
Fore
SplineSet
635.35546875 435.35546875 m 0
 642.094726562 428.615234375 631.631835938 406.883789062 612.374023438 387.625976562 c 2
 512.374023438 287.625976562 l 2
 490.973632812 266.225585938 469.956054688 259.333984375 464.64453125 264.64453125 c 0
 281.139648438 448.149414062 168.27734375 443.528320312 112.375 387.625976562 c 0
 93.1171875 368.368164062 71.384765625 357.904296875 64.64453125 364.64453125 c 0
 57.904296875 371.384765625 68.3681640625 393.1171875 87.6259765625 412.375 c 0
 240.7109375 565.459960938 359.275390625 507.294921875 522.907226562 347.65625 c 1
 587.625 412.374023438 l 2
 606.8828125 431.631835938 628.615234375 442.095703125 635.35546875 435.35546875 c 0
EndSplineSet
Validated: 33
EndChar

StartChar: L
Encoding: 76 76 33
Width: 600
VWidth: 0
Flags: W
LayerCount: 2
Back
SplineSet
200 600 m 0
 200 600 304.541015625 495.458984375 400 400 c 1
 223.223632812 223.223632812 446.845703125 -11.3095703125 900 200 c 1025
EndSplineSet
Fore
SplineSet
187.625976562 612.374023438 m 0
 206.8828125 631.631835938 228.615234375 642.095703125 235.35546875 635.35546875 c 2
 435.35546875 435.35546875 l 2
 442.845703125 427.865234375 427.548828125 402.799804688 412.374023438 387.625976562 c 0
 403.12109375 378.372070312 396.06640625 369.2265625 389.55078125 356.135742188 c 0
 325.015625 226.470703125 523.46484375 50.595703125 916.907226562 234.061523438 c 0
 935.11328125 242.55078125 942.634765625 234.139648438 933.42578125 215.586914062 c 0
 924.216796875 197.033203125 901.298828125 174.427734375 883.092773438 165.938476562 c 0
 469.307617188 -27.0126953125 224.706054688 128.07421875 322.759765625 325.083984375 c 0
 330.512695312 340.661132812 340.9453125 357.444335938 354.434570312 374.85546875 c 1
 164.64453125 564.64453125 l 2
 157.904296875 571.384765625 168.368164062 593.1171875 187.625976562 612.374023438 c 0
EndSplineSet
Validated: 33
Substitution2: "do-linkfrom-1" L.lin
Substitution2: "do-link-1" L.lin
Substitution2: "do-backlink-1" l
EndChar

StartChar: l
Encoding: 108 108 34
Width: 600
VWidth: 0
Flags: W
LayerCount: 2
Back
SplineSet
100 400 m 4
 195.458984375 495.458984375 304.541015625 495.458984375 400 400 c 5
 223.223632812 223.223632812 446.845703125 -11.3095703125 900 200 c 1029
EndSplineSet
Fore
SplineSet
64.64453125 364.64453125 m 0
 57.904296875 371.384765625 68.3681640625 393.1171875 87.6259765625 412.375 c 0
 226.973632812 551.72265625 343.364257812 527.346679688 435.35546875 435.35546875 c 0
 442.845703125 427.865234375 427.548828125 402.799804688 412.374023438 387.625976562 c 0
 403.12109375 378.372070312 396.06640625 369.2265625 389.55078125 356.135742188 c 0
 325.015625 226.470703125 523.46484375 50.595703125 916.907226562 234.061523438 c 0
 935.11328125 242.55078125 942.634765625 234.139648438 933.42578125 215.586914062 c 0
 924.216796875 197.033203125 901.298828125 174.427734375 883.092773438 165.938476562 c 0
 469.307617188 -27.0126953125 224.706054688 128.07421875 322.759765625 325.083984375 c 0
 330.497070312 340.62890625 340.563476562 356.893554688 354.245117188 374.611328125 c 1
 258.012695312 462.62109375 161.715820312 436.966796875 112.375 387.625976562 c 0
 93.1162109375 368.368164062 71.384765625 357.905273438 64.64453125 364.64453125 c 0
EndSplineSet
Validated: 33
Substitution2: "do-linkfrom-1" l.lin
Substitution2: "do-link-1" l.lin
Substitution2: "do-cap-1" L
EndChar

StartChar: L.lin
Encoding: 272 -1 35
Width: 600
VWidth: 0
Flags: W
LayerCount: 2
Back
SplineSet
700 400 m 5
 465 165 l 1053
200 600 m 0
 200 600 304.541015625 495.458984375 400 400 c 1
 223.223632812 223.223632812 446.845703125 -11.3095703125 900 200 c 1025
EndSplineSet
Fore
SplineSet
187.625976562 612.374023438 m 0
 206.8828125 631.631835938 228.615234375 642.095703125 235.35546875 635.35546875 c 2
 435.35546875 435.35546875 l 2
 442.845703125 427.865234375 427.548828125 402.799804688 412.374023438 387.625976562 c 0
 403.12109375 378.372070312 396.06640625 369.2265625 389.55078125 356.135742188 c 0
 359.711736958 296.182670583 386.094788672 226.350605748 461.979176101 186.727222976 c 1
 687.625976562 412.374023438 l 2
 706.883789062 431.631835938 728.615234375 442.095703125 735.35546875 435.35546875 c 0
 742.095703125 428.615234375 731.6328125 406.883789062 712.374023438 387.625976562 c 2
 496.72624723 171.977304209 l 1
 588.379669481 140.899762461 730.837265624 147.295380514 916.907226562 234.061523438 c 0
 935.11328125 242.55078125 942.634765625 234.139648438 933.42578125 215.586914062 c 0
 924.216796875 197.033203125 901.298828125 174.427734375 883.092773438 165.938476562 c 0
 469.307617188 -27.0126953125 224.706054688 128.07421875 322.759765625 325.083984375 c 0
 330.512695312 340.661132812 340.9453125 357.444335938 354.434570312 374.85546875 c 1
 164.64453125 564.64453125 l 2
 157.904296875 571.384765625 168.368164062 593.1171875 187.625976562 612.374023438 c 0
EndSplineSet
Validated: 33
EndChar

StartChar: l.lin
Encoding: 273 -1 36
Width: 600
VWidth: 0
Flags: W
LayerCount: 2
Back
SplineSet
100 400 m 4
 195.458984375 495.458984375 304.541015625 495.458984375 400 400 c 5
 223.223632812 223.223632812 446.845703125 -11.3095703125 900 200 c 1029
700 400 m 5
 465 165 l 1053
EndSplineSet
Fore
SplineSet
735.35546875 435.35546875 m 0
 742.095703125 428.615234375 731.6328125 406.883789062 712.374023438 387.625976562 c 2
 496.72624723 171.977304209 l 1
 588.379669481 140.899762461 730.837265624 147.295380514 916.907226562 234.061523438 c 0
 935.11328125 242.55078125 942.634765625 234.139648438 933.42578125 215.586914062 c 0
 924.216796875 197.033203125 901.298828125 174.427734375 883.092773438 165.938476562 c 0
 469.307617188 -27.0126953125 224.706054688 128.07421875 322.759765625 325.083984375 c 0
 330.497070312 340.62890625 340.563476562 356.893554688 354.245117188 374.611328125 c 1
 258.012695312 462.62109375 161.715820312 436.966796875 112.375 387.625976562 c 0
 93.1162109375 368.368164062 71.384765625 357.905273438 64.64453125 364.64453125 c 0
 57.904296875 371.384765625 68.3681640625 393.1171875 87.6259765625 412.375 c 0
 226.973632812 551.72265625 343.364257812 527.346679688 435.35546875 435.35546875 c 0
 442.845703125 427.865234375 427.548828125 402.799804688 412.374023438 387.625976562 c 0
 403.12109375 378.372070312 396.06640625 369.2265625 389.55078125 356.135742188 c 0
 359.711736958 296.182670583 386.094788672 226.350605748 461.979176101 186.727222976 c 1
 687.625976562 412.374023438 l 2
 706.883789062 431.631835938 728.615234375 442.095703125 735.35546875 435.35546875 c 0
EndSplineSet
Validated: 33
EndChar

StartChar: t.lin
Encoding: 274 -1 37
Width: 500
VWidth: 0
Flags: HW
LayerCount: 2
Back
SplineSet
500 300 m 1024,2,3
500 300 m 25,5,-1
 600 400 l 1049
100 400 m 1,0,1
 206.066017178 506.066017178 323.223632812 476.776367188 500 300 c 0,2,3
 676.776367188 123.223632812 706.06640625 6.06640625 600 -100 c 1025
EndSplineSet
Fore
SplineSet
64.64453125 364.64453125 m 0
 57.904296875 371.384765625 68.3681640625 393.1171875 87.6259765625 412.375 c 0
 240.020876492 564.769899929 359.327563831 508.372119801 522.926920374 347.675943811 c 1
 587.625 412.374023438 l 2
 606.8828125 431.631835938 628.614257812 442.095703125 635.35546875 435.35546875 c 0
 642.095703125 428.615234375 631.631835938 406.8828125 612.374023438 387.625976562 c 2
 547.675463341 322.927416466 l 1
 708.372100055 159.327896821 764.771958112 40.0229346744 612.375 -112.374023438 c 0
 593.1171875 -131.631835938 571.384765625 -142.095703125 564.64453125 -135.35546875 c 0
 557.904296875 -128.615234375 568.368164062 -106.8828125 587.625976562 -87.625 c 0
 643.528320312 -31.72265625 648.149414062 81.1396484375 464.64453125 264.64453125 c 0
 281.139648438 448.149414062 168.279296875 443.530273438 112.375 387.625976562 c 0
 93.1162109375 368.368164062 71.384765625 357.905273438 64.64453125 364.64453125 c 0
EndSplineSet
EndChar

StartChar: T.lin
Encoding: 275 -1 38
Width: 500
VWidth: 0
Flags: W
LayerCount: 2
Back
SplineSet
200 600 m 1
 200 600 323.223632812 476.776367188 500 300 c 4
 676.776367188 123.223632812 706.06640625 6.06640625 600 -100 c 1024
500 300 m 29
 600 400 l 1053
EndSplineSet
Fore
SplineSet
187.625976562 612.374023438 m 0
 206.8828125 631.631835938 228.615234375 642.095703125 235.35546875 635.35546875 c 2
 522.980957031 347.729980469 l 1
 587.625 412.374023438 l 2
 606.8828125 431.631835938 628.614257812 442.095703125 635.35546875 435.35546875 c 0
 642.095703125 428.615234375 631.631835938 406.8828125 612.374023438 387.625976562 c 2
 547.675463341 322.927416466 l 1
 708.372100055 159.327896821 764.771958112 40.0229346744 612.375 -112.374023438 c 0
 593.1171875 -131.631835938 571.384765625 -142.095703125 564.64453125 -135.35546875 c 0
 557.904296875 -128.615234375 568.368164062 -106.8828125 587.625976562 -87.625 c 0
 643.528320312 -31.72265625 648.149414062 81.1396484375 464.64453125 264.64453125 c 2
 164.64453125 564.64453125 l 2
 157.904296875 571.384765625 168.368164062 593.1171875 187.625976562 612.374023438 c 0
EndSplineSet
Validated: 33
EndChar

StartChar: t
Encoding: 116 116 39
Width: 350
VWidth: 0
Flags: W
LayerCount: 2
Back
SplineSet
100 400 m 1
 206.066017178 506.066017178 323.223632812 476.776367188 500 300 c 0
 676.776367188 123.223632812 706.06640625 6.06640625 600 -100 c 1024
EndSplineSet
Fore
SplineSet
64.64453125 364.64453125 m 0
 57.904296875 371.384765625 68.3681640625 393.1171875 87.6259765625 412.375 c 0
 243.853515625 568.602539062 365.307617188 505.403320312 535.35546875 335.35546875 c 0
 705.403320312 165.307617188 768.604492188 43.85546875 612.375 -112.374023438 c 0
 593.1171875 -131.631835938 571.384765625 -142.095703125 564.64453125 -135.35546875 c 0
 557.904296875 -128.615234375 568.368164062 -106.8828125 587.625976562 -87.625 c 0
 643.528320312 -31.72265625 648.149414062 81.1396484375 464.64453125 264.64453125 c 0
 281.139648438 448.149414062 168.279296875 443.530273438 112.375 387.625976562 c 0
 93.1162109375 368.368164062 71.384765625 357.905273438 64.64453125 364.64453125 c 0
EndSplineSet
Validated: 33
Substitution2: "do-link-1" t.lin
Substitution2: "do-cap-1" T
EndChar

StartChar: T
Encoding: 84 84 40
Width: 350
VWidth: 0
Flags: W
LayerCount: 2
Back
SplineSet
200 600 m 5
 200 600 323.223632812 476.776367188 500 300 c 4
 676.776367188 123.223632812 706.06640625 6.06640625 600 -100 c 1028
EndSplineSet
Fore
SplineSet
187.625976562 612.374023438 m 0
 206.8828125 631.631835938 228.615234375 642.095703125 235.35546875 635.35546875 c 2
 535.35546875 335.35546875 l 2
 705.403320312 165.307617188 768.604492188 43.85546875 612.375 -112.374023438 c 0
 593.1171875 -131.631835938 571.384765625 -142.095703125 564.64453125 -135.35546875 c 0
 557.904296875 -128.615234375 568.368164062 -106.8828125 587.625976562 -87.625 c 0
 643.528320312 -31.72265625 648.149414062 81.1396484375 464.64453125 264.64453125 c 2
 164.64453125 564.64453125 l 2
 157.904296875 571.384765625 168.368164062 593.1171875 187.625976562 612.374023438 c 0
EndSplineSet
Validated: 33
Substitution2: "do-link-1" T.lin
Substitution2: "do-backlink-1" t
EndChar

StartChar: f.lin
Encoding: 276 -1 41
Width: 500
VWidth: 0
Flags: W
HStem: -137.458 74.916<470.069 545.425>
LayerCount: 2
Back
SplineSet
600 400 m 1
 500 300 l 1
 323.223304703 123.223304703 365 -100 500 -100 c 3
 635 -100 676.776695297 123.223304703 500 300 c 0
 323.223304703 476.776695297 206.066017178 506.066017178 100 400 c 1025
EndSplineSet
Fore
SplineSet
453.623046875 275.549804688 m 1
 276.3515625 448.967773438 166.532226562 441.783203125 112.375 387.625976562 c 0
 93.1171875 368.368164062 71.384765625 357.904296875 64.64453125 364.64453125 c 0
 57.904296875 371.384765625 68.3681640625 393.1171875 87.6259765625 412.375 c 0
 240.709960938 565.458984375 359.581054688 506.997070312 522.907226562 347.65625 c 1
 587.625 412.374023438 l 2
 606.8828125 431.631835938 628.615234375 442.095703125 635.35546875 435.35546875 c 0
 642.094726562 428.615234375 631.631835938 406.883789062 612.374023438 387.625976562 c 2
 547.513671875 322.764648438 l 1
 667.474609375 194.029296875 705.64453125 35.083984375 587.022460938 -82.4306640625 c 0
 540.186523438 -128.829101562 501.266601562 -137.458007812 470.717773438 -137.458007812 c 0
 340.16015625 -137.458984375 278.21875 52.2138671875 438.577148438 257.115234375 c 0
 443.291015625 263.138671875 448.404296875 269.403320312 453.623046875 275.549804688 c 1
479.350585938 249.283203125 m 1
 382.7734375 117.877929688 414.686523438 -62.5419921875 529.282226562 -62.5419921875 c 0
 544.853515625 -62.5419921875 557.736328125 -58.5322265625 563.362304688 -55.7861328125 c 1
 590.694335938 -9.7021484375 588.291992188 130.079101562 479.350585938 249.283203125 c 1
EndSplineSet
Validated: 33
EndChar

StartChar: F.lin
Encoding: 277 -1 42
Width: 500
VWidth: 0
Flags: W
HStem: -137.458 74.916<470.069 545.425>
LayerCount: 2
Back
SplineSet
600 400 m 1
 500 300 l 1
 323.223304703 123.223304703 365 -100 500 -100 c 3
 635 -100 676.776695297 123.223304703 500 300 c 0
 323.223304703 476.776695297 200 600 200 600 c 1025
EndSplineSet
Fore
SplineSet
453.676757812 275.612304688 m 1
 164.64453125 564.64453125 l 2
 157.904296875 571.384765625 168.368164062 593.116210938 187.625976562 612.374023438 c 0
 206.883789062 631.6328125 228.615234375 642.095703125 235.35546875 635.35546875 c 2
 522.98046875 347.729492188 l 1
 587.625 412.374023438 l 2
 606.8828125 431.631835938 628.615234375 442.095703125 635.35546875 435.35546875 c 0
 642.094726562 428.615234375 631.631835938 406.883789062 612.374023438 387.625976562 c 2
 547.513671875 322.764648438 l 1
 667.474609375 194.029296875 705.64453125 35.083984375 587.022460938 -82.4306640625 c 0
 540.186523438 -128.829101562 501.266601562 -137.458007812 470.717773438 -137.458007812 c 0
 340.16015625 -137.458984375 278.21875 52.2138671875 438.577148438 257.115234375 c 0
 443.291015625 263.138671875 448.439453125 269.4453125 453.676757812 275.612304688 c 1
479.350585938 249.283203125 m 1
 382.7734375 117.877929688 414.686523438 -62.5419921875 529.282226562 -62.5419921875 c 0
 544.853515625 -62.5419921875 557.736328125 -58.5322265625 563.362304688 -55.7861328125 c 1
 590.694335938 -9.7021484375 588.291992188 130.079101562 479.350585938 249.283203125 c 1
EndSplineSet
Validated: 33
EndChar

StartChar: F
Encoding: 70 70 43
Width: 350
VWidth: 0
Flags: HW
HStem: -137.458 74.916<470.018 544.043>
LayerCount: 2
Back
SplineSet
500 300 m 5
 323.223304703 123.223304703 365 -100 500 -100 c 7
 635 -100 676.776695297 123.223304703 500 300 c 4
 323.223304703 476.776695297 200 600 200 600 c 1029
EndSplineSet
Fore
SplineSet
479.350585938 249.283203125 m 1
 382.275390625 117.19921875 414.681640625 -62.5419921875 529.282226562 -62.5419921875 c 0
 544.853515625 -62.5419921875 557.736328125 -58.5322265625 563.362304688 -55.7861328125 c 1
 590.694335938 -9.7021484375 588.291992188 130.079101562 479.350585938 249.283203125 c 1
453.676757812 275.612304688 m 1
 164.64453125 564.64453125 l 2
 157.904296875 571.384765625 168.368164062 593.116210938 187.625976562 612.374023438 c 0
 206.883789062 631.6328125 228.615234375 642.095703125 235.35546875 635.35546875 c 2
 535.35546875 335.35546875 l 2
 666.651367188 204.059570312 707.993164062 38.5263671875 587.86328125 -81.5947265625 c 0
 540.788085938 -128.665039062 501.404296875 -137.458007812 470.717773438 -137.458007812 c 0
 340.16015625 -137.458984375 278.21875 52.2138671875 438.577148438 257.115234375 c 0
 443.62109375 263.559570312 447.283203125 268.083007812 453.676757812 275.612304688 c 1
EndSplineSet
Substitution2: "do-linkfrom-1" F.lin
Substitution2: "do-link-1" F.lin
Substitution2: "do-backlink-1" f
EndChar

StartChar: f
Encoding: 102 102 44
Width: 350
VWidth: 0
Flags: HW
HStem: -137.458 74.916<470.018 544.043>
LayerCount: 2
Back
SplineSet
500 300 m 5
 323.223304703 123.223304703 365 -100 500 -100 c 7
 635 -100 676.776695297 123.223304703 500 300 c 4
 323.223304703 476.776695297 206.066017178 506.066017178 100 400 c 1029
EndSplineSet
Fore
SplineSet
479.350585938 249.283203125 m 1
 382.275390625 117.19921875 414.681640625 -62.5419921875 529.282226562 -62.5419921875 c 0
 544.853515625 -62.5419921875 557.736328125 -58.5322265625 563.362304688 -55.7861328125 c 1
 590.694335938 -9.7021484375 588.291992188 130.079101562 479.350585938 249.283203125 c 1
453.623046875 275.549804688 m 1
 276.3515625 448.967773438 166.532226562 441.783203125 112.375 387.625976562 c 0
 93.1171875 368.368164062 71.384765625 357.904296875 64.64453125 364.64453125 c 0
 57.904296875 371.384765625 68.3681640625 393.1171875 87.6259765625 412.375 c 0
 243.85546875 568.604492188 365.307617188 505.403320312 535.35546875 335.35546875 c 0
 536.370117188 334.33984375 537.37890625 333.323242188 538.379882812 332.3046875 c 0
 666.848632812 201.629882812 707.345703125 37.87890625 587.86328125 -81.5947265625 c 0
 540.788085938 -128.665039062 501.404296875 -137.458007812 470.717773438 -137.458007812 c 0
 340.16015625 -137.458984375 278.21875 52.2138671875 438.577148438 257.115234375 c 0
 443.62109375 263.559570312 447.229492188 268.01953125 453.623046875 275.549804688 c 1
EndSplineSet
Substitution2: "do-linkfrom-1" f.lin
Substitution2: "do-link-1" f.lin
Substitution2: "do-cap-1" F
EndChar

StartChar: c.lin
Encoding: 278 -1 45
Width: 700
VWidth: 0
Flags: W
LayerCount: 2
Back
SplineSet
800 400 m 1
 600 200 l 25
 500 100 l 1
 300 300 l 1049
100 400 m 16
 206.066017178 506.066017178 323.223304703 476.776695297 500 300 c 2
 700 100 l 1049
500 300 m 1025
EndSplineSet
Fore
SplineSet
64.64453125 364.64453125 m 0
 57.904296875 371.384765625 68.3681640625 393.1171875 87.6259765625 412.375 c 0
 243.853515625 568.602539062 365.307617188 505.403320312 535.35546875 335.35546875 c 2
 622.981445312 247.729492188 l 1
 787.625976562 412.374023438 l 2
 806.883789062 431.6328125 828.615234375 442.095703125 835.35546875 435.35546875 c 0
 842.095703125 428.615234375 831.6328125 406.883789062 812.374023438 387.625976562 c 2
 647.729492188 222.981445312 l 1
 735.35546875 135.35546875 l 2
 742.095703125 128.615234375 731.631835938 106.883789062 712.374023438 87.6259765625 c 0
 693.116210938 68.3681640625 671.384765625 57.904296875 664.64453125 64.64453125 c 2
 577.018727321 152.270335179 l 1
 512.374023438 87.625 l 2
 490.973632812 66.224609375 469.955078125 59.3330078125 464.64453125 64.64453125 c 2
 264.64453125 264.64453125 l 2
 257.904296875 271.384765625 268.3671875 293.116210938 287.625 312.374023438 c 0
 306.8828125 331.631835938 328.615234375 342.094726562 335.35546875 335.35546875 c 2
 522.98046875 147.729492188 l 1
 552.270240763 177.018821737 l 1
 464.64453125 264.64453125 l 2
 281.139648438 448.150390625 168.279296875 443.530273438 112.375 387.625976562 c 0
 93.1162109375 368.368164062 71.384765625 357.905273438 64.64453125 364.64453125 c 0
EndSplineSet
Validated: 33
EndChar

StartChar: c
Encoding: 99 99 46
Width: 350
VWidth: 0
Flags: W
LayerCount: 2
Back
SplineSet
600 200 m 29
 500 100 l 5
 300 300 l 1053
100 400 m 20
 206.066017178 506.066017178 323.223304703 476.776695297 500 300 c 6
 700 100 l 1053
500 300 m 1029
EndSplineSet
Fore
SplineSet
64.64453125 364.64453125 m 0
 57.904296875 371.384765625 68.3681640625 393.1171875 87.6259765625 412.375 c 0
 243.853515625 568.602539062 365.307617188 505.403320312 535.35546875 335.35546875 c 2
 635.35546875 235.35546875 l 1
 735.35546875 135.35546875 l 2
 742.095703125 128.615234375 731.631835938 106.883789062 712.374023438 87.6259765625 c 0
 693.116210938 68.3681640625 671.384765625 57.904296875 664.64453125 64.64453125 c 2
 577.018727321 152.270335179 l 1
 512.374023438 87.625 l 2
 490.973632812 66.224609375 469.955078125 59.3330078125 464.64453125 64.64453125 c 2
 264.64453125 264.64453125 l 2
 257.904296875 271.384765625 268.3671875 293.116210938 287.625 312.374023438 c 0
 306.8828125 331.631835938 328.615234375 342.094726562 335.35546875 335.35546875 c 2
 522.98046875 147.729492188 l 1
 552.270240763 177.018821737 l 1
 464.64453125 264.64453125 l 2
 281.139648438 448.150390625 168.279296875 443.530273438 112.375 387.625976562 c 0
 93.1162109375 368.368164062 71.384765625 357.905273438 64.64453125 364.64453125 c 0
EndSplineSet
Validated: 33
Substitution2: "do-link-1" c.lin
Substitution2: "do-cap-1" C
EndChar

StartChar: C.lin
Encoding: 279 -1 47
Width: 700
VWidth: 0
Flags: W
LayerCount: 2
Back
SplineSet
800 400 m 1
 600 200 l 25
 500 100 l 1
 300 300 l 1049
200 600 m 0
 200 600 323.223304703 476.776695297 500 300 c 2
 700 100 l 1049
500 300 m 1025
EndSplineSet
Fore
SplineSet
187.625976562 612.374023438 m 0
 206.8828125 631.631835938 228.615234375 642.095703125 235.35546875 635.35546875 c 2
 535.35546875 335.35546875 l 1
 622.981445312 247.729492188 l 1
 787.625976562 412.374023438 l 2
 806.883789062 431.6328125 828.615234375 442.095703125 835.35546875 435.35546875 c 0
 842.095703125 428.615234375 831.6328125 406.883789062 812.374023438 387.625976562 c 2
 647.729492188 222.981445312 l 1
 735.35546875 135.35546875 l 2
 742.095703125 128.615234375 731.631835938 106.883789062 712.374023438 87.6259765625 c 0
 693.116210938 68.3681640625 671.384765625 57.904296875 664.64453125 64.64453125 c 2
 577.018727321 152.270335179 l 1
 512.374023438 87.625 l 2
 490.973632812 66.224609375 469.955078125 59.3330078125 464.64453125 64.64453125 c 2
 264.64453125 264.64453125 l 2
 257.904296875 271.384765625 268.3671875 293.116210938 287.625 312.374023438 c 0
 306.8828125 331.631835938 328.615234375 342.094726562 335.35546875 335.35546875 c 2
 522.98046875 147.729492188 l 1
 552.270240763 177.018821737 l 1
 464.64453125 264.64453125 l 1
 164.64453125 564.64453125 l 2
 157.904296875 571.384765625 168.368164062 593.1171875 187.625976562 612.374023438 c 0
EndSplineSet
Validated: 33
EndChar

StartChar: C
Encoding: 67 67 48
Width: 350
VWidth: 0
Flags: W
LayerCount: 2
Back
SplineSet
600 200 m 25
 500 100 l 1
 300 300 l 1049
200 600 m 0
 200 600 323.223304703 476.776695297 500 300 c 2
 700 100 l 1049
500 300 m 1025
EndSplineSet
Fore
SplineSet
187.625976562 612.374023438 m 0
 206.8828125 631.631835938 228.615234375 642.095703125 235.35546875 635.35546875 c 2
 535.35546875 335.35546875 l 1
 635.35546875 235.35546875 l 1
 735.35546875 135.35546875 l 2
 742.095703125 128.615234375 731.631835938 106.883789062 712.374023438 87.6259765625 c 0
 693.116210938 68.3681640625 671.384765625 57.904296875 664.64453125 64.64453125 c 2
 577.018727321 152.270335179 l 1
 512.374023438 87.625 l 2
 490.973632812 66.224609375 469.955078125 59.3330078125 464.64453125 64.64453125 c 2
 264.64453125 264.64453125 l 2
 257.904296875 271.384765625 268.3671875 293.116210938 287.625 312.374023438 c 0
 306.8828125 331.631835938 328.615234375 342.094726562 335.35546875 335.35546875 c 2
 522.98046875 147.729492188 l 1
 552.270240763 177.018821737 l 1
 464.64453125 264.64453125 l 1
 164.64453125 564.64453125 l 2
 157.904296875 571.384765625 168.368164062 593.1171875 187.625976562 612.374023438 c 0
EndSplineSet
Validated: 33
Substitution2: "do-link-1" C.lin
Substitution2: "do-backlink-1" c
EndChar

StartChar: w.lin
Encoding: 280 -1 49
Width: 0
VWidth: 0
Flags: W
HStem: 264.645 270.711
VStem: -35.3555 270.711
LayerCount: 2
Back
SplineSet
0 300 m 29
 100 400 l 1053
0 500 m 29
 200 300 l 1053
EndSplineSet
Fore
SplineSet
-12.3740234375 512.375 m 0
 6.8828125 531.631835938 28.615234375 542.095703125 35.35546875 535.35546875 c 2
 135.35546875 435.35546875 l 1
 235.35546875 335.35546875 l 2
 242.095703125 328.615234375 231.6328125 306.883789062 212.375 287.625976562 c 0
 193.1171875 268.368164062 171.384765625 257.904296875 164.64453125 264.64453125 c 2
 77.0188703331 352.270192167 l 1
 12.3740234375 287.625976562 l 2
 -6.8837890625 268.3671875 -28.615234375 257.904296875 -35.35546875 264.64453125 c 0
 -42.095703125 271.384765625 -31.6328125 293.116210938 -12.375 312.374023438 c 2
 52.2700195312 377.019042969 l 1
 -35.35546875 464.64453125 l 2
 -42.095703125 471.384765625 -31.6318359375 493.1171875 -12.3740234375 512.375 c 0
EndSplineSet
Validated: 33
EndChar

StartChar: W.lin
Encoding: 281 -1 50
Width: 900
VWidth: 0
Flags: W
LayerCount: 2
Back
SplineSet
1001 400 m 1
 801 200 l 25
 701 100 l 1
 200 600 l 1025
600 400 m 1
 901 100 l 1049
EndSplineSet
Fore
SplineSet
587.604492188 412.353515625 m 0
 606.862304688 431.611328125 628.596679688 442.091796875 635.34765625 435.362304688 c 2
 823.793501716 247.542525153 l 1
 988.625 412.374023438 l 2
 1007.8828125 431.631835938 1029.61523438 442.095703125 1036.35546875 435.35546875 c 0
 1043.09472656 428.615234375 1032.63183594 406.883789062 1013.37402344 387.625 c 2
 848.583704893 222.834681455 l 1
 936.34765625 135.362304688 l 2
 943.099609375 128.633789062 932.6484375 106.908203125 913.39453125 87.6455078125 c 0
 894.140625 68.3837890625 872.403320312 57.908203125 865.651367188 64.63671875 c 2
 777.872712016 152.124035271 l 1
 713.374023438 87.6259765625 l 2
 693.28515625 67.537109375 671.846679688 58.455078125 665.649414062 64.640625 c 2
 164.649414062 564.640625 l 2
 157.90234375 571.374023438 168.357421875 593.1015625 187.61328125 612.362304688 c 0
 206.869140625 631.622070312 228.604492188 642.092773438 235.3515625 635.359375 c 2
 723.96875 147.717773438 l 1
 753.082722755 176.831746192 l 1
 564.651367188 364.637695312 l 2
 557.900390625 371.366210938 568.34765625 393.096679688 587.604492188 412.353515625 c 0
EndSplineSet
Validated: 33
EndChar

StartChar: W
Encoding: 87 87 51
Width: 500
VWidth: 0
Flags: W
LayerCount: 2
Back
SplineSet
801 200 m 25
 701 100 l 1
 200 600 l 1025
600 400 m 1
 901 100 l 1049
EndSplineSet
Fore
SplineSet
587.604492188 412.353515625 m 0
 606.862304688 431.611328125 628.596679688 442.091796875 635.34765625 435.362304688 c 2
 834.994422484 236.378816746 l 2
 835.498882598 236.097605325 835.953796887 235.757082417 836.35546875 235.35546875 c 0
 836.752330487 234.958549505 837.089538576 234.509643706 837.368809874 234.012317687 c 2
 936.34765625 135.362304688 l 2
 943.099609375 128.633789062 932.6484375 106.908203125 913.39453125 87.6455078125 c 0
 894.140625 68.3837890625 872.403320312 57.908203125 865.651367188 64.63671875 c 2
 777.872712016 152.124035271 l 1
 713.374023438 87.6259765625 l 2
 693.28515625 67.537109375 671.846679688 58.455078125 665.649414062 64.640625 c 2
 164.649414062 564.640625 l 2
 157.90234375 571.374023438 168.357421875 593.1015625 187.61328125 612.362304688 c 0
 206.869140625 631.622070312 228.604492188 642.092773438 235.3515625 635.359375 c 2
 723.96875 147.717773438 l 1
 753.082722755 176.831746192 l 1
 564.651367188 364.637695312 l 2
 557.900390625 371.366210938 568.34765625 393.096679688 587.604492188 412.353515625 c 0
EndSplineSet
Validated: 33
Substitution2: "do-link-1" W.lin
Substitution2: "do-backlink-1" w
EndChar

StartChar: o_o
Encoding: 282 -1 52
Width: 100
VWidth: 0
Flags: W
LayerCount: 2
Back
SplineSet
100 600 m 29
 200 700 l 5
 293 607 l 1053
100 400 m 29
 400 700 l 1053
400 700 m 1045
EndSplineSet
Fore
SplineSet
64.64453125 364.64453125 m 0
 57.904296875 371.384765625 68.3681640625 393.1171875 87.6259765625 412.375 c 2
 252.270320054 577.01880754 l 1
 177.01953125 652.270507812 l 1
 112.374023438 587.625 l 2
 93.1162109375 568.3671875 71.384765625 557.904296875 64.64453125 564.64453125 c 0
 57.904296875 571.384765625 68.3671875 593.116210938 87.6259765625 612.374023438 c 2
 187.625976562 712.375 l 2
 209.026367188 733.775390625 230.044921875 740.666992188 235.35546875 735.35546875 c 2
 322.981340097 647.729597403 l 1
 387.625976562 712.374023438 l 2
 407.141601562 731.890625 428.524414062 742.185546875 435.35546875 735.35546875 c 0
 442.185546875 728.524414062 431.890625 707.141601562 412.374023438 687.625976562 c 2
 112.375 387.625976562 l 2
 93.1162109375 368.368164062 71.384765625 357.905273438 64.64453125 364.64453125 c 0
EndSplineSet
Validated: 33
LCarets2: 1 50
Ligature2: "ligatures-1" o o
EndChar

StartChar: O_o
Encoding: 283 -1 53
Width: 100
VWidth: 0
Flags: HW
LayerCount: 2
Back
SplineSet
-50 750 m 25
 0 700 l 1049
100 600 m 25
 200 700 l 1
 290 610 l 1049
100 400 m 25
 400 700 l 1049
400 700 m 1041
EndSplineSet
Fore
SplineSet
64.64453125 364.64453125 m 0
 57.904296875 371.384765625 68.3681640625 393.1171875 87.6259765625 412.375 c 2
 252.270775789 577.019263273 l 1
 177.01953125 652.270507812 l 1
 112.374023438 587.625 l 2
 93.1162109375 568.3671875 71.384765625 557.904296875 64.64453125 564.64453125 c 0
 57.904296875 571.384765625 68.3671875 593.116210938 87.6259765625 612.374023438 c 2
 187.625976562 712.375 l 2
 209.026367188 733.775390625 230.044921875 740.666992188 235.35546875 735.35546875 c 2
 322.981340097 647.729597403 l 1
 387.625976562 712.374023438 l 2
 407.141601562 731.890625 428.524414062 742.185546875 435.35546875 735.35546875 c 0
 442.185546875 728.524414062 431.890625 707.141601562 412.374023438 687.625976562 c 2
 112.375 387.625976562 l 2
 93.1162109375 368.368164062 71.384765625 357.905273438 64.64453125 364.64453125 c 0
35 762.374023438 m 4
 54.2568359375 781.631835938 75.9892578125 792.095703125 82.7294921875 785.35546875 c 6
 132.729492188 735.35546875 l 6
 139.469726562 728.615234375 129.005859375 706.883789062 109.748046875 687.625976562 c 4
 90.490234375 668.3671875 68.7587890625 657.904296875 62.0185546875 664.64453125 c 6
 12.0185546875 714.64453125 l 6
 5.2783203125 721.384765625 15.7421875 743.1171875 35 762.374023438 c 4
EndSplineSet
LCarets2: 1 50
Ligature2: "ligatures-1" O o
EndChar

StartChar: A
Encoding: 65 65 54
Width: 100
VWidth: 0
Flags: HW
LayerCount: 2
Back
SplineSet
48 750 m 29
 98 700 l 1053
100 400 m 5
 300 600 l 21
 370.710678119 670.710678119 370.710678119 729.289321881 300 800 c 1029
EndSplineSet
Fore
SplineSet
100 762.374023438 m 4
 119.256835938 781.631835938 140.989257812 792.095703125 147.729492188 785.35546875 c 6
 197.729492188 735.35546875 l 6
 204.469726562 728.615234375 194.006835938 706.883789062 174.749023438 687.625976562 c 4
 155.490234375 668.368164062 133.758789062 657.904296875 127.018554688 664.64453125 c 6
 77.0185546875 714.64453125 l 6
 70.2783203125 721.384765625 80.7421875 743.1171875 100 762.374023438 c 4
64.64453125 364.64453125 m 0
 57.904296875 371.384765625 68.3681640625 393.1171875 87.6259765625 412.375 c 2
 287.625976562 612.375 l 2
 317.204101562 641.953125 338.840820312 690.448242188 264.64453125 764.64453125 c 0
 257.904296875 771.384765625 268.368164062 793.116210938 287.625976562 812.374023438 c 0
 306.883789062 831.631835938 328.615234375 842.095703125 335.35546875 835.35546875 c 0
 402.580078125 768.130859375 424.217773438 699.46875 312.375 587.625976562 c 2
 112.375 387.625976562 l 2
 93.1162109375 368.368164062 71.384765625 357.905273438 64.64453125 364.64453125 c 0
EndSplineSet
EndChar

StartChar: a
Encoding: 97 97 55
Width: 100
VWidth: 0
Flags: W
LayerCount: 2
Back
SplineSet
100 400 m 1
 300 600 l 17
 370.710678119 670.710678119 370.710678119 729.289321881 300 800 c 1025
EndSplineSet
Fore
SplineSet
64.64453125 364.64453125 m 0
 57.904296875 371.384765625 68.3681640625 393.1171875 87.6259765625 412.375 c 2
 287.625976562 612.375 l 2
 317.204101562 641.953125 338.840820312 690.448242188 264.64453125 764.64453125 c 0
 257.904296875 771.384765625 268.368164062 793.116210938 287.625976562 812.374023438 c 0
 306.883789062 831.631835938 328.615234375 842.095703125 335.35546875 835.35546875 c 0
 402.580078125 768.130859375 424.217773438 699.46875 312.375 587.625976562 c 2
 112.375 387.625976562 l 2
 93.1162109375 368.368164062 71.384765625 357.905273438 64.64453125 364.64453125 c 0
EndSplineSet
Validated: 33
EndChar

StartChar: E
Encoding: 69 69 56
Width: 300
VWidth: 0
Flags: W
LayerCount: 2
Back
SplineSet
500 800 m 17
 429.289321881 729.289321881 429.289321881 670.710678119 500 600 c 1033
150 750 m 29
 200 700 l 1053
100 400 m 25
 500 800 l 1041
EndSplineSet
Fore
SplineSet
64.64453125 364.64453125 m 4
 57.904296875 371.384765625 68.3681640625 393.1171875 87.6259765625 412.375 c 6
 487.625976562 812.375 l 6
 506.883789062 831.6328125 528.615234375 842.095703125 535.35546875 835.35546875 c 4
 542.095703125 828.615234375 531.6328125 806.883789062 512.375 787.625976562 c 4
 482.795898438 758.047851562 461.159179688 709.551757812 535.35546875 635.35546875 c 4
 542.095703125 628.615234375 531.631835938 606.883789062 512.374023438 587.625976562 c 4
 493.116210938 568.3671875 471.384765625 557.904296875 464.64453125 564.64453125 c 4
 427.309801825 601.979803031 404.036160828 639.758154823 409.879328659 685.130305222 c 5
 112.375 387.625976562 l 6
 93.1162109375 368.368164062 71.384765625 357.905273438 64.64453125 364.64453125 c 4
137.625976562 762.375 m 4
 156.883789062 781.631835938 178.615234375 792.095703125 185.35546875 785.35546875 c 6
 235.35546875 735.35546875 l 6
 242.095703125 728.615234375 231.6328125 706.883789062 212.375 687.625976562 c 4
 193.1171875 668.368164062 171.384765625 657.905273438 164.64453125 664.64453125 c 6
 114.645507812 714.64453125 l 6
 107.904296875 721.384765625 118.369140625 743.1171875 137.625976562 762.375 c 4
EndSplineSet
Validated: 33
EndChar

StartChar: e
Encoding: 101 101 57
Width: 300
VWidth: 0
Flags: W
LayerCount: 2
Back
SplineSet
500 800 m 21
 429.289321881 729.289321881 429.289321881 670.710678119 500 600 c 1037
100 400 m 29
 500 800 l 1045
EndSplineSet
Fore
SplineSet
64.64453125 364.64453125 m 0
 57.904296875 371.384765625 68.3681640625 393.1171875 87.6259765625 412.375 c 2
 487.625976562 812.375 l 2
 506.883789062 831.6328125 528.615234375 842.095703125 535.35546875 835.35546875 c 0
 542.095703125 828.615234375 531.6328125 806.883789062 512.375 787.625976562 c 0
 482.795898438 758.047851562 461.159179688 709.551757812 535.35546875 635.35546875 c 0
 542.095703125 628.615234375 531.631835938 606.883789062 512.374023438 587.625976562 c 0
 493.116210938 568.3671875 471.384765625 557.904296875 464.64453125 564.64453125 c 0
 427.309801825 601.979803031 404.036160828 639.758154823 409.879328659 685.130305222 c 1
 112.375 387.625976562 l 2
 93.1162109375 368.368164062 71.384765625 357.905273438 64.64453125 364.64453125 c 0
EndSplineSet
Validated: 33
EndChar

StartChar: I
Encoding: 73 73 58
Width: 300
VWidth: 0
Flags: W
LayerCount: 2
Back
SplineSet
500 600 m 4
 700 400 l 1053
500 800 m 1041
150 750 m 25
 200 700 l 1049
100 400 m 25
 500 800 l 1041
EndSplineSet
Fore
SplineSet
487.625976562 612.374023438 m 0
 506.8828125 631.631835938 528.615234375 642.095703125 535.35546875 635.35546875 c 2
 735.35546875 435.35546875 l 2
 742.095703125 428.615234375 731.6328125 406.883789062 712.374023438 387.625976562 c 0
 693.116210938 368.3671875 671.384765625 357.904296875 664.64453125 364.64453125 c 2
 464.64453125 564.64453125 l 2
 457.904296875 571.384765625 468.368164062 593.1171875 487.625976562 612.374023438 c 0
64.64453125 364.64453125 m 0
 57.904296875 371.384765625 68.3681640625 393.1171875 87.6259765625 412.375 c 2
 487.625976562 812.375 l 2
 507.141601562 831.890625 528.525390625 842.186523438 535.35546875 835.35546875 c 0
 542.186523438 828.525390625 531.890625 807.142578125 512.375 787.625976562 c 2
 112.375 387.625976562 l 2
 93.1162109375 368.368164062 71.384765625 357.905273438 64.64453125 364.64453125 c 0
137.625976562 762.375 m 0
 156.883789062 781.631835938 178.615234375 792.095703125 185.35546875 785.35546875 c 2
 235.35546875 735.35546875 l 2
 242.095703125 728.615234375 231.6328125 706.883789062 212.375 687.625976562 c 0
 193.1171875 668.368164062 171.384765625 657.905273438 164.64453125 664.64453125 c 2
 114.645507812 714.64453125 l 2
 107.904296875 721.384765625 118.369140625 743.1171875 137.625976562 762.375 c 0
EndSplineSet
Validated: 33
EndChar

StartChar: i
Encoding: 105 105 59
Width: 300
VWidth: 0
Flags: W
LayerCount: 2
Back
SplineSet
500 600 m 0
 700 400 l 1049
500 800 m 1041
100 400 m 25
 500 800 l 1041
EndSplineSet
Fore
SplineSet
487.625976562 612.374023438 m 0
 506.8828125 631.631835938 528.615234375 642.095703125 535.35546875 635.35546875 c 2
 735.35546875 435.35546875 l 2
 742.095703125 428.615234375 731.6328125 406.883789062 712.374023438 387.625976562 c 0
 693.116210938 368.3671875 671.384765625 357.904296875 664.64453125 364.64453125 c 2
 464.64453125 564.64453125 l 2
 457.904296875 571.384765625 468.368164062 593.1171875 487.625976562 612.374023438 c 0
64.64453125 364.64453125 m 0
 57.904296875 371.384765625 68.3681640625 393.1171875 87.6259765625 412.375 c 2
 487.625976562 812.375 l 2
 507.141601562 831.890625 528.525390625 842.186523438 535.35546875 835.35546875 c 0
 542.186523438 828.525390625 531.890625 807.142578125 512.375 787.625976562 c 2
 112.375 387.625976562 l 2
 93.1162109375 368.368164062 71.384765625 357.905273438 64.64453125 364.64453125 c 0
EndSplineSet
Validated: 33
EndChar

StartChar: O
Encoding: 79 79 60
Width: 300
VWidth: 0
Flags: HW
LayerCount: 2
Back
SplineSet
0 750 m 25
 50 700 l 1049
100 400 m 1
 285 586 l 0
 541 842 372 934 244 806 c 0
 102.579101563 664.579101563 358.578643763 458.578643763 500 600 c 1024
EndSplineSet
Fore
SplineSet
29 762.374023438 m 4
 48.2568359375 781.631835938 69.9892578125 792.095703125 76.7294921875 785.35546875 c 6
 126.729492188 735.35546875 l 6
 133.469726562 728.615234375 123.006835938 706.883789062 103.748046875 687.625976562 c 4
 84.490234375 668.3671875 62.7587890625 657.904296875 56.0185546875 664.64453125 c 6
 6.0185546875 714.64453125 l 6
 -0.7216796875 721.384765625 9.7421875 743.1171875 29 762.374023438 c 4
333.4140625 611.365234375 m 1
 399.838867188 576.564453125 471.587890625 596.336914062 487.625976562 612.374023438 c 0
 506.8828125 631.631835938 528.615234375 642.095703125 535.35546875 635.35546875 c 0
 542.095703125 628.615234375 531.631835938 606.8828125 512.374023438 587.625976562 c 0
 408.9453125 484.196289062 321.008789062 508.59375 263.529296875 539.59765625 c 1
 112.646484375 387.8984375 l 2
 93.44140625 368.588867188 71.62890625 357.958984375 64.7412109375 364.55078125 c 0
 57.8525390625 371.142578125 68.1484375 392.79296875 87.353515625 412.1015625 c 2
 233.596679688 559.135742188 l 1
 173.934570312 605.6796875 109.112304688 695.860351562 231.625976562 818.374023438 c 0
 326.977539062 913.7265625 406.930664062 913.802734375 438.036132812 882.459960938 c 0
 473.012695312 847.21484375 462.69921875 753.75 333.4140625 611.365234375 c 1
303.311523438 630.741210938 m 1
 384.37109375 721.608398438 395.134765625 783.725585938 367.291992188 811.782226562 c 0
 337.971679688 841.327148438 280.537109375 817.7890625 256.374023438 793.625 c 0
 235.701171875 772.952148438 231.493164062 686.768554688 303.311523438 630.741210938 c 1
EndSplineSet
EndChar

StartChar: o
Encoding: 111 111 61
Width: 300
VWidth: 0
Flags: W
LayerCount: 2
Back
SplineSet
100 400 m 1
 285 586 l 0
 541 842 372 934 244 806 c 0
 102.579101563 664.579101563 358.578643763 458.578643763 500 600 c 1024
EndSplineSet
Fore
SplineSet
333.4140625 611.365234375 m 1
 399.838867188 576.564453125 471.587890625 596.336914062 487.625976562 612.374023438 c 0
 506.8828125 631.631835938 528.615234375 642.095703125 535.35546875 635.35546875 c 0
 542.095703125 628.615234375 531.631835938 606.8828125 512.374023438 587.625976562 c 0
 408.9453125 484.196289062 321.008789062 508.59375 263.529296875 539.59765625 c 1
 112.646484375 387.8984375 l 2
 93.44140625 368.588867188 71.62890625 357.958984375 64.7412109375 364.55078125 c 0
 57.8525390625 371.142578125 68.1484375 392.79296875 87.353515625 412.1015625 c 2
 233.596679688 559.135742188 l 1
 173.934570312 605.6796875 109.112304688 695.860351562 231.625976562 818.374023438 c 0
 326.977539062 913.7265625 406.930664062 913.802734375 438.036132812 882.459960938 c 0
 473.012695312 847.21484375 462.69921875 753.75 333.4140625 611.365234375 c 1
303.311523438 630.741210938 m 1
 384.37109375 721.608398438 395.134765625 783.725585938 367.291992188 811.782226562 c 0
 337.971679688 841.327148438 280.537109375 817.7890625 256.374023438 793.625 c 0
 235.701171875 772.952148438 231.493164062 686.768554688 303.311523438 630.741210938 c 1
EndSplineSet
Validated: 33
EndChar

StartChar: u_u
Encoding: 284 -1 63
Width: 100
VWidth: 0
Flags: W
LayerCount: 2
Back
SplineSet
0 500 m 25
 200 700 l 1025
100 400 m 25
 400 700 l 1053
400 700 m 1041
EndSplineSet
Fore
SplineSet
64.64453125 364.64453125 m 0
 57.904296875 371.384765625 68.3681640625 393.1171875 87.6259765625 412.375 c 2
 387.625976562 712.374023438 l 2
 407.141601562 731.890625 428.524414062 742.185546875 435.35546875 735.35546875 c 0
 442.185546875 728.524414062 431.890625 707.141601562 412.374023438 687.625976562 c 2
 112.375 387.625976562 l 2
 93.1162109375 368.368164062 71.384765625 357.905273438 64.64453125 364.64453125 c 0
-35.35546875 464.64453125 m 0
 -42.0947265625 471.384765625 -31.6318359375 493.116210938 -12.3740234375 512.375 c 2
 187.625976562 712.375 l 2
 206.8828125 731.631835938 228.615234375 742.095703125 235.35546875 735.35546875 c 0
 242.095703125 728.615234375 231.631835938 706.8828125 212.375 687.625976562 c 2
 12.375 487.625976562 l 2
 -6.8837890625 468.368164062 -28.615234375 457.904296875 -35.35546875 464.64453125 c 0
EndSplineSet
Validated: 33
LCarets2: 1 50
Ligature2: "ligatures-1" u u
EndChar

StartChar: U_u
Encoding: 285 -1 64
Width: 100
VWidth: 0
Flags: HW
LayerCount: 2
Back
SplineSet
-50 750 m 25
 0 700 l 1049
0 500 m 25
 200 700 l 1025
100 400 m 25
 400 700 l 1049
400 700 m 1041
EndSplineSet
Fore
SplineSet
64.64453125 364.64453125 m 0
 57.904296875 371.384765625 68.3681640625 393.1171875 87.6259765625 412.375 c 2
 387.625976562 712.374023438 l 2
 407.141601562 731.890625 428.524414062 742.185546875 435.35546875 735.35546875 c 0
 442.185546875 728.524414062 431.890625 707.141601562 412.374023438 687.625976562 c 2
 112.375 387.625976562 l 2
 93.1162109375 368.368164062 71.384765625 357.905273438 64.64453125 364.64453125 c 0
-35.35546875 464.64453125 m 0
 -42.0947265625 471.384765625 -31.6318359375 493.116210938 -12.3740234375 512.375 c 2
 187.625976562 712.375 l 2
 206.8828125 731.631835938 228.615234375 742.095703125 235.35546875 735.35546875 c 0
 242.095703125 728.615234375 231.631835938 706.8828125 212.375 687.625976562 c 2
 12.375 487.625976562 l 2
 -6.8837890625 468.368164062 -28.615234375 457.904296875 -35.35546875 464.64453125 c 0
29 762.374023438 m 4
 48.2568359375 781.631835938 69.9892578125 792.095703125 76.7294921875 785.35546875 c 6
 126.729492188 735.35546875 l 6
 133.469726562 728.615234375 123.005859375 706.883789062 103.748046875 687.625976562 c 4
 84.490234375 668.3671875 62.7587890625 657.904296875 56.0185546875 664.64453125 c 6
 6.0185546875 714.64453125 l 6
 -0.7216796875 721.384765625 9.7421875 743.1171875 29 762.374023438 c 4
EndSplineSet
LCarets2: 1 50
Ligature2: "ligatures-1" U u
EndChar

StartChar: E_e
Encoding: 286 -1 65
Width: 100
VWidth: 0
Flags: W
LayerCount: 2
Back
SplineSet
100 750 m 29
 150 700 l 1053
500 800 m 1045
100 400 m 29
 500 800 l 1045
EndSplineSet
Fore
SplineSet
64.64453125 364.64453125 m 0
 57.904296875 371.384765625 68.3681640625 393.1171875 87.6259765625 412.375 c 2
 487.625976562 812.375 l 2
 507.141601562 831.890625 528.525390625 842.186523438 535.35546875 835.35546875 c 0
 542.186523438 828.525390625 531.890625 807.142578125 512.375 787.625976562 c 2
 112.375 387.625976562 l 2
 93.1162109375 368.368164062 71.384765625 357.905273438 64.64453125 364.64453125 c 0
87.6259765625 762.375 m 0
 106.8828125 781.631835938 128.615234375 792.095703125 135.35546875 785.35546875 c 2
 185.35546875 735.35546875 l 2
 192.095703125 728.615234375 181.6328125 706.883789062 162.374023438 687.625976562 c 0
 143.116210938 668.368164062 121.384765625 657.905273438 114.64453125 664.64453125 c 2
 64.64453125 714.64453125 l 2
 57.904296875 721.384765625 68.3681640625 743.1171875 87.6259765625 762.375 c 0
EndSplineSet
Validated: 33
LCarets2: 1 50
Ligature2: "ligatures-1" E e
EndChar

StartChar: e_e
Encoding: 287 -1 66
Width: 100
VWidth: 0
Flags: W
LayerCount: 2
Back
SplineSet
100 400 m 25
 500 800 l 1041
EndSplineSet
Fore
SplineSet
64.64453125 364.64453125 m 0
 57.904296875 371.384765625 68.3681640625 393.1171875 87.6259765625 412.375 c 2
 487.625976562 812.375 l 2
 507.141601562 831.890625 528.525390625 842.186523438 535.35546875 835.35546875 c 0
 542.186523438 828.525390625 531.890625 807.142578125 512.375 787.625976562 c 2
 112.375 387.625976562 l 2
 93.1162109375 368.368164062 71.384765625 357.905273438 64.64453125 364.64453125 c 0
EndSplineSet
Validated: 33
LCarets2: 1 50
Ligature2: "ligatures-1" e e
EndChar

StartChar: A_a
Encoding: 288 -1 67
Width: 450
VWidth: 0
Flags: W
LayerCount: 2
Back
SplineSet
500 600 m 1
 606.066017178 706.066017178 506.066017178 806.066017178 400 700 c 9
 100 400 l 1025
150 750 m 25
 200 700 l 1049
EndSplineSet
Fore
SplineSet
464.64453125 564.64453125 m 0
 457.904296875 571.384765625 468.368164062 593.116210938 487.625976562 612.374023438 c 0
 502.950195312 627.69921875 519.584960938 668.640625 494.29296875 694.094726562 c 0
 468.912109375 719.638671875 427.756835938 703.0078125 412.374023438 687.625976562 c 2
 112.375 387.625976562 l 2
 93.1171875 368.368164062 71.384765625 357.904296875 64.64453125 364.64453125 c 0
 57.904296875 371.384765625 68.3681640625 393.1171875 87.6259765625 412.375 c 2
 387.625976562 712.374023438 l 2
 478.46875 803.217773438 540.497070312 789.469726562 565.03125 764.778320312 c 0
 589.50390625 740.1484375 602.956054688 678.20703125 512.374023438 587.625976562 c 0
 493.116210938 568.3671875 471.384765625 557.904296875 464.64453125 564.64453125 c 0
137.625976562 762.375 m 0
 156.883789062 781.631835938 178.615234375 792.095703125 185.35546875 785.35546875 c 2
 235.35546875 735.35546875 l 2
 242.095703125 728.615234375 231.6328125 706.883789062 212.375 687.625976562 c 0
 193.1171875 668.368164062 171.384765625 657.905273438 164.64453125 664.64453125 c 2
 114.645507812 714.64453125 l 2
 107.904296875 721.384765625 118.369140625 743.1171875 137.625976562 762.375 c 0
EndSplineSet
Validated: 33
LCarets2: 1 238
Ligature2: "ligatures-1" A a
EndChar

StartChar: a_a
Encoding: 289 -1 68
Width: 450
VWidth: 0
Flags: W
LayerCount: 2
Back
SplineSet
500 600 m 1
 606.066017178 706.066017178 506.066017178 806.066017178 400 700 c 9
 100 400 l 1025
EndSplineSet
Fore
SplineSet
464.64453125 564.64453125 m 0
 457.904296875 571.384765625 468.368164062 593.116210938 487.625976562 612.374023438 c 0
 502.950195312 627.69921875 519.584960938 668.640625 494.29296875 694.094726562 c 0
 468.912109375 719.638671875 427.756835938 703.0078125 412.374023438 687.625976562 c 2
 112.375 387.625976562 l 2
 93.1171875 368.368164062 71.384765625 357.904296875 64.64453125 364.64453125 c 0
 57.904296875 371.384765625 68.3681640625 393.1171875 87.6259765625 412.375 c 2
 387.625976562 712.374023438 l 2
 478.46875 803.217773438 540.497070312 789.469726562 565.03125 764.778320312 c 0
 589.50390625 740.1484375 602.956054688 678.20703125 512.374023438 587.625976562 c 0
 493.116210938 568.3671875 471.384765625 557.904296875 464.64453125 564.64453125 c 0
EndSplineSet
Validated: 33
LCarets2: 1 238
Ligature2: "ligatures-1" a a
EndChar

StartChar: A_e
Encoding: 290 -1 69
Width: 300
VWidth: 0
Flags: HW
LayerCount: 2
Back
SplineSet
-93 750 m 29
 -43 700 l 1053
300 800 m 4
 441.421356237 941.421356237 641.421356237 741.421356237 500 600 c 4
 358.578643763 458.578643763 158.578643763 658.578643763 300 800 c 4
EndSplineSet
Fore
SplineSet
55 762.374023438 m 4
 74.2568359375 781.631835938 95.9892578125 792.095703125 102.729492188 785.35546875 c 6
 152.729492188 735.35546875 l 6
 159.469726562 728.615234375 149.006835938 706.883789062 129.748046875 687.625976562 c 4
 110.490234375 668.368164062 88.7587890625 657.904296875 82.0185546875 664.64453125 c 6
 32.0185546875 714.64453125 l 6
 25.2783203125 721.384765625 35.7421875 743.1171875 55 762.374023438 c 4
312.374023438 787.625976562 m 0
 288.124023438 763.375 275.458984375 682.98046875 329.420898438 629.158203125 c 0
 383.282226562 575.435546875 463.453125 588.201171875 487.625976562 612.374023438 c 0
 511.875976562 636.625 524.541015625 717.01953125 470.579101562 770.841796875 c 0
 416.717773438 824.564453125 336.546875 811.797851562 312.374023438 787.625976562 c 0
287.625976562 812.374023438 m 0
 404.745117188 929.494140625 495.102539062 887.62109375 541.278320312 841.563476562 c 0
 587.538085938 795.423828125 629.674804688 704.92578125 512.374023438 587.625976562 c 0
 395.254882812 470.505859375 304.897460938 512.37890625 258.721679688 558.436523438 c 0
 212.461914062 604.576171875 170.325195312 695.07421875 287.625976562 812.374023438 c 0
EndSplineSet
LCarets2: 1 150
Ligature2: "ligatures-1" A e
EndChar

StartChar: a_e
Encoding: 291 -1 70
Width: 300
VWidth: 0
Flags: W
LayerCount: 2
Back
SplineSet
300 800 m 4
 441.421356237 941.421356237 641.421356237 741.421356237 500 600 c 4
 358.578643763 458.578643763 158.578643763 658.578643763 300 800 c 4
EndSplineSet
Fore
SplineSet
312.374023438 787.625976562 m 0
 288.124023438 763.375 275.458984375 682.98046875 329.420898438 629.158203125 c 0
 383.282226562 575.435546875 463.453125 588.201171875 487.625976562 612.374023438 c 0
 511.875976562 636.625 524.541015625 717.01953125 470.579101562 770.841796875 c 0
 416.717773438 824.564453125 336.546875 811.797851562 312.374023438 787.625976562 c 0
287.625976562 812.374023438 m 0
 404.745117188 929.494140625 495.102539062 887.62109375 541.278320312 841.563476562 c 0
 587.538085938 795.423828125 629.674804688 704.92578125 512.374023438 587.625976562 c 0
 395.254882812 470.505859375 304.897460938 512.37890625 258.721679688 558.436523438 c 0
 212.461914062 604.576171875 170.325195312 695.07421875 287.625976562 812.374023438 c 0
EndSplineSet
Validated: 33
LCarets2: 1 150
Ligature2: "ligatures-1" a e
EndChar

StartChar: quotesingle
Encoding: 39 39 71
Width: 300
VWidth: 0
Flags: W
VStem: 365.133 171.438
LayerCount: 2
Back
SplineSet
400 500 m 29
 400 500 475 577 500 600 c 1052
EndSplineSet
Fore
SplineSet
365.1328125 464.20703125 m 0
 357.676757812 470.221679688 367.3203125 491.546875 386.3125 511.043945312 c 0
 387.470703125 512.233398438 459.611328125 586.76953125 491.892578125 616.467773438 c 0
 511.811523438 634.79296875 532.154296875 642.614257812 536.5703125 633.64453125 c 0
 540.986328125 624.674804688 528.02734375 601.858398438 508.107421875 583.532226562 c 0
 489.48828125 566.40234375 413.688476562 488.95703125 413.688476562 488.95703125 c 2
 394.6953125 469.459960938 372.587890625 458.19140625 365.1328125 464.20703125 c 0
EndSplineSet
Validated: 33
EndChar

StartChar: E_o
Encoding: 292 -1 72
Width: 700
VWidth: 0
Flags: W
LayerCount: 2
Back
SplineSet
150 750 m 29
 200 700 l 1053
900 600 m 0
 622.743431097 322.743431097 521.162109375 692.038085938 665 831 c 0
 783 945 920.552734375 846.6875 869 761 c 0
 735.3203125 538.806640625 251 533 500 800 c 1
 100 400 l 1025
EndSplineSet
Fore
SplineSet
137.625976562 762.375 m 0
 156.883789062 781.631835938 178.615234375 792.095703125 185.35546875 785.35546875 c 2
 235.35546875 735.35546875 l 2
 242.095703125 728.615234375 231.6328125 706.883789062 212.375 687.625976562 c 0
 193.1171875 668.368164062 171.384765625 657.905273438 164.64453125 664.64453125 c 2
 114.645507812 714.64453125 l 2
 107.904296875 721.384765625 118.369140625 743.1171875 137.625976562 762.375 c 0
572.46875 562.987304688 m 1
 563.118164062 561.69140625 553.828125 560.7265625 544.94921875 560.13671875 c 0
 451.729492188 553.94140625 373.158203125 582.560546875 396.438476562 671.690429688 c 1
 112.375 387.625976562 l 2
 93.1171875 368.368164062 71.384765625 357.904296875 64.64453125 364.64453125 c 0
 57.904296875 371.384765625 68.3681640625 393.1171875 87.6259765625 412.375 c 2
 487.625976562 812.375 l 2
 503.48046875 828.229492188 523.538085938 839.901367188 532.608398438 836.987304688 c 0
 543.205078125 833.583007812 535.336914062 812.12109375 515.8203125 791.193359375 c 0
 513.844726562 789.076171875 511.958984375 787.009765625 510.155273438 784.994140625 c 0
 457.754882812 726.407226562 451.958007812 677.827148438 500.153320312 651.161132812 c 0
 516.31640625 642.217773438 537.834960938 636.771484375 562.44140625 634.966796875 c 1
 562.637695312 693.388671875 576.625 769.979492188 654.380859375 845.099609375 c 0
 691.739257812 881.19140625 727.604492188 901.28515625 755.716796875 910.905273438 c 0
 860.302734375 946.698242188 963.849609375 878.240234375 899.567382812 771.393554688 c 0
 840.786132812 673.692382812 740.212890625 613.471679688 665.248046875 586.275390625 c 1
 708.772460938 518.466796875 788.889648438 518.34375 878.145507812 603.12890625 c 0
 881.234375 606.063476562 884.393554688 609.142578125 887.625976562 612.374023438 c 0
 906.883789062 631.631835938 928.615234375 642.095703125 935.35546875 635.35546875 c 0
 942.095703125 628.615234375 931.6328125 606.883789062 912.374023438 587.625976562 c 0
 900.447265625 575.698242188 888.533203125 564.508789062 876.702148438 554.125976562 c 0
 703.122070312 401.78515625 611.9296875 463.595703125 578.752929688 545.129882812 c 0
 576.450195312 550.7890625 574.321289062 556.861328125 572.46875 562.987304688 c 1
643.231445312 640.321289062 m 1
 651.1171875 641.79296875 659.116210938 643.536132812 666.979492188 645.501953125 c 0
 750.393554688 666.360351562 809.264648438 708.020507812 832.905273438 742.05859375 c 0
 834.743164062 744.704101562 836.590820312 747.543945312 838.432617188 750.606445312 c 0
 857.318359375 781.99609375 797.950195312 868.203125 712.55859375 838.98046875 c 0
 695.12890625 833.014648438 683.896484375 824.897460938 675.620117188 816.901367188 c 0
 661.345703125 803.111328125 629.426757812 732.5 639.649414062 659.62890625 c 0
 640.557617188 653.159179688 641.770507812 646.629882812 643.231445312 640.321289062 c 1
EndSplineSet
Validated: 33
LCarets2: 1 500
Ligature2: "ligatures-1" E o
EndChar

StartChar: e_o
Encoding: 293 -1 73
Width: 700
VWidth: 0
Flags: W
LayerCount: 2
Back
SplineSet
900 600 m 4
 622.743431097 322.743431097 521.162109375 692.038085938 665 831 c 4
 783 945 920.552734375 846.6875 869 761 c 4
 735.3203125 538.806640625 251 533 500 800 c 5
 100 400 l 1029
EndSplineSet
Fore
SplineSet
572.46875 562.987304688 m 1
 563.118164062 561.69140625 553.828125 560.7265625 544.94921875 560.13671875 c 0
 451.729492188 553.94140625 373.158203125 582.560546875 396.438476562 671.690429688 c 1
 112.375 387.625976562 l 2
 93.1171875 368.368164062 71.384765625 357.904296875 64.64453125 364.64453125 c 0
 57.904296875 371.384765625 68.3681640625 393.1171875 87.6259765625 412.375 c 2
 487.625976562 812.375 l 2
 503.48046875 828.229492188 523.538085938 839.901367188 532.608398438 836.987304688 c 0
 543.205078125 833.583007812 535.336914062 812.12109375 515.8203125 791.193359375 c 0
 513.844726562 789.076171875 511.958984375 787.009765625 510.155273438 784.994140625 c 0
 457.754882812 726.407226562 451.958007812 677.827148438 500.153320312 651.161132812 c 0
 516.31640625 642.217773438 537.834960938 636.771484375 562.44140625 634.966796875 c 1
 562.637695312 693.388671875 576.625 769.979492188 654.380859375 845.099609375 c 0
 691.739257812 881.19140625 727.604492188 901.28515625 755.716796875 910.905273438 c 0
 860.302734375 946.698242188 963.849609375 878.240234375 899.567382812 771.393554688 c 0
 840.786132812 673.692382812 740.212890625 613.471679688 665.248046875 586.275390625 c 1
 708.772460938 518.466796875 788.889648438 518.34375 878.145507812 603.12890625 c 0
 881.234375 606.063476562 884.393554688 609.142578125 887.625976562 612.374023438 c 0
 906.883789062 631.631835938 928.615234375 642.095703125 935.35546875 635.35546875 c 0
 942.095703125 628.615234375 931.6328125 606.883789062 912.374023438 587.625976562 c 0
 900.447265625 575.698242188 888.533203125 564.508789062 876.702148438 554.125976562 c 0
 703.122070312 401.78515625 611.9296875 463.595703125 578.752929688 545.129882812 c 0
 576.450195312 550.7890625 574.321289062 556.861328125 572.46875 562.987304688 c 1
643.231445312 640.321289062 m 1
 651.1171875 641.79296875 659.116210938 643.536132812 666.979492188 645.501953125 c 0
 750.393554688 666.360351562 809.264648438 708.020507812 832.905273438 742.05859375 c 0
 834.743164062 744.704101562 836.590820312 747.543945312 838.432617188 750.606445312 c 0
 857.318359375 781.99609375 797.950195312 868.203125 712.55859375 838.98046875 c 0
 695.12890625 833.014648438 683.896484375 824.897460938 675.620117188 816.901367188 c 0
 661.345703125 803.111328125 629.426757812 732.5 639.649414062 659.62890625 c 0
 640.557617188 653.159179688 641.770507812 646.629882812 643.231445312 640.321289062 c 1
EndSplineSet
Validated: 33
LCarets2: 1 500
Ligature2: "ligatures-1" e o
EndChar

StartChar: A_i
Encoding: 294 -1 74
Width: 750
VWidth: 0
Flags: W
HStem: 562.543 75.2695<553.851 669.74>
LayerCount: 2
Back
SplineSet
100 400 m 1
 400 700 l 17
 506.066017178 806.066017178 606.066017178 706.066017178 500 600 c 1
 500 600 797.481270558 598.33359454 887 689 c 0
 1121 926 591 974 726 623 c 1024
150 750 m 25
 200 700 l 1049
EndSplineSet
Fore
SplineSet
672.212890625 646.01953125 m 1
 657.208984375 716.581054688 663.310546875 779.08203125 730.83984375 846.991210938 c 0
 736.212890625 852.39453125 741.752929688 857.506835938 747.23828125 862.180664062 c 0
 858.373046875 956.879882812 968.865234375 915.15625 983.2421875 846.100585938 c 0
 990.528320312 811.10546875 973.708007812 751.908203125 900.015625 677.270507812 c 0
 824.192382812 600.475585938 734.610351562 588.66015625 662.97265625 577.458007812 c 0
 563.79296875 561.948242188 471.841796875 562.53515625 470.424804688 562.54296875 c 0
 470.091796875 562.5546875 466.884765625 563.048828125 465.724609375 563.782226562 c 0
 457.0390625 569.279296875 467.302734375 592.051757812 487.625976562 612.374023438 c 0
 503.0078125 627.756835938 519.638671875 668.912109375 494.094726562 694.29296875 c 0
 468.640625 719.584960938 427.69921875 702.950195312 412.374023438 687.625976562 c 2
 112.375 387.625976562 l 2
 93.1162109375 368.368164062 71.384765625 357.905273438 64.64453125 364.64453125 c 0
 57.904296875 371.384765625 68.3681640625 393.1171875 87.6259765625 412.375 c 2
 387.625976562 712.374023438 l 2
 427.181640625 751.930664062 464.978515625 772.162109375 491.76171875 779.111328125 c 0
 565.841796875 798.333007812 621.709960938 741.036132812 553.850585938 637.8125 c 1
 580.083984375 638.502929688 623.571289062 640.477539062 672.212890625 646.01953125 c 1
761.25390625 660.212890625 m 1
 815.891601562 671.897460938 864.51171875 693.434570312 874.674804688 701.430664062 c 1
 896.546875 723.759765625 906.8125 741.303710938 909.49609375 762.497070312 c 0
 919.172851562 838.909179688 793.69140625 850.037109375 756.251953125 822.79296875 c 1
 747.265625 810.022460938 728.283203125 748.9140625 761.25390625 660.212890625 c 1
137.625976562 762.375 m 0
 156.883789062 781.631835938 178.615234375 792.095703125 185.35546875 785.35546875 c 2
 235.35546875 735.35546875 l 2
 242.095703125 728.615234375 231.6328125 706.883789062 212.375 687.625976562 c 0
 193.1171875 668.368164062 171.384765625 657.905273438 164.64453125 664.64453125 c 2
 114.645507812 714.64453125 l 2
 107.904296875 721.384765625 118.369140625 743.1171875 137.625976562 762.375 c 0
EndSplineSet
Validated: 33
LCarets2: 1 500
Ligature2: "ligatures-1" A i
EndChar

StartChar: a_i
Encoding: 295 -1 75
Width: 750
VWidth: 0
Flags: W
HStem: 562.543 75.2695<553.851 669.74>
LayerCount: 2
Back
SplineSet
100 400 m 1
 400 700 l 17
 506.066017178 806.066017178 606.066017178 706.066017178 500 600 c 1
 500 600 797.481270558 598.33359454 887 689 c 0
 1121 926 591 974 726 623 c 1024
EndSplineSet
Fore
SplineSet
672.212890625 646.01953125 m 1
 657.208984375 716.581054688 663.310546875 779.08203125 730.83984375 846.991210938 c 0
 736.212890625 852.39453125 741.752929688 857.506835938 747.23828125 862.180664062 c 0
 858.373046875 956.879882812 968.865234375 915.15625 983.2421875 846.100585938 c 0
 990.528320312 811.10546875 973.708007812 751.908203125 900.015625 677.270507812 c 0
 824.192382812 600.475585938 734.610351562 588.66015625 662.97265625 577.458007812 c 0
 563.79296875 561.948242188 471.841796875 562.53515625 470.424804688 562.54296875 c 0
 470.091796875 562.5546875 466.884765625 563.048828125 465.724609375 563.782226562 c 0
 457.0390625 569.279296875 467.302734375 592.051757812 487.625976562 612.374023438 c 0
 503.0078125 627.756835938 519.638671875 668.912109375 494.094726562 694.29296875 c 0
 468.640625 719.584960938 427.69921875 702.950195312 412.374023438 687.625976562 c 2
 112.375 387.625976562 l 2
 93.1162109375 368.368164062 71.384765625 357.905273438 64.64453125 364.64453125 c 0
 57.904296875 371.384765625 68.3681640625 393.1171875 87.6259765625 412.375 c 2
 387.625976562 712.374023438 l 2
 427.181640625 751.930664062 464.978515625 772.162109375 491.76171875 779.111328125 c 0
 565.841796875 798.333007812 621.709960938 741.036132812 553.850585938 637.8125 c 1
 580.083984375 638.502929688 623.571289062 640.477539062 672.212890625 646.01953125 c 1
761.25390625 660.212890625 m 1
 815.891601562 671.897460938 864.51171875 693.434570312 874.674804688 701.430664062 c 1
 896.546875 723.759765625 906.8125 741.303710938 909.49609375 762.497070312 c 0
 919.172851562 838.909179688 793.69140625 850.037109375 756.251953125 822.79296875 c 1
 747.265625 810.022460938 728.283203125 748.9140625 761.25390625 660.212890625 c 1
EndSplineSet
Validated: 33
LCarets2: 1 500
Ligature2: "ligatures-1" a i
EndChar

StartChar: O_i
Encoding: 296 -1 76
Width: 500
VWidth: 0
Flags: W
LayerCount: 2
Back
SplineSet
0 750 m 25
 50 700 l 1049
100 400 m 1
 285 586 l 0
 541 842 372 934 244 806 c 0
 102.579101563 664.579101563 431 421 596 586 c 0
 852 842 683 934 555 806 c 0
 413.579101562 664.579101562 547 537 596 586 c 1024
EndSplineSet
Fore
SplineSet
-12.3740234375 762.374023438 m 0
 6.8828125 781.631835938 28.615234375 792.095703125 35.35546875 785.35546875 c 2
 85.35546875 735.35546875 l 2
 92.095703125 728.615234375 81.6328125 706.883789062 62.3740234375 687.625976562 c 0
 43.1162109375 668.3671875 21.384765625 657.904296875 14.64453125 664.64453125 c 2
 -35.35546875 714.64453125 l 2
 -42.095703125 721.384765625 -31.6318359375 743.1171875 -12.3740234375 762.374023438 c 0
339.000976562 617.564453125 m 1
 381.03125 588.83984375 433.116210938 569.809570312 482.46484375 568.2890625 c 1
 450.4140625 606.211914062 417.788085938 693.537109375 542.625 818.374023438 c 0
 637.977539062 913.7265625 717.930664062 913.802734375 749.036132812 882.459960938 c 0
 787.375 843.827148438 769.779296875 735.030273438 608.374023438 573.625 c 0
 574.6640625 539.915039062 541.047851562 520.053710938 513.499023438 509.098632812 c 0
 423.547851562 473.326171875 336.177734375 500.05859375 269.600585938 545.701171875 c 1
 112.646484375 387.8984375 l 2
 93.44140625 368.588867188 71.62890625 357.958984375 64.7412109375 364.55078125 c 0
 57.8525390625 371.142578125 68.1484375 392.79296875 87.353515625 412.1015625 c 2
 241.77734375 567.360351562 l 1
 182.142578125 619.956054688 117.390625 704.139648438 231.625976562 818.374023438 c 0
 326.977539062 913.7265625 406.930664062 913.802734375 438.036132812 882.459960938 c 0
 472.45703125 847.774414062 463.150390625 756.735351562 339.000976562 617.564453125 c 1
310.9609375 639.453125 m 1
 384.79296875 725.111328125 394.330078125 784.537109375 367.291992188 811.782226562 c 0
 337.971679688 841.327148438 280.537109375 817.7890625 256.374023438 793.625 c 0
 256.341796875 793.592773438 256.323242188 793.57421875 256.318359375 793.568359375 c 0
 242.684570312 776.99609375 245.3515625 697.858398438 310.9609375 639.453125 c 1
597.728515625 612.802734375 m 1
 695.125976562 714.966796875 707.752929688 782.094726562 678.291992188 811.782226562 c 0
 648.971679688 841.327148438 591.537109375 817.7890625 567.374023438 793.625 c 0
 562.877929688 789.12890625 559.266601562 785.071289062 556.025390625 781.015625 c 0
 503.498046875 715.30078125 546.9765625 615.17578125 597.728515625 612.802734375 c 1
EndSplineSet
Validated: 33
LCarets2: 1 280
Ligature2: "ligatures-1" O i
EndChar

StartChar: o_i
Encoding: 297 -1 77
Width: 500
VWidth: 0
Flags: W
LayerCount: 2
Back
SplineSet
100 400 m 1
 285 586 l 0
 541 842 372 934 244 806 c 0
 102.579101563 664.579101563 431 421 596 586 c 0
 852 842 683 934 555 806 c 0
 413.579101562 664.579101562 547 537 596 586 c 1024
EndSplineSet
Fore
SplineSet
339.000976562 617.564453125 m 1
 381.03125 588.83984375 433.116210938 569.809570312 482.46484375 568.2890625 c 1
 450.4140625 606.211914062 417.788085938 693.537109375 542.625 818.374023438 c 0
 637.977539062 913.7265625 717.930664062 913.802734375 749.036132812 882.459960938 c 0
 787.375 843.827148438 769.779296875 735.030273438 608.374023438 573.625 c 0
 574.6640625 539.915039062 541.047851562 520.053710938 513.499023438 509.098632812 c 0
 423.547851562 473.326171875 336.177734375 500.05859375 269.600585938 545.701171875 c 1
 112.646484375 387.8984375 l 2
 93.44140625 368.588867188 71.62890625 357.958984375 64.7412109375 364.55078125 c 0
 57.8525390625 371.142578125 68.1484375 392.79296875 87.353515625 412.1015625 c 2
 241.77734375 567.360351562 l 1
 182.142578125 619.956054688 117.390625 704.139648438 231.625976562 818.374023438 c 0
 326.977539062 913.7265625 406.930664062 913.802734375 438.036132812 882.459960938 c 0
 472.45703125 847.774414062 463.150390625 756.735351562 339.000976562 617.564453125 c 1
310.9609375 639.453125 m 1
 384.79296875 725.111328125 394.330078125 784.537109375 367.291992188 811.782226562 c 0
 337.971679688 841.327148438 280.537109375 817.7890625 256.374023438 793.625 c 0
 256.341796875 793.592773438 256.323242188 793.57421875 256.318359375 793.568359375 c 0
 242.684570312 776.99609375 245.3515625 697.858398438 310.9609375 639.453125 c 1
597.728515625 612.802734375 m 1
 695.125976562 714.966796875 707.752929688 782.094726562 678.291992188 811.782226562 c 0
 648.971679688 841.327148438 591.537109375 817.7890625 567.374023438 793.625 c 0
 562.877929688 789.12890625 559.266601562 785.071289062 556.025390625 781.015625 c 0
 503.498046875 715.30078125 546.9765625 615.17578125 597.728515625 612.802734375 c 1
EndSplineSet
Validated: 33
LCarets2: 1 280
Ligature2: "ligatures-1" o i
EndChar

StartChar: a_o
Encoding: 298 -1 78
Width: 600
VWidth: 0
Flags: W
LayerCount: 2
Back
SplineSet
568 586 m 0
 497.2890625 515.2890625 308.7109375 467.2890625 238 538 c 1024
100 398 m 0
 100 400 300 600 300 600 c 17
 370.710678119 670.710678119 370.710678119 729.289321881 300 800 c 1025
568 586 m 0
 824 842 655 934 527 806 c 0
 385.579101562 664.579101562 658.579101562 460.579101562 800 602 c 1024
EndSplineSet
Fore
SplineSet
590.181640625 635.109375 m 1
 667.404296875 723.258789062 677.70703125 784.157226562 650.291992188 811.782226562 c 0
 620.971679688 841.327148438 563.537109375 817.7890625 539.374023438 793.625976562 c 0
 521.149414062 775.401367188 517.1953125 691.948242188 590.181640625 635.109375 c 1
620.174804688 615.525390625 m 1
 692.198242188 576.447265625 765.896484375 595.270507812 783 612.374023438 c 0
 802.2578125 631.631835938 823.989257812 642.095703125 830.73046875 635.35546875 c 0
 837.470703125 628.615234375 827.006835938 606.8828125 807.749023438 587.625 c 0
 700.680664062 480.557617188 611.049790319 508.356663658 547.96277732 545.080268129 c 1
 440.437409129 461.539657811 288.189586606 440.729639476 216.258584843 491.252222069 c 1
 174.769311925 449.563137248 132.728356831 407.168879238 119.634765625 393.452148438 c 0
 114.416992188 387.448242188 106.987304688 380.102539062 100.002929688 374.642578125 c 0
 79.599609375 358.692382812 62.54296875 355.993164062 62.5419921875 368.715820312 c 0
 62.5380859375 410.65234375 287.625976562 612.375 287.625976562 612.375 c 2
 317.204101562 641.953125 338.840820312 690.448242188 264.64453125 764.64453125 c 0
 257.904296875 771.384765625 268.368164062 793.116210938 287.625976562 812.374023438 c 0
 306.883789062 831.631835938 328.615234375 842.095703125 335.35546875 835.35546875 c 0
 402.580078125 768.130859375 424.217773438 699.46875 312.375 587.625976562 c 2
 312.375 587.625976562 302.43481901 577.680775458 287.021401711 562.239700083 c 1
 344.203911387 524.478431066 447.519210239 547.292259941 509.091170986 572.528997387 c 1
 450.513741939 622.075626534 402.688131618 706.437049762 514.625976562 818.374023438 c 0
 609.977539062 913.7265625 689.930664062 913.802734375 721.036132812 882.459960938 c 0
 755.665039062 847.565429688 746.157226562 755.809570312 620.174804688 615.525390625 c 1
EndSplineSet
Validated: 33
LCarets2: 1 400
Ligature2: "ligatures-1" a o
EndChar

StartChar: A_o
Encoding: 299 -1 79
Width: 600
VWidth: 0
Flags: HW
LayerCount: 2
Back
SplineSet
568 586 m 4
 497.2890625 515.2890625 308.7109375 467.2890625 238 538 c 1028
100 398 m 4
 100 400 300 600 300 600 c 21
 370.710678119 670.710678119 370.710678119 729.289321881 300 800 c 1029
0 750 m 29
 50 700 l 1053
568 586 m 4
 824 842 655 934 527 806 c 4
 385.579101562 664.579101562 660.579101562 458.579101562 802 600 c 1028
EndSplineSet
Fore
SplineSet
590.181640625 635.109375 m 1
 667.404296875 723.258789062 677.70703125 784.157226562 650.291992188 811.782226562 c 0
 620.971679688 841.327148438 563.537109375 817.7890625 539.374023438 793.625976562 c 0
 521.149414062 775.401367188 517.1953125 691.948242188 590.181640625 635.109375 c 1
620.174804688 615.525390625 m 1
 692.198242188 576.447265625 765.896484375 595.270507812 783 612.374023438 c 0
 802.2578125 631.631835938 823.989257812 642.095703125 830.73046875 635.35546875 c 0
 837.470703125 628.615234375 827.006835938 606.8828125 807.749023438 587.625 c 0
 700.680664062 480.557617188 611.049790319 508.356663658 547.96277732 545.080268129 c 1
 440.437409129 461.539657811 288.189586606 440.729639476 216.258584843 491.252222069 c 1
 174.769311925 449.563137248 132.728356831 407.168879238 119.634765625 393.452148438 c 0
 114.416992188 387.448242188 106.987304688 380.102539062 100.002929688 374.642578125 c 0
 79.599609375 358.692382812 62.54296875 355.993164062 62.5419921875 368.715820312 c 0
 62.5380859375 410.65234375 287.625976562 612.375 287.625976562 612.375 c 2
 317.204101562 641.953125 338.840820312 690.448242188 264.64453125 764.64453125 c 0
 257.904296875 771.384765625 268.368164062 793.116210938 287.625976562 812.374023438 c 0
 306.883789062 831.631835938 328.615234375 842.095703125 335.35546875 835.35546875 c 0
 402.580078125 768.130859375 424.217773438 699.46875 312.375 587.625976562 c 2
 312.375 587.625976562 302.43481901 577.680775458 287.021401711 562.239700083 c 1
 344.203911387 524.478431066 447.519210239 547.292259941 509.091170986 572.528997387 c 1
 450.513741939 622.075626534 402.688131618 706.437049762 514.625976562 818.374023438 c 0
 609.977539062 913.7265625 689.930664062 913.802734375 721.036132812 882.459960938 c 0
 755.665039062 847.565429688 746.157226562 755.809570312 620.174804688 615.525390625 c 1
83 762.374023438 m 4
 102.256835938 781.631835938 123.989257812 792.095703125 130.729492188 785.35546875 c 6
 180.729492188 735.35546875 l 6
 187.469726562 728.615234375 177.006835938 706.883789062 157.748046875 687.625976562 c 4
 138.490234375 668.3671875 116.758789062 657.904296875 110.018554688 664.64453125 c 6
 60.0185546875 714.64453125 l 6
 53.2783203125 721.384765625 63.7421875 743.1171875 83 762.374023438 c 4
EndSplineSet
LCarets2: 1 400
Ligature2: "ligatures-1" A o
EndChar

StartChar: S
Encoding: 83 83 80
Width: 350
VWidth: 0
Flags: HW
LayerCount: 2
Back
SplineSet
650 0 m 5
 525 125 l 4
 600 200 l 4
 200 600 l 1029
EndSplineSet
Fore
SplineSet
662.374023438 -12.375 m 0
 643.1171875 -31.6318359375 621.384765625 -42.095703125 614.64453125 -35.35546875 c 2
 489.64453125 89.64453125 l 2
 482.154296875 97.134765625 497.451171875 122.200195312 512.625 137.374023438 c 2
 552.270507812 177.01953125 l 1
 164.64453125 564.64453125 l 2
 157.904296875 571.384765625 168.368164062 593.116210938 187.625976562 612.374023438 c 0
 206.883789062 631.6328125 228.615234375 642.095703125 235.35546875 635.35546875 c 2
 635.35546875 235.35546875 l 2
 640.666015625 230.043945312 633.775390625 209.026367188 612.374023438 187.625976562 c 2
 572.729492188 147.98046875 l 1
 685.35546875 35.35546875 l 2
 692.095703125 28.615234375 681.631835938 6.8828125 662.374023438 -12.375 c 0
EndSplineSet
Substitution2: "do-linkfrom-1" S.lin
Substitution2: "do-link-1" S.lin
Substitution2: "do-backlink-1" s
EndChar

StartChar: s
Encoding: 115 115 81
Width: 700
VWidth: 0
Flags: HW
LayerCount: 2
Back
SplineSet
600 200 m 1024
650 0 m 1,0,-1
 525 125 l 0,0,0
 600 200 l 0,0,0
 500 300 l 1
 323.223304703 476.776695297 206.066017178 506.066017178 100 400 c 1024
EndSplineSet
Fore
SplineSet
662.374023438 -12.375 m 0
 643.1171875 -31.6318359375 621.384765625 -42.095703125 614.64453125 -35.35546875 c 2
 489.64453125 89.64453125 l 2
 482.154296875 97.134765625 497.451171875 122.200195312 512.625 137.374023438 c 2
 552.270507812 177.01953125 l 1
 464.64453125 264.64453125 l 2
 281.139648438 448.149414062 168.27734375 443.528320312 112.375 387.625976562 c 0
 93.1171875 368.368164062 71.384765625 357.904296875 64.64453125 364.64453125 c 0
 57.904296875 371.384765625 68.3681640625 393.1171875 87.6259765625 412.375 c 0
 243.85546875 568.604492188 365.307617188 505.403320312 535.35546875 335.35546875 c 2
 635.35546875 235.35546875 l 2
 642.186523438 228.524414062 631.890625 207.141601562 612.374023438 187.625976562 c 2
 572.729492188 147.98046875 l 1
 685.35546875 35.35546875 l 2
 692.095703125 28.615234375 681.631835938 6.8828125 662.374023438 -12.375 c 0
EndSplineSet
Substitution2: "do-linkfrom-1" s.lin
Substitution2: "do-link-1" s.lin
Substitution2: "do-cap-1" S
EndChar

StartChar: S.lin
Encoding: 301 -1 82
Width: 700
VWidth: 0
Flags: HW
LayerCount: 2
Back
SplineSet
800 400 m 4
 800 400 600 200 600 200 c 1028
650 0 m 5
 525 125 l 4
 600 200 l 4
 200 600 l 1029
EndSplineSet
Fore
SplineSet
662.374023438 -12.375 m 0
 643.1171875 -31.6318359375 621.384765625 -42.095703125 614.64453125 -35.35546875 c 2
 489.64453125 89.64453125 l 2
 482.154296875 97.134765625 497.451171875 122.200195312 512.625 137.374023438 c 2
 552.270507812 177.01953125 l 1
 164.64453125 564.64453125 l 2
 157.904296875 571.384765625 168.368164062 593.116210938 187.625976562 612.374023438 c 0
 206.883789062 631.6328125 228.615234375 642.095703125 235.35546875 635.35546875 c 2
 622.981445312 247.729492188 l 1
 787.625976562 412.374023438 l 2
 806.883789062 431.6328125 828.615234375 442.095703125 835.35546875 435.35546875 c 0
 842.095703125 428.615234375 831.6328125 406.883789062 812.374023438 387.625976562 c 2
 612.374023438 187.625976562 l 1
 572.729492188 147.98046875 l 1
 685.35546875 35.35546875 l 2
 692.095703125 28.615234375 681.631835938 6.8828125 662.374023438 -12.375 c 0
EndSplineSet
EndChar

StartChar: s.lin
Encoding: 300 -1 83
Width: 700
VWidth: 0
Flags: HW
LayerCount: 2
Back
SplineSet
800 400 m 0
 800 400 600 200 600 200 c 1024
650 0 m 1
 525 125 l 0
 600 200 l 0
 500 300 l 1
 323.223304703 476.776695297 206.066017178 506.066017178 100 400 c 1024
EndSplineSet
Fore
SplineSet
662.374023438 -12.375 m 0
 643.1171875 -31.6318359375 621.384765625 -42.095703125 614.64453125 -35.35546875 c 2
 489.64453125 89.64453125 l 2
 482.154296875 97.134765625 497.451171875 122.200195312 512.625 137.374023438 c 2
 552.270507812 177.01953125 l 1
 464.64453125 264.64453125 l 2
 281.139648438 448.149414062 168.27734375 443.528320312 112.375 387.625976562 c 0
 93.1171875 368.368164062 71.384765625 357.904296875 64.64453125 364.64453125 c 0
 57.904296875 371.384765625 68.3681640625 393.1171875 87.6259765625 412.375 c 0
 243.85546875 568.604492188 365.307617188 505.403320312 535.35546875 335.35546875 c 2
 622.981445312 247.729492188 l 1
 787.625976562 412.374023438 l 2
 806.883789062 431.6328125 828.615234375 442.095703125 835.35546875 435.35546875 c 0
 842.095703125 428.615234375 831.6328125 406.883789062 812.374023438 387.625976562 c 2
 612.374023438 187.625976562 l 1
 572.729492188 147.98046875 l 1
 685.35546875 35.35546875 l 2
 692.095703125 28.615234375 681.631835938 6.8828125 662.374023438 -12.375 c 0
EndSplineSet
EndChar

StartChar: q_c.lin
Encoding: 302 -1 84
Width: 500
VWidth: 0
Flags: HW
LayerCount: 2
Back
SplineSet
600 400 m 1
 500 300 l 1
 393.933982822 193.933982822 423.223304703 176.776695297 600 0 c 1
 700 -100 l 1049
100 400 m 16
 206.066017178 506.066017178 323.223304703 476.776695297 500 300 c 2
 700 100 l 1049
500 300 m 1025
EndSplineSet
Fore
SplineSet
64.64453125 364.64453125 m 0
 57.904296875 371.384765625 68.3681640625 393.1171875 87.6259765625 412.375 c 0
 240.020876492 564.769899929 359.327563831 508.372119801 522.926920374 347.675943811 c 1
 587.625 412.374023438 l 2
 606.8828125 431.631835938 628.615234375 442.095703125 635.35546875 435.35546875 c 0
 642.094726562 428.615234375 631.631835938 406.883789062 612.374023438 387.625976562 c 2
 547.729492188 322.981445312 l 1
 735.35546875 135.35546875 l 2
 742.095703125 128.615234375 731.631835938 106.883789062 712.374023438 87.6259765625 c 0
 693.116210938 68.3681640625 671.384765625 57.904296875 664.64453125 64.64453125 c 2
 480.107656462 249.181406038 l 1
 461.499060116 212.408632692 495.576190804 175.134510136 635.354492188 35.35546875 c 2
 735.35546875 -64.64453125 l 2
 742.094726562 -71.384765625 731.631835938 -93.1171875 712.374023438 -112.375 c 0
 693.116210938 -131.6328125 671.384765625 -142.095703125 664.64453125 -135.35546875 c 2
 564.64453125 -35.35546875 l 2
 410.193069737 119.095992763 348.263102487 156.136665276 453.22034977 275.91565444 c 1
 276.442480754 447.934639709 167.109774682 442.360751245 112.375 387.625976562 c 0
 93.1162109375 368.368164062 71.384765625 357.905273438 64.64453125 364.64453125 c 0
EndSplineSet
LCarets2: 1 400
Ligature2: "ligatures-1" q C
EndChar

StartChar: Q_C.lin
Encoding: 303 -1 85
Width: 500
VWidth: 0
Flags: HW
LayerCount: 2
Back
SplineSet
600 400 m 5
 500 300 l 5
 393.933982822 193.933982822 423.223304703 176.776695297 600 0 c 5
 700 -100 l 1053
200 600 m 4
 200 600 323.223304703 476.776695297 500 300 c 6
 700 100 l 1053
500 300 m 1029
EndSplineSet
Fore
SplineSet
187.625976562 612.374023438 m 0
 206.8828125 631.631835938 228.615234375 642.095703125 235.35546875 635.35546875 c 2
 522.980957031 347.729980469 l 1
 587.625 412.374023438 l 2
 606.8828125 431.631835938 628.615234375 442.095703125 635.35546875 435.35546875 c 0
 642.094726562 428.615234375 631.631835938 406.883789062 612.374023438 387.625976562 c 2
 547.729492188 322.981445312 l 1
 735.35546875 135.35546875 l 2
 742.095703125 128.615234375 731.631835938 106.883789062 712.374023438 87.6259765625 c 0
 693.116210938 68.3681640625 671.384765625 57.904296875 664.64453125 64.64453125 c 2
 480.107656462 249.181406038 l 1
 461.499060116 212.408632692 495.576190804 175.134510136 635.354492188 35.35546875 c 2
 735.35546875 -64.64453125 l 2
 742.094726562 -71.384765625 731.631835938 -93.1171875 712.374023438 -112.375 c 0
 693.116210938 -131.6328125 671.384765625 -142.095703125 664.64453125 -135.35546875 c 2
 564.64453125 -35.35546875 l 2
 410.158015135 119.131047365 348.234995763 156.153472873 453.291839459 275.997223041 c 1
 164.64453125 564.64453125 l 2
 157.904296875 571.384765625 168.368164062 593.1171875 187.625976562 612.374023438 c 0
EndSplineSet
LCarets2: 1 400
Ligature2: "ligatures-1" Q c
EndChar

StartChar: Q_C
Encoding: 304 -1 86
Width: 350
VWidth: 0
Flags: HW
LayerCount: 2
Back
SplineSet
500 300 m 1
 393.933982822 193.933982822 423.223304703 176.776695297 600 0 c 1
 700 -100 l 1049
200 600 m 0
 200 600 323.223304703 476.776695297 500 300 c 2
 700 100 l 1049
500 300 m 1025
EndSplineSet
Fore
SplineSet
187.625976562 612.374023438 m 0
 206.8828125 631.631835938 228.615234375 642.095703125 235.35546875 635.35546875 c 2
 535.35546875 335.35546875 l 1
 735.35546875 135.35546875 l 2
 742.095703125 128.615234375 731.631835938 106.883789062 712.374023438 87.6259765625 c 0
 693.116210938 68.3681640625 671.384765625 57.904296875 664.64453125 64.64453125 c 2
 480.107656462 249.181406038 l 1
 461.499060116 212.408632692 495.576190804 175.134510136 635.354492188 35.35546875 c 2
 735.35546875 -64.64453125 l 2
 742.094726562 -71.384765625 731.631835938 -93.1171875 712.374023438 -112.375 c 0
 693.116210938 -131.6328125 671.384765625 -142.095703125 664.64453125 -135.35546875 c 2
 564.64453125 -35.35546875 l 2
 410.158015135 119.131047365 348.234995763 156.153472873 453.291839459 275.997223041 c 1
 164.64453125 564.64453125 l 2
 157.904296875 571.384765625 168.368164062 593.1171875 187.625976562 612.374023438 c 0
EndSplineSet
LCarets2: 1 250
Substitution2: "do-link-1" Q_C.lin
Ligature2: "ligatures-1" Q C
Substitution2: "do-backlink-1" q_c
EndChar

StartChar: q_c
Encoding: 305 -1 87
Width: 350
VWidth: 0
Flags: HW
LayerCount: 2
Back
SplineSet
500 300 m 1
 393.933982822 193.933982822 423.223304703 176.776695297 600 0 c 1
 700 -100 l 1049
100 400 m 16
 206.066017178 506.066017178 323.223304703 476.776695297 500 300 c 2
 700 100 l 1049
500 300 m 1025
EndSplineSet
Fore
SplineSet
64.64453125 364.64453125 m 0
 57.904296875 371.384765625 68.3681640625 393.1171875 87.6259765625 412.375 c 0
 243.853515625 568.602539062 365.307617188 505.403320312 535.35546875 335.35546875 c 2
 735.35546875 135.35546875 l 2
 742.095703125 128.615234375 731.631835938 106.883789062 712.374023438 87.6259765625 c 0
 693.116210938 68.3681640625 671.384765625 57.904296875 664.64453125 64.64453125 c 2
 480.107656462 249.181406038 l 1
 461.499060116 212.408632692 495.576190804 175.134510136 635.354492188 35.35546875 c 2
 735.35546875 -64.64453125 l 2
 742.094726562 -71.384765625 731.631835938 -93.1171875 712.374023438 -112.375 c 0
 693.116210938 -131.6328125 671.384765625 -142.095703125 664.64453125 -135.35546875 c 2
 564.64453125 -35.35546875 l 2
 410.193069737 119.095992763 348.263102487 156.136665276 453.22034977 275.91565444 c 1
 276.442480754 447.934639709 167.109774682 442.360751245 112.375 387.625976562 c 0
 93.1162109375 368.368164062 71.384765625 357.905273438 64.64453125 364.64453125 c 0
EndSplineSet
LCarets2: 1 250
Substitution2: "do-link-1" q_c.lin
Ligature2: "ligatures-1" q c
Substitution2: "do-cap-1" Q_C
EndChar

StartChar: NameMe.309
Encoding: 309 -1 88
Width: 500
VWidth: 0
Flags: HW
LayerCount: 2
Back
SplineSet
400 200 m 5
 576.776695297 23.2233047034 599.933982822 -8.06601717798 706 98 c 1029
600 400 m 5
 500 300 l 1029
100 400 m 20
 206.066017178 506.066017178 324.293940485 475.706059515 500 300 c 6
 600 200 l 5
 505 101 l 1053
500 300 m 1029
EndSplineSet
Fore
SplineSet
64.64453125 364.64453125 m 0
 57.904296875 371.384765625 68.3681640625 393.1171875 87.6259765625 412.375 c 0
 240.12531629 564.874339728 360.336525708 507.355917648 522.926463347 347.675486784 c 1
 587.625 412.374023438 l 2
 606.8828125 431.631835938 628.615234375 442.095703125 635.35546875 435.35546875 c 0
 642.094726562 428.615234375 631.631835938 406.883789062 612.374023438 387.625976562 c 2
 547.729492188 322.981445312 l 1
 635.35546875 235.35546875 l 2
 642.151367188 228.559570312 630.68359375 206.662109375 614.432617188 189.7265625 c 2
 550.838407332 123.454701703 l 1
 630.888219194 53.139990282 649.739812984 66.4878598585 693.625976562 110.374023438 c 0
 712.8828125 129.631835938 734.615234375 140.095703125 741.35546875 133.35546875 c 0
 748.095703125 126.615234375 737.631835938 104.8828125 718.374023438 85.625 c 0
 576.989257812 -55.759765625 538.405273438 -9.166015625 399.854492188 129.392578125 c 0
 388.822265625 140.42578125 377.11328125 152.174804688 364.64453125 164.64453125 c 0
 357.904296875 171.384765625 368.368164062 193.1171875 387.625 212.374023438 c 0
 406.8828125 231.631835938 428.614257812 242.095703125 435.354492188 235.35546875 c 0
 447.833984375 222.875976562 459.543945312 211.125976562 470.56640625 200.102539062 c 0
 491.019234842 179.648264484 508.996857173 162.06412431 524.931091334 147.084094113 c 1
 552.977539062 176.311523438 l 1
 464.64453125 264.64453125 l 2
 282.186523438 447.102539062 168.146484375 443.3984375 112.375 387.625976562 c 0
 93.1162109375 368.368164062 71.384765625 357.905273438 64.64453125 364.64453125 c 0
EndSplineSet
EndChar

StartChar: NameMe.310
Encoding: 310 -1 89
Width: 500
VWidth: 0
Flags: HW
LayerCount: 2
Back
SplineSet
400 200 m 5
 576.776695297 23.2233047034 599.933982822 -8.06601717798 706 98 c 1029
600 400 m 5
 500 300 l 1029
200 600 m 20
 200 600 324.293940485 475.706059515 500 300 c 6
 600 200 l 5
 505 101 l 1053
500 300 m 1029
EndSplineSet
Fore
SplineSet
187.625976562 612.374023438 m 0
 206.8828125 631.631835938 228.615234375 642.095703125 235.35546875 635.35546875 c 2
 522.980957031 347.729980469 l 1
 587.625 412.374023438 l 2
 606.8828125 431.631835938 628.615234375 442.095703125 635.35546875 435.35546875 c 0
 642.094726562 428.615234375 631.631835938 406.883789062 612.374023438 387.625976562 c 2
 547.729492188 322.981445312 l 1
 635.35546875 235.35546875 l 2
 642.151367188 228.559570312 630.68359375 206.662109375 614.432617188 189.7265625 c 2
 550.838407332 123.454701703 l 1
 630.888219194 53.139990282 649.739812984 66.4878598585 693.625976562 110.374023438 c 0
 712.8828125 129.631835938 734.615234375 140.095703125 741.35546875 133.35546875 c 0
 748.095703125 126.615234375 737.631835938 104.8828125 718.374023438 85.625 c 0
 576.989257812 -55.759765625 538.405273438 -9.166015625 399.854492188 129.392578125 c 0
 388.822265625 140.42578125 377.11328125 152.174804688 364.64453125 164.64453125 c 0
 357.904296875 171.384765625 368.368164062 193.1171875 387.625 212.374023438 c 0
 406.8828125 231.631835938 428.614257812 242.095703125 435.354492188 235.35546875 c 0
 447.833984375 222.875976562 459.543945312 211.125976562 470.56640625 200.102539062 c 0
 491.019234842 179.648264484 508.996857173 162.06412431 524.931091334 147.084094113 c 1
 552.977539062 176.311523438 l 1
 464.64453125 264.64453125 l 1
 164.64453125 564.64453125 l 2
 157.904296875 571.384765625 168.368164062 593.1171875 187.625976562 612.374023438 c 0
EndSplineSet
EndChar

StartChar: NameMe.308
Encoding: 308 -1 90
Width: 1000
VWidth: 0
Flags: H
LayerCount: 2
Back
SplineSet
400 200 m 5
 576.776695297 23.2233047034 599.933982822 -8.06601717798 706 98 c 1029
500 300 m 1029
200 600 m 20
 200 600 324.293940485 475.706059515 500 300 c 6
 600 200 l 5
 505 101 l 1053
500 300 m 1029
EndSplineSet
EndChar

StartChar: NameMe.307
Encoding: 307 -1 91
Width: 1000
VWidth: 0
Flags: H
LayerCount: 2
Back
SplineSet
400 200 m 5
 576.776695297 23.2233047034 599.933982822 -8.06601717798 706 98 c 1029
500 300 m 1029
100 400 m 20
 206.066017178 506.066017178 324.293940485 475.706059515 500 300 c 6
 600 200 l 5
 505 101 l 1053
500 300 m 1029
EndSplineSet
EndChar

StartChar: q_t.lin
Encoding: 313 -1 92
Width: 900
VWidth: 0
Flags: HW
LayerCount: 2
Back
SplineSet
1000 400 m 25
 600 0 l 1049
700 100 m 25
 500 300 l 0
 323.223304703 476.776695297 206.066017178 506.066017178 100 400 c 1032
EndSplineSet
Fore
SplineSet
1035.35546875 435.35546875 m 0
 1042.09472656 428.615234375 1031.63183594 406.883789062 1012.37402344 387.625976562 c 2
 612.374023438 -12.375 l 2
 593.116210938 -31.6318359375 571.384765625 -42.095703125 564.64453125 -35.35546875 c 0
 557.904296875 -28.615234375 568.368164062 -6.8828125 587.625 12.3740234375 c 2
 652.270019531 77.0190429688 l 1
 464.64453125 264.64453125 l 2
 281.139648438 448.149414062 168.27734375 443.528320312 112.375 387.625976562 c 0
 93.1171875 368.368164062 71.384765625 357.904296875 64.64453125 364.64453125 c 0
 57.904296875 371.384765625 68.3681640625 393.1171875 87.6259765625 412.375 c 0
 243.85546875 568.604492188 365.307617188 505.403320312 535.35546875 335.35546875 c 2
 722.980957031 147.729980469 l 1
 987.625 412.374023438 l 2
 1006.8828125 431.631835938 1028.61523438 442.095703125 1035.35546875 435.35546875 c 0
EndSplineSet
LCarets2: 1 0
Ligature2: "ligatures-1" q T
EndChar

StartChar: q_t
Encoding: 311 -1 93
Width: 350
VWidth: 0
Flags: HW
LayerCount: 2
Back
SplineSet
800 200 m 29
 600 0 l 1053
700 100 m 29
 500 300 l 4
 323.223304703 476.776695297 206.066017178 506.066017178 100 400 c 1036
EndSplineSet
Fore
SplineSet
835.35546875 235.35546875 m 0
 842.094726562 228.615234375 831.631835938 206.883789062 812.374023438 187.625976562 c 2
 612.374023438 -12.375 l 2
 593.116210938 -31.6318359375 571.384765625 -42.095703125 564.64453125 -35.35546875 c 0
 557.904296875 -28.615234375 568.368164062 -6.8828125 587.625 12.3740234375 c 2
 652.270019531 77.0190429688 l 1
 464.64453125 264.64453125 l 2
 281.139648438 448.149414062 168.27734375 443.528320312 112.375 387.625976562 c 0
 93.1171875 368.368164062 71.384765625 357.904296875 64.64453125 364.64453125 c 0
 57.904296875 371.384765625 68.3681640625 393.1171875 87.6259765625 412.375 c 0
 243.85546875 568.604492188 365.307617188 505.403320312 535.35546875 335.35546875 c 2
 722.980957031 147.729980469 l 1
 787.625 212.374023438 l 2
 806.8828125 231.631835938 828.615234375 242.095703125 835.35546875 235.35546875 c 0
EndSplineSet
LCarets2: 1 0
Substitution2: "do-link-1" q_t.lin
Ligature2: "ligatures-1" q t
Substitution2: "do-cap-1" Q_T
EndChar

StartChar: Q_T
Encoding: 312 -1 94
Width: 350
VWidth: 0
Flags: HW
LayerCount: 2
Back
SplineSet
800 200 m 29
 600 0 l 1053
700 100 m 29
 500 300 l 4
 323.223304703 476.776695297 200 600 200 600 c 1036
EndSplineSet
Fore
SplineSet
835.35546875 235.35546875 m 0
 842.094726562 228.615234375 831.631835938 206.883789062 812.374023438 187.625976562 c 2
 612.374023438 -12.375 l 2
 593.116210938 -31.6318359375 571.384765625 -42.095703125 564.64453125 -35.35546875 c 0
 557.904296875 -28.615234375 568.368164062 -6.8828125 587.625 12.3740234375 c 2
 652.270019531 77.0190429688 l 1
 464.64453125 264.64453125 l 1
 164.64453125 564.64453125 l 2
 157.904296875 571.384765625 168.368164062 593.116210938 187.625976562 612.374023438 c 0
 206.883789062 631.6328125 228.615234375 642.095703125 235.35546875 635.35546875 c 2
 535.35546875 335.35546875 l 1
 722.980957031 147.729980469 l 1
 787.625 212.374023438 l 2
 806.8828125 231.631835938 828.615234375 242.095703125 835.35546875 235.35546875 c 0
EndSplineSet
LCarets2: 1 0
Substitution2: "do-link-1" Q_T.lin
Ligature2: "ligatures-1" Q T
Substitution2: "do-backlink-1" q_t
EndChar

StartChar: Q_T.lin
Encoding: 314 -1 95
Width: 900
VWidth: 0
Flags: HW
LayerCount: 2
Back
SplineSet
1000 400 m 29
 600 0 l 1053
700 100 m 29
 500 300 l 4
 323.223304703 476.776695297 200 600 200 600 c 1036
EndSplineSet
Fore
SplineSet
1035.35546875 435.35546875 m 0
 1042.09472656 428.615234375 1031.63183594 406.883789062 1012.37402344 387.625976562 c 2
 612.374023438 -12.375 l 2
 593.116210938 -31.6318359375 571.384765625 -42.095703125 564.64453125 -35.35546875 c 0
 557.904296875 -28.615234375 568.368164062 -6.8828125 587.625 12.3740234375 c 2
 652.270019531 77.0190429688 l 1
 464.64453125 264.64453125 l 1
 164.64453125 564.64453125 l 2
 157.904296875 571.384765625 168.368164062 593.116210938 187.625976562 612.374023438 c 0
 206.883789062 631.6328125 228.615234375 642.095703125 235.35546875 635.35546875 c 2
 535.35546875 335.35546875 l 1
 722.980957031 147.729980469 l 1
 987.625 412.374023438 l 2
 1006.8828125 431.631835938 1028.61523438 442.095703125 1035.35546875 435.35546875 c 0
EndSplineSet
LCarets2: 1 0
Ligature2: "ligatures-1" Q t
EndChar

StartChar: q_d
Encoding: 315 -1 96
Width: 350
VWidth: 0
Flags: HW
LayerCount: 2
Back
SplineSet
700 0 m 25
 800 100 l 1049
800 200 m 29
 600 0 l 1053
700 100 m 29
 500 300 l 4
 323.223304703 476.776695297 206.066017178 506.066017178 100 400 c 1036
EndSplineSet
Fore
SplineSet
835.35546875 235.35546875 m 0
 842.094726562 228.615234375 831.631835938 206.883789062 812.374023438 187.625976562 c 2
 612.374023438 -12.375 l 2
 593.116210938 -31.6318359375 571.384765625 -42.095703125 564.64453125 -35.35546875 c 0
 557.904296875 -28.615234375 568.368164062 -6.8828125 587.625 12.3740234375 c 2
 652.270019531 77.0190429688 l 1
 464.64453125 264.64453125 l 2
 281.139648438 448.149414062 168.27734375 443.528320312 112.375 387.625976562 c 0
 93.1171875 368.368164062 71.384765625 357.904296875 64.64453125 364.64453125 c 0
 57.904296875 371.384765625 68.3681640625 393.1171875 87.6259765625 412.375 c 0
 243.85546875 568.604492188 365.307617188 505.403320312 535.35546875 335.35546875 c 2
 722.980957031 147.729980469 l 1
 787.625 212.374023438 l 2
 806.8828125 231.631835938 828.615234375 242.095703125 835.35546875 235.35546875 c 0
664.64453125 -35.35546875 m 0
 657.904296875 -28.615234375 668.3671875 -6.8837890625 687.625976562 12.3740234375 c 2
 787.625976562 112.375 l 2
 806.883789062 131.631835938 828.615234375 142.095703125 835.35546875 135.35546875 c 0
 842.095703125 128.615234375 831.631835938 106.8828125 812.375 87.6259765625 c 2
 712.374023438 -12.375 l 2
 693.116210938 -31.6328125 671.384765625 -42.095703125 664.64453125 -35.35546875 c 0
EndSplineSet
LCarets2: 1 0
Substitution2: "do-link-1" q_d.lin
Ligature2: "ligatures-1" q d
Substitution2: "do-cap-1" Q_D
EndChar

StartChar: Q_D
Encoding: 316 -1 97
Width: 350
VWidth: 0
Flags: HW
LayerCount: 2
Back
SplineSet
700 0 m 29
 800 100 l 1053
800 200 m 29
 600 0 l 1053
700 100 m 29
 500 300 l 4
 323.223304703 476.776695297 200 600 200 600 c 1036
EndSplineSet
Fore
SplineSet
835.35546875 235.35546875 m 0
 842.094726562 228.615234375 831.631835938 206.883789062 812.374023438 187.625976562 c 2
 612.374023438 -12.375 l 2
 593.116210938 -31.6318359375 571.384765625 -42.095703125 564.64453125 -35.35546875 c 0
 557.904296875 -28.615234375 568.368164062 -6.8828125 587.625 12.3740234375 c 2
 652.270019531 77.0190429688 l 1
 464.64453125 264.64453125 l 1
 164.64453125 564.64453125 l 2
 157.904296875 571.384765625 168.368164062 593.116210938 187.625976562 612.374023438 c 0
 206.883789062 631.6328125 228.615234375 642.095703125 235.35546875 635.35546875 c 2
 535.35546875 335.35546875 l 1
 722.980957031 147.729980469 l 1
 787.625 212.374023438 l 2
 806.8828125 231.631835938 828.615234375 242.095703125 835.35546875 235.35546875 c 0
664.64453125 -35.35546875 m 0
 657.904296875 -28.615234375 668.3671875 -6.8837890625 687.625976562 12.3740234375 c 2
 787.625976562 112.375 l 2
 806.883789062 131.631835938 828.615234375 142.095703125 835.35546875 135.35546875 c 0
 842.095703125 128.615234375 831.631835938 106.8828125 812.375 87.6259765625 c 2
 712.374023438 -12.375 l 2
 693.116210938 -31.6328125 671.384765625 -42.095703125 664.64453125 -35.35546875 c 0
EndSplineSet
LCarets2: 1 0
Substitution2: "do-link-1" Q_D.lin
Ligature2: "ligatures-1" Q D
Substitution2: "do-backlink-1" q_d
EndChar

StartChar: Q_D.lin
Encoding: 318 -1 98
Width: 1000
VWidth: 0
Flags: HW
LayerCount: 2
Back
SplineSet
700 0 m 29
 1100 400 l 1053
800 200 m 25
 600 0 l 1049
700 100 m 25
 500 300 l 0
 323.223304703 476.776695297 200 600 200 600 c 1032
EndSplineSet
Fore
SplineSet
835.35546875 235.35546875 m 0
 842.094726562 228.615234375 831.631835938 206.883789062 812.374023438 187.625976562 c 2
 612.374023438 -12.375 l 2
 593.116210938 -31.6318359375 571.384765625 -42.095703125 564.64453125 -35.35546875 c 0
 557.904296875 -28.615234375 568.368164062 -6.8828125 587.625 12.3740234375 c 2
 652.270019531 77.0190429688 l 1
 464.64453125 264.64453125 l 1
 164.64453125 564.64453125 l 2
 157.904296875 571.384765625 168.368164062 593.116210938 187.625976562 612.374023438 c 0
 206.883789062 631.6328125 228.615234375 642.095703125 235.35546875 635.35546875 c 2
 535.35546875 335.35546875 l 1
 722.980957031 147.729980469 l 1
 787.625 212.374023438 l 2
 806.8828125 231.631835938 828.615234375 242.095703125 835.35546875 235.35546875 c 0
664.64453125 -35.35546875 m 0
 657.904296875 -28.615234375 668.3671875 -6.8837890625 687.625976562 12.3740234375 c 2
 1087.62597656 412.374023438 l 2
 1106.8828125 431.631835938 1128.61523438 442.095703125 1135.35546875 435.35546875 c 0
 1142.09570312 428.615234375 1131.63183594 406.8828125 1112.37402344 387.625976562 c 2
 712.374023438 -12.375 l 2
 693.116210938 -31.6328125 671.384765625 -42.095703125 664.64453125 -35.35546875 c 0
EndSplineSet
LCarets2: 1 0
Ligature2: "ligatures-1" Q d
EndChar

StartChar: q_d.lin
Encoding: 317 -1 99
Width: 1000
VWidth: 0
Flags: HW
LayerCount: 2
Back
SplineSet
700 0 m 29
 1100 400 l 1053
800 200 m 25
 600 0 l 1049
700 100 m 25
 500 300 l 0
 323.223304703 476.776695297 206.066017178 506.066017178 100 400 c 1032
EndSplineSet
Fore
SplineSet
835.35546875 235.35546875 m 0
 842.094726562 228.615234375 831.631835938 206.883789062 812.374023438 187.625976562 c 2
 612.374023438 -12.375 l 2
 593.116210938 -31.6318359375 571.384765625 -42.095703125 564.64453125 -35.35546875 c 0
 557.904296875 -28.615234375 568.368164062 -6.8828125 587.625 12.3740234375 c 2
 652.270019531 77.0190429688 l 1
 464.64453125 264.64453125 l 2
 281.139648438 448.149414062 168.27734375 443.528320312 112.375 387.625976562 c 0
 93.1171875 368.368164062 71.384765625 357.904296875 64.64453125 364.64453125 c 0
 57.904296875 371.384765625 68.3681640625 393.1171875 87.6259765625 412.375 c 0
 243.85546875 568.604492188 365.307617188 505.403320312 535.35546875 335.35546875 c 2
 722.980957031 147.729980469 l 1
 787.625 212.374023438 l 2
 806.8828125 231.631835938 828.615234375 242.095703125 835.35546875 235.35546875 c 0
664.64453125 -35.35546875 m 0
 657.904296875 -28.615234375 668.3671875 -6.8837890625 687.625976562 12.3740234375 c 2
 1087.62597656 412.374023438 l 2
 1106.8828125 431.631835938 1128.61523438 442.095703125 1135.35546875 435.35546875 c 0
 1142.09570312 428.615234375 1131.63183594 406.8828125 1112.37402344 387.625976562 c 2
 712.374023438 -12.375 l 2
 693.116210938 -31.6328125 671.384765625 -42.095703125 664.64453125 -35.35546875 c 0
EndSplineSet
LCarets2: 1 0
Ligature2: "ligatures-1" q D
EndChar

StartChar: m
Encoding: 109 109 100
Width: 700
VWidth: 0
Flags: HW
LayerCount: 2
Fore
SplineSet
64.64453125 364.64453125 m 0
 57.904296875 371.384765625 68.3681640625 393.1171875 87.6259765625 412.375 c 0
 244.03125 568.780273438 367.45703125 504.379882812 535.362304688 335.348632812 c 2
 717.286091685 153.424845815 l 1
 726.630279066 166.26865974 738.590106533 179.581281059 753.759765625 193.07421875 c 0
 850.5390625 279.15625 920.484375 226.73046875 998.788085938 33.15625 c 0
 1000.09960938 29.9130859375 1001.38183594 26.701171875 1002.63476562 23.5185546875 c 0
 1061.07714844 -124.954101562 1081.30761719 -217.934570312 991.671875 -298.705078125 c 0
 906.11328125 -375.801757812 861.72265625 -313.130859375 843.130859375 -266.958007812 c 0
 823.077148438 -217.151367188 822.010742188 -133.120117188 919.694335938 -19.7919921875 c 1
 858.961914062 124.2734375 798.426757812 158.815429688 768.13671875 154.63671875 c 1
 762.809570312 141.336914062 760.354492188 122.524414062 764.8984375 109.8671875 c 0
 765.364987103 108.567772945 765.525166257 107.032821257 765.405057959 105.305879541 c 2
 835.35546875 35.35546875 l 2
 842.095703125 28.615234375 831.6328125 6.8837890625 812.374023438 -12.3740234375 c 0
 793.116210938 -31.6318359375 771.384765625 -42.095703125 764.64453125 -35.35546875 c 2
 464.64453125 264.64453125 l 2
 283.28125 447.224609375 168.100585938 443.3515625 112.375 387.625976562 c 0
 93.1162109375 368.368164062 71.384765625 357.905273438 64.64453125 364.64453125 c 0
935.731445312 -60.2197265625 m 1
 880.297851562 -149.723632812 921.579101562 -242.712890625 971.706054688 -254.91015625 c 1
 977.364257812 -217.213867188 970.02734375 -152.35546875 935.731445312 -60.2197265625 c 1
EndSplineSet
Substitution2: "do-linkfrom-1" m.lin
Substitution2: "do-link-1" m.lin
Substitution2: "do-cap-1" M
EndChar

StartChar: M
Encoding: 77 77 101
Width: 700
VWidth: 0
Flags: HW
LayerCount: 2
Back
SplineSet
200 600 m 1
 200 600 423.223304703 376.776695297 600 200 c 0
 725 75 l 1033
952 56 m 0
 547 56 962 -338 962 0 c 0
 962 362.215897962 700.86328125 142.2265625 725 75 c 1025
EndSplineSet
Fore
SplineSet
910.73828125 88.716796875 m 1
 909.733398438 92.072265625 908.65625 95.3974609375 907.595703125 98.412109375 c 0
 871.388671875 201.33203125 792.241210938 157.080078125 776.728515625 143.283203125 c 0
 769.65234375 136.990234375 756.739257812 122.23828125 761.8984375 107.868164062 c 0
 763.463851269 103.508238722 761.580329191 96.4964339167 757.232958416 88.4779616854 c 0
 752.89319459 80.4155692122 746.019987818 71.271500179 737.374023438 62.6259765625 c 0
 736.452395309 61.7043484341 735.525101752 60.8028613181 734.594056325 59.9224378296 c 0
 733.565069463 58.9464641051 732.516887989 57.9824610788 731.451171875 57.033203125 c 0
 722.465162592 49.0287082907 713.551380789 43.2468677388 706.127470937 40.1748631109 c 0
 698.675373844 37.0569833106 692.659846137 36.6292163639 689.64453125 39.64453125 c 2
 564.64453125 164.64453125 l 1
 164.64453125 564.64453125 l 2
 157.904296875 571.384765625 168.368164062 593.1171875 187.625976562 612.374023438 c 0
 206.8828125 631.631835938 228.615234375 642.095703125 235.35546875 635.35546875 c 2
 635.35546875 235.35546875 l 1
 728.255207226 142.455730274 l 1
 738.478947664 154.840699819 750.435716879 167.308433444 763.984375 179.358398438 c 0
 855.267578125 260.543945312 945.08984375 267.342773438 981.427734375 164.051757812 c 0
 985.962890625 151.16015625 989.747070312 136.409179688 992.66015625 119.62109375 c 0
 997.046875 94.3369140625 999.458007812 64.4326171875 999.458007812 29.2822265625 c 0
 999.458007812 -29.2646484375 994.51171875 -90.8251953125 922.176757812 -147.252929688 c 0
 815.500976562 -230.467773438 736.759765625 -123.313476562 737.099609375 -60.2412109375 c 0
 737.182617188 -44.7392578125 739.3828125 -21.5087890625 770.499023438 14.7705078125 c 0
 780.215820312 26.099609375 791.669921875 36.7841796875 802.31640625 45.0634765625 c 0
 840.205078125 74.5244140625 871.819335938 82.849609375 910.73828125 88.716796875 c 1
922.786132812 18.5419921875 m 1
 870.545898438 18.5419921875 832.314453125 10.875 812.2578125 2.8525390625 c 1
 807.857421875 -40.8564453125 870.498046875 -102.065429688 915.739257812 -99.41015625 c 1
 920.711914062 -83.89453125 924.541015625 -60.06640625 924.541015625 -29.283203125 c 0
 924.541015625 -12.2392578125 923.916992188 3.9052734375 922.786132812 18.5419921875 c 1
EndSplineSet
Substitution2: "do-linkfrom-1" M.lin
Substitution2: "do-link-1" M.lin
Substitution2: "do-backlink-1" m
EndChar

StartChar: M.lin
Encoding: 319 -1 102
Width: 700
VWidth: 0
Flags: HW
LayerCount: 2
Back
SplineSet
952 56 m 4
 547 56 962 -338 962 0 c 4
 962 362.215897962 700.86328125 142.2265625 725 75 c 5
 689.64453125 110.35546875 658.579101562 258.579101562 800 400 c 1029
200 600 m 5
 725 75 l 1053
EndSplineSet
Fore
SplineSet
187.625976562 612.374023438 m 0
 206.8828125 631.631835938 228.615234375 642.095703125 235.35546875 635.35546875 c 2
 662.924781429 207.786156071 l 1
 676.63439681 266.910014991 712.418108438 337.166553839 787.625976562 412.374023438 c 0
 806.8828125 431.631835938 828.615234375 442.095703125 835.35546875 435.35546875 c 0
 842.095703125 428.615234375 831.631835938 406.8828125 812.374023438 387.625976562 c 0
 741.568359375 316.8203125 721.725585938 219.819335938 738.658203125 154.385742188 c 1
 803.439453125 225.13671875 879.55078125 255.353515625 927.880859375 232.400390625 c 0
 958.008789062 218.091796875 981.575195312 183.512695312 992.66015625 119.62109375 c 0
 997.046875 94.3369140625 999.458007812 64.4326171875 999.458007812 29.2822265625 c 0
 999.458007812 -29.2646484375 994.51171875 -90.8251953125 922.176757812 -147.252929688 c 0
 815.500976562 -230.467773438 736.759765625 -123.313476562 737.099609375 -60.2412109375 c 0
 737.182617188 -44.7392578125 739.3828125 -21.5087890625 770.499023438 14.7705078125 c 0
 780.215820312 26.099609375 791.669921875 36.7841796875 802.31640625 45.0634765625 c 0
 840.205078125 74.5244140625 871.819335938 82.849609375 910.73828125 88.716796875 c 1
 909.733398438 92.072265625 908.65625 95.3974609375 907.595703125 98.412109375 c 0
 871.388671875 201.33203125 792.241210938 157.080078125 776.728515625 143.283203125 c 0
 769.877929688 137.190429688 761.326171875 127.296875 760.895507812 114.779296875 c 0
 760.815429688 112.4375 761.1015625 110.08984375 761.8984375 107.868164062 c 0
 763.323334381 103.899317758 761.891927869 97.7630437767 758.372659698 90.6883944955 c 0
 754.150784313 82.1131543438 746.820521466 72.0719955785 737.374023438 62.6259765625 c 0
 735.976586265 61.2285393897 734.566123847 59.877407915 733.149308828 58.5757963627 c 0
 731.646279212 57.1886501601 730.106778303 55.83046613 728.536132812 54.509765625 c 0
 719.773594383 47.1416881448 711.227161696 41.9751718933 704.234566924 39.4294643175 c 0
 697.661221306 37.0088347973 692.400091243 36.888971582 689.64453125 39.64453125 c 2
 164.64453125 564.64453125 l 2
 157.904296875 571.384765625 168.368164062 593.1171875 187.625976562 612.374023438 c 0
922.786132812 18.5419921875 m 1
 870.545898438 18.5419921875 832.314453125 10.875 812.2578125 2.8525390625 c 1
 807.857421875 -40.8564453125 870.498046875 -102.065429688 915.739257812 -99.41015625 c 1
 920.711914062 -83.89453125 924.541015625 -60.06640625 924.541015625 -29.283203125 c 0
 924.541015625 -12.2392578125 923.916992188 3.9052734375 922.786132812 18.5419921875 c 1
EndSplineSet
EndChar

StartChar: m.lin
Encoding: 320 -1 103
Width: 700
VWidth: 0
Flags: HW
LayerCount: 2
Back
SplineSet
952 56 m 0
 547 56 962 -338 962 0 c 0
 962 362.215897962 700.86328125 142.2265625 725 75 c 1
 689.64453125 110.35546875 658.579101562 258.579101562 800 400 c 1025
100 400 m 1
 206.066017178 506.066017178 423.223304703 376.776695297 600 200 c 0
 725 75 l 1033
EndSplineSet
Fore
SplineSet
64.64453125 364.64453125 m 0
 57.904296875 371.384765625 68.3681640625 393.1171875 87.6259765625 412.375 c 0
 251.985351562 576.734375 467.716796875 402.994140625 635.35546875 235.35546875 c 2
 662.924781429 207.786156071 l 1
 676.63439681 266.910014991 712.418108438 337.166553839 787.625976562 412.374023438 c 0
 806.8828125 431.631835938 828.615234375 442.095703125 835.35546875 435.35546875 c 0
 842.095703125 428.615234375 831.631835938 406.8828125 812.374023438 387.625976562 c 0
 741.568359375 316.8203125 721.725585938 219.819335938 738.658203125 154.385742188 c 1
 803.439453125 225.13671875 879.55078125 255.353515625 927.880859375 232.400390625 c 0
 958.008789062 218.091796875 981.575195312 183.512695312 992.66015625 119.62109375 c 0
 997.046875 94.3369140625 999.458007812 64.4326171875 999.458007812 29.2822265625 c 0
 999.458007812 -29.2646484375 994.51171875 -90.8251953125 922.176757812 -147.252929688 c 0
 815.500976562 -230.467773438 736.759765625 -123.313476562 737.099609375 -60.2412109375 c 0
 737.182617188 -44.7392578125 739.3828125 -21.5087890625 770.499023438 14.7705078125 c 0
 780.215820312 26.099609375 791.669921875 36.7841796875 802.31640625 45.0634765625 c 0
 840.205078125 74.5244140625 871.819335938 82.849609375 910.73828125 88.716796875 c 1
 909.733398438 92.072265625 908.65625 95.3974609375 907.595703125 98.412109375 c 0
 871.388671875 201.33203125 792.241210938 157.080078125 776.728515625 143.283203125 c 0
 769.877929688 137.190429688 761.326171875 127.296875 760.895507812 114.779296875 c 0
 760.815429688 112.4375 761.1015625 110.08984375 761.8984375 107.868164062 c 0
 763.323334381 103.899317758 761.891927869 97.7630437767 758.372659698 90.6883944955 c 0
 754.150784313 82.1131543438 746.820521466 72.0719955785 737.374023438 62.6259765625 c 0
 735.976586265 61.2285393897 734.566123847 59.877407915 733.149308828 58.5757963627 c 0
 731.646279212 57.1886501601 730.106778303 55.83046613 728.536132812 54.509765625 c 0
 719.773594383 47.1416881448 711.227161696 41.9751718933 704.234566924 39.4294643175 c 0
 697.661221306 37.0088347973 692.400091243 36.888971582 689.64453125 39.64453125 c 2
 564.64453125 164.64453125 l 2
 390.733398438 338.555664062 175.384765625 435.37890625 112.176757812 387.420898438 c 0
 93.0908203125 368.75 71.5361328125 357.752929688 64.64453125 364.64453125 c 0
922.786132812 18.5419921875 m 1
 870.545898438 18.5419921875 832.314453125 10.875 812.2578125 2.8525390625 c 1
 807.857421875 -40.8564453125 870.498046875 -102.065429688 915.739257812 -99.41015625 c 1
 920.711914062 -83.89453125 924.541015625 -60.06640625 924.541015625 -29.283203125 c 0
 924.541015625 -12.2392578125 923.916992188 3.9052734375 922.786132812 18.5419921875 c 1
EndSplineSet
EndChar

StartChar: D
Encoding: 68 68 104
Width: 350
VWidth: 0
Flags: HW
LayerCount: 2
Back
SplineSet
600 -100 m 5
 628.337972327 -60.7937164915 557.250976562 7.197265625 472 89 c 1037
500 300 m 1028
500 300 m 1053
200 600 m 5
 200 600 323.223632812 476.776367188 500 300 c 4
 676.776367188 123.223632812 706.06640625 6.06640625 600 -100 c 1029
EndSplineSet
Fore
SplineSet
187.625976562 612.374023438 m 0
 206.8828125 631.631835938 228.615234375 642.095703125 235.35546875 635.35546875 c 2
 535.35546875 335.35546875 l 2
 705.403320312 165.307617188 768.604492188 43.85546875 612.375 -112.374023438 c 0
 605.420077772 -119.328945665 598.142397331 -125.136891688 591.364712277 -129.401712792 c 0
 584.569995193 -133.734735468 578.159879725 -136.598987437 573.045898438 -137.291992188 c 0
 571.573627819 -137.491554182 570.268477885 -137.496061505 569.12548972 -137.324348747 c 0
 567.276159266 -137.111021007 565.756373025 -136.467310846 564.64453125 -135.35546875 c 0
 561.790052186 -132.500989686 562.021145408 -126.957647267 564.699018795 -120.052129732 c 0
 565.682560524 -117.365746712 567.04773847 -114.489477381 568.770507812 -111.514648438 c 0
 571.534179688 -84.0166015625 511.036132812 -17.7392578125 436.734375 53.5556640625 c 0
 429.85546875 60.1572265625 440.161132812 81.8125 459.370117188 101.118164062 c 0
 478.579101562 120.424804688 500.385742188 131.043945312 507.264648438 124.443359375 c 0
 547.163747452 86.1584968525 592.687665658 52.7817852666 620.304172882 18.0304711041 c 1
 612.31116562 79.1627042608 568.754551931 160.534510569 464.64453125 264.64453125 c 2
 164.64453125 564.64453125 l 2
 157.904296875 571.384765625 168.368164062 593.1171875 187.625976562 612.374023438 c 0
EndSplineSet
Substitution2: "do-link-1" D.lin
Substitution2: "do-backlink-1" d
EndChar

StartChar: d
Encoding: 100 100 105
Width: 350
VWidth: 0
Flags: HW
LayerCount: 2
Back
SplineSet
600 -100 m 5
 628.337972327 -60.7937164915 557.250976562 7.197265625 472 89 c 1037
500 300 m 1028
500 300 m 1053
100 400 m 5
 206.066017178 506.066017178 323.223632812 476.776367188 500 300 c 4
 676.776367188 123.223632812 706.06640625 6.06640625 600 -100 c 1029
EndSplineSet
Fore
SplineSet
64.64453125 364.64453125 m 0
 57.904296875 371.384765625 68.3681640625 393.1171875 87.6259765625 412.375 c 0
 243.853515625 568.602539062 365.307617188 505.403320312 535.35546875 335.35546875 c 0
 705.403320312 165.307617188 768.604492188 43.85546875 612.375 -112.374023438 c 0
 605.420077772 -119.328945665 598.142397331 -125.136891688 591.364712277 -129.401712792 c 0
 584.569995193 -133.734735468 578.159879725 -136.598987437 573.045898438 -137.291992188 c 0
 571.573627819 -137.491554182 570.268477885 -137.496061505 569.12548972 -137.324348747 c 0
 567.276159266 -137.111021007 565.756373025 -136.467310846 564.64453125 -135.35546875 c 0
 561.790052186 -132.500989686 562.021145408 -126.957647267 564.699018795 -120.052129732 c 0
 565.682560524 -117.365746712 567.04773847 -114.489477381 568.770507812 -111.514648438 c 0
 571.534179688 -84.0166015625 511.036132812 -17.7392578125 436.734375 53.5556640625 c 0
 429.85546875 60.1572265625 440.161132812 81.8125 459.370117188 101.118164062 c 0
 478.579101562 120.424804688 500.385742188 131.043945312 507.264648438 124.443359375 c 0
 547.163747452 86.1584968525 592.687665658 52.7817852666 620.304172882 18.0304711041 c 1
 612.31116562 79.1627042608 568.754551931 160.534510569 464.64453125 264.64453125 c 0
 281.139648438 448.149414062 168.279296875 443.530273438 112.375 387.625976562 c 0
 93.1162109375 368.368164062 71.384765625 357.905273438 64.64453125 364.64453125 c 0
EndSplineSet
Substitution2: "do-link-1" d.lin
Substitution2: "do-cap-1" D
EndChar

StartChar: z
Encoding: 122 122 106
Width: 350
VWidth: 0
Flags: HW
LayerCount: 2
Back
SplineSet
600 200 m 1024
100 400 m 0
 206.066017178 506.066017178 323.223304703 476.776695297 500 300 c 1
 600 200 l 0,0,0
 525 125 l 0,0,0
 650 0 l 1,0,-1
 550 -100 l 1049
EndSplineSet
Fore
SplineSet
64.64453125 364.64453125 m 0
 57.904296875 371.384765625 68.3681640625 393.1171875 87.6259765625 412.375 c 0
 243.853515625 568.602539062 365.307617188 505.403320312 535.35546875 335.35546875 c 2
 635.35546875 235.35546875 l 2
 642.186523438 228.524414062 631.890625 207.141601562 612.374023438 187.625976562 c 2
 572.729492188 147.98046875 l 1
 685.35546875 35.35546875 l 2
 692.845703125 27.865234375 677.548828125 2.7998046875 662.374023438 -12.375 c 2
 562.374023438 -112.374023438 l 2
 543.1171875 -131.631835938 521.384765625 -142.095703125 514.64453125 -135.35546875 c 0
 507.904296875 -128.615234375 518.368164062 -106.8828125 537.625976562 -87.625 c 2
 602.270507812 -22.9814453125 l 1
 489.64453125 89.64453125 l 2
 484.333007812 94.955078125 491.224609375 115.973632812 512.625 137.374023438 c 2
 552.270507812 177.01953125 l 1
 464.64453125 264.64453125 l 2
 281.139648438 448.150390625 168.279296875 443.530273438 112.375 387.625976562 c 0
 93.1162109375 368.368164062 71.384765625 357.905273438 64.64453125 364.64453125 c 0
EndSplineSet
Substitution2: "do-linkfrom-1" z.lin
Substitution2: "do-link-1" z.lin
Substitution2: "do-cap-1" Z
EndChar

StartChar: D.lin
Encoding: 322 -1 107
Width: 500
VWidth: 0
Flags: HW
LayerCount: 2
Back
SplineSet
600 -100 m 5
 628.337972327 -60.7937164915 557.250976562 7.197265625 472 89 c 1037
500 300 m 12
 600 400 l 1053
500 300 m 1053
200 600 m 5
 200 600 323.223632812 476.776367188 500 300 c 4
 676.776367188 123.223632812 706.06640625 6.06640625 600 -100 c 1029
EndSplineSet
Fore
SplineSet
187.625976562 612.374023438 m 0
 206.8828125 631.631835938 228.615234375 642.095703125 235.35546875 635.35546875 c 2
 522.980957031 347.729980469 l 1
 587.625 412.374023438 l 2
 606.8828125 431.631835938 628.614257812 442.095703125 635.35546875 435.35546875 c 0
 642.095703125 428.615234375 631.631835938 406.8828125 612.374023438 387.625976562 c 2
 547.675463341 322.927416466 l 1
 708.372100055 159.327896821 764.771958112 40.0229346744 612.375 -112.374023438 c 0
 605.420077772 -119.328945665 598.142397331 -125.136891688 591.364712277 -129.401712792 c 0
 584.569995193 -133.734735468 578.159879725 -136.598987437 573.045898438 -137.291992188 c 0
 571.573627819 -137.491554182 570.268477885 -137.496061505 569.12548972 -137.324348747 c 0
 567.276159266 -137.111021007 565.756373025 -136.467310846 564.64453125 -135.35546875 c 0
 561.790052186 -132.500989686 562.021145408 -126.957647267 564.699018795 -120.052129732 c 0
 565.682560524 -117.365746712 567.04773847 -114.489477381 568.770507812 -111.514648438 c 0
 571.534179688 -84.0166015625 511.036132812 -17.7392578125 436.734375 53.5556640625 c 0
 429.85546875 60.1572265625 440.161132812 81.8125 459.370117188 101.118164062 c 0
 478.579101562 120.424804688 500.385742188 131.043945312 507.264648438 124.443359375 c 0
 547.163747452 86.1584968525 592.687665658 52.7817852666 620.304172882 18.0304711041 c 1
 612.31116562 79.1627042608 568.754551931 160.534510569 464.64453125 264.64453125 c 2
 164.64453125 564.64453125 l 2
 157.904296875 571.384765625 168.368164062 593.1171875 187.625976562 612.374023438 c 0
EndSplineSet
EndChar

StartChar: d.lin
Encoding: 321 -1 108
Width: 500
VWidth: 0
Flags: HW
LayerCount: 2
Back
SplineSet
600 -100 m 5
 628.337972327 -60.7937164915 557.250976562 7.197265625 472 89 c 1037
500 300 m 12
 600 400 l 1053
500 300 m 1053
100 400 m 5
 206.066017178 506.066017178 323.223632812 476.776367188 500 300 c 4
 676.776367188 123.223632812 706.06640625 6.06640625 600 -100 c 1029
EndSplineSet
Fore
SplineSet
64.64453125 364.64453125 m 0
 57.904296875 371.384765625 68.3681640625 393.1171875 87.6259765625 412.375 c 0
 240.020876492 564.769899929 359.327563831 508.372119801 522.926920374 347.675943811 c 1
 587.625 412.374023438 l 2
 606.8828125 431.631835938 628.614257812 442.095703125 635.35546875 435.35546875 c 0
 642.095703125 428.615234375 631.631835938 406.8828125 612.374023438 387.625976562 c 2
 547.675463341 322.927416466 l 1
 708.372100055 159.327896821 764.771958112 40.0229346744 612.375 -112.374023438 c 0
 605.420077772 -119.328945665 598.142397331 -125.136891688 591.364712277 -129.401712792 c 0
 584.569995193 -133.734735468 578.159879725 -136.598987437 573.045898438 -137.291992188 c 0
 571.573627819 -137.491554182 570.268477885 -137.496061505 569.12548972 -137.324348747 c 0
 567.276159266 -137.111021007 565.756373025 -136.467310846 564.64453125 -135.35546875 c 0
 561.790052186 -132.500989686 562.021145408 -126.957647267 564.699018795 -120.052129732 c 0
 565.682560524 -117.365746712 567.04773847 -114.489477381 568.770507812 -111.514648438 c 0
 571.534179688 -84.0166015625 511.036132812 -17.7392578125 436.734375 53.5556640625 c 0
 429.85546875 60.1572265625 440.161132812 81.8125 459.370117188 101.118164062 c 0
 478.579101562 120.424804688 500.385742188 131.043945312 507.264648438 124.443359375 c 0
 547.163747452 86.1584968525 592.687665658 52.7817852666 620.304172882 18.0304711041 c 1
 612.31116562 79.1627042608 568.754551931 160.534510569 464.64453125 264.64453125 c 0
 281.139648438 448.149414062 168.279296875 443.530273438 112.375 387.625976562 c 0
 93.1162109375 368.368164062 71.384765625 357.905273438 64.64453125 364.64453125 c 0
EndSplineSet
EndChar

StartChar: g.lin
Encoding: 323 -1 109
Width: 675
VWidth: 0
Flags: HW
LayerCount: 2
Back
SplineSet
916 200 m 5
 845.289321881 129.289321881 727.289321881 -13.2893218813 798 -84 c 1037
100 400 m 5
 206.066017178 506.066017178 323.223304703 476.776695297 500 300 c 4
 676.776695297 123.223304703 809.933982822 93.933982822 916 200 c 1029
600 225 m 29
 775 400 l 1053
EndSplineSet
Fore
SplineSet
64.64453125 364.64453125 m 0
 57.904296875 371.384765625 68.3681640625 393.1171875 87.6259765625 412.375 c 0
 243.853515625 568.602539062 365.307617188 505.403320312 535.35546875 335.35546875 c 0
 563.102700479 307.608237021 589.617522948 284.175365536 614.829319098 264.578190731 c 1
 762.625976562 412.374023438 l 2
 781.8828125 431.631835938 803.615234375 442.095703125 810.35546875 435.35546875 c 0
 817.095703125 428.615234375 806.631835938 406.8828125 787.374023438 387.625976562 c 2
 643.368053249 243.620006374 l 1
 769.778237736 156.303854835 859.886393546 168.635416984 903.625 212.374023438 c 0
 918.91007784 227.659101278 935.754090852 237.40423783 945.423397312 237.40423783 c 0
 947.936540477 237.40423783 949.965011619 236.745925881 951.35546875 235.35546875 c 0
 958.095703125 228.615234375 947.631835938 206.8828125 928.374023438 187.625976562 c 0
 869.544921875 128.796875 770.5 14.2099609375 833.35546875 -48.64453125 c 0
 840.095703125 -55.384765625 829.631835938 -77.1162109375 810.374023438 -96.375 c 0
 791.116210938 -115.6328125 769.384765625 -126.095703125 762.64453125 -119.35546875 c 0
 709.625708127 -66.3366456268 754.753869246 28.5805608979 815.090174898 110.084784161 c 1
 702.004735008 68.7524925955 592.798030795 136.491031705 464.64453125 264.64453125 c 0
 281.139648438 448.150390625 168.279296875 443.530273438 112.375 387.625976562 c 0
 93.1162109375 368.368164062 71.384765625 357.905273438 64.64453125 364.64453125 c 0
EndSplineSet
EndChar

StartChar: NameMe.324
Encoding: 324 -1 110
Width: 675
VWidth: 0
Flags: HW
LayerCount: 2
Back
SplineSet
916 200 m 5
 845.289321881 129.289321881 727.289321881 -13.2893218813 798 -84 c 1037
200 600 m 5
 200 600 323.223304703 476.776695297 500 300 c 4
 676.776695297 123.223304703 809.933982822 93.933982822 916 200 c 1029
600 225 m 29
 775 400 l 1053
EndSplineSet
Fore
SplineSet
187.625976562 612.374023438 m 0
 206.8828125 631.631835938 228.615234375 642.095703125 235.35546875 635.35546875 c 2
 535.35546875 335.35546875 l 2
 563.102700479 307.608237021 589.617522948 284.175365536 614.829319098 264.578190731 c 1
 762.625976562 412.374023438 l 2
 781.8828125 431.631835938 803.615234375 442.095703125 810.35546875 435.35546875 c 0
 817.095703125 428.615234375 806.631835938 406.8828125 787.374023438 387.625976562 c 2
 643.368053249 243.620006374 l 1
 769.778237736 156.303854835 859.886393546 168.635416984 903.625 212.374023438 c 0
 918.91007784 227.659101278 935.754090852 237.40423783 945.423397312 237.40423783 c 0
 947.936540477 237.40423783 949.965011619 236.745925881 951.35546875 235.35546875 c 0
 958.095703125 228.615234375 947.631835938 206.8828125 928.374023438 187.625976562 c 0
 869.544921875 128.796875 770.5 14.2099609375 833.35546875 -48.64453125 c 0
 840.095703125 -55.384765625 829.631835938 -77.1162109375 810.374023438 -96.375 c 0
 791.116210938 -115.6328125 769.384765625 -126.095703125 762.64453125 -119.35546875 c 0
 709.625708127 -66.3366456268 754.753869246 28.5805608979 815.090174898 110.084784161 c 1
 702.004735008 68.7524925955 592.798030795 136.491031705 464.64453125 264.64453125 c 2
 164.64453125 564.64453125 l 2
 157.904296875 571.384765625 168.368164062 593.1171875 187.625976562 612.374023438 c 0
EndSplineSet
EndChar

StartChar: G
Encoding: 71 71 111
Width: 350
VWidth: 0
Flags: HW
LayerCount: 2
Back
SplineSet
916 200 m 5
 845.289321881 129.289321881 727.289321881 -13.2893218813 798 -84 c 1037
200 600 m 5
 200 600 323.223304703 476.776695297 500 300 c 4
 676.776695297 123.223304703 809.933982822 93.933982822 916 200 c 1029
EndSplineSet
Fore
SplineSet
187.625976562 612.374023438 m 0
 206.8828125 631.631835938 228.615234375 642.095703125 235.35546875 635.35546875 c 2
 535.35546875 335.35546875 l 2
 718.73828125 151.97265625 848.290039062 157.0390625 903.625 212.374023438 c 0
 918.91007784 227.659101278 935.754090852 237.40423783 945.423397312 237.40423783 c 0
 947.936540477 237.40423783 949.965011619 236.745925881 951.35546875 235.35546875 c 0
 958.095703125 228.615234375 947.631835938 206.8828125 928.374023438 187.625976562 c 0
 869.544921875 128.796875 770.5 14.2099609375 833.35546875 -48.64453125 c 0
 840.095703125 -55.384765625 829.631835938 -77.1162109375 810.374023438 -96.375 c 0
 791.116210938 -115.6328125 769.384765625 -126.095703125 762.64453125 -119.35546875 c 0
 709.625708127 -66.3366456268 754.753869246 28.5805608979 815.090174898 110.084784161 c 1
 702.004735008 68.7524925955 592.798030795 136.491031705 464.64453125 264.64453125 c 2
 164.64453125 564.64453125 l 2
 157.904296875 571.384765625 168.368164062 593.1171875 187.625976562 612.374023438 c 0
EndSplineSet
Substitution2: "do-backlink-1" g
EndChar

StartChar: z.lin
Encoding: 325 -1 112
Width: 700
VWidth: 0
Flags: HW
LayerCount: 2
Back
SplineSet
800 400 m 4
 800 400 600 200 600 200 c 1028
100 400 m 4
 206.066017178 506.066017178 323.223304703 476.776695297 500 300 c 5
 600 200 l 4
 525 125 l 4
 650 0 l 5
 550 -100 l 1053
EndSplineSet
Fore
SplineSet
64.64453125 364.64453125 m 0
 57.904296875 371.384765625 68.3681640625 393.1171875 87.6259765625 412.375 c 0
 243.853515625 568.602539062 365.307617188 505.403320312 535.35546875 335.35546875 c 2
 622.981445312 247.729492188 l 1
 787.625976562 412.374023438 l 2
 806.883789062 431.6328125 828.615234375 442.095703125 835.35546875 435.35546875 c 0
 842.095703125 428.615234375 831.6328125 406.883789062 812.374023438 387.625976562 c 2
 612.374023438 187.625976562 l 1
 572.729492188 147.98046875 l 1
 685.35546875 35.35546875 l 2
 692.845703125 27.865234375 677.548828125 2.7998046875 662.374023438 -12.375 c 2
 562.374023438 -112.374023438 l 2
 543.1171875 -131.631835938 521.384765625 -142.095703125 514.64453125 -135.35546875 c 0
 507.904296875 -128.615234375 518.368164062 -106.8828125 537.625976562 -87.625 c 2
 602.270507812 -22.9814453125 l 1
 489.64453125 89.64453125 l 2
 484.333007812 94.955078125 491.224609375 115.973632812 512.625 137.374023438 c 2
 552.270507812 177.01953125 l 1
 464.64453125 264.64453125 l 2
 281.139648438 448.150390625 168.279296875 443.530273438 112.375 387.625976562 c 0
 93.1162109375 368.368164062 71.384765625 357.905273438 64.64453125 364.64453125 c 0
EndSplineSet
EndChar

StartChar: Z.lin
Encoding: 326 -1 113
Width: 700
VWidth: 0
Flags: HW
LayerCount: 2
Back
SplineSet
800 400 m 0
 800 400 600 200 600 200 c 1024
200 600 m 0
 200 600 323.223304703 476.776695297 500 300 c 1
 600 200 l 0
 525 125 l 0
 650 0 l 1
 550 -100 l 1049
EndSplineSet
Fore
SplineSet
187.625976562 612.374023438 m 0
 206.8828125 631.631835938 228.615234375 642.095703125 235.35546875 635.35546875 c 2
 535.35546875 335.35546875 l 1
 622.981445312 247.729492188 l 1
 787.625976562 412.374023438 l 2
 806.883789062 431.6328125 828.615234375 442.095703125 835.35546875 435.35546875 c 0
 842.095703125 428.615234375 831.6328125 406.883789062 812.374023438 387.625976562 c 2
 612.374023438 187.625976562 l 1
 572.729492188 147.98046875 l 1
 685.35546875 35.35546875 l 2
 692.845703125 27.865234375 677.548828125 2.7998046875 662.374023438 -12.375 c 2
 562.374023438 -112.374023438 l 2
 543.1171875 -131.631835938 521.384765625 -142.095703125 514.64453125 -135.35546875 c 0
 507.904296875 -128.615234375 518.368164062 -106.8828125 537.625976562 -87.625 c 2
 602.270507812 -22.9814453125 l 1
 489.64453125 89.64453125 l 2
 484.333007812 94.955078125 491.224609375 115.973632812 512.625 137.374023438 c 2
 552.270507812 177.01953125 l 1
 464.64453125 264.64453125 l 1
 164.64453125 564.64453125 l 2
 157.904296875 571.384765625 168.368164062 593.1171875 187.625976562 612.374023438 c 0
EndSplineSet
EndChar

StartChar: Z
Encoding: 90 90 114
Width: 350
VWidth: 0
Flags: HW
LayerCount: 2
Back
SplineSet
600 200 m 1024
200 600 m 0
 200 600 323.223304703 476.776695297 500 300 c 1
 600 200 l 0,0,0
 525 125 l 0,0,0
 650 0 l 1,0,-1
 550 -100 l 1049
EndSplineSet
Fore
SplineSet
187.625976562 612.374023438 m 0
 206.8828125 631.631835938 228.615234375 642.095703125 235.35546875 635.35546875 c 2
 535.35546875 335.35546875 l 1
 635.35546875 235.35546875 l 2
 642.186523438 228.524414062 631.890625 207.141601562 612.374023438 187.625976562 c 2
 572.729492188 147.98046875 l 1
 685.35546875 35.35546875 l 2
 692.845703125 27.865234375 677.548828125 2.7998046875 662.374023438 -12.375 c 2
 562.374023438 -112.374023438 l 2
 543.1171875 -131.631835938 521.384765625 -142.095703125 514.64453125 -135.35546875 c 0
 507.904296875 -128.615234375 518.368164062 -106.8828125 537.625976562 -87.625 c 2
 602.270507812 -22.9814453125 l 1
 489.64453125 89.64453125 l 2
 484.333007812 94.955078125 491.224609375 115.973632812 512.625 137.374023438 c 2
 552.270507812 177.01953125 l 1
 464.64453125 264.64453125 l 1
 164.64453125 564.64453125 l 2
 157.904296875 571.384765625 168.368164062 593.1171875 187.625976562 612.374023438 c 0
EndSplineSet
Substitution2: "do-linkfrom-1" Z.lin
Substitution2: "do-link-1" Z.lin
Substitution2: "do-backlink-1" z
EndChar
